<?xml version="1.0" standalone="no"?>
<!DOCTYPE svg PUBLIC "-//W3C//DTD SVG 1.1//EN" "http://www.w3.org/Graphics/SVG/1.1/DTD/svg11.dtd" >
<svg>
<metadata>
Created by FontForge 20120731 at Fri Oct 18 07:25:57 2019
 By www-data
</metadata>
<defs>
<font id="icomoon" horiz-adv-x="1024" >
  <font-face 
    font-family="icomoon"
    font-weight="400"
    font-stretch="normal"
    units-per-em="1024"
    panose-1="0 0 0 0 0 0 0 0 0 0"
    ascent="960"
    descent="-64"
    bbox="-0.285714 -64 1063 960.065"
    underline-thickness="0"
    underline-position="0"
    unicode-range="U+0001-FFFD"
  />
<missing-glyph 
 />
    <glyph glyph-name=".notdef" unicode="&#xfffd;" 
 />
    <glyph glyph-name="glyph1" horiz-adv-x="0" 
d="M0 0v0v0v0z" />
    <glyph glyph-name="glyph1" horiz-adv-x="0" 
d="M0 0v0v0v0z" />
    <glyph glyph-name="nonmarkingreturn" horiz-adv-x="341" 
 />
    <glyph glyph-name="uni0001" horiz-adv-x="0" 
d="M0 0v0v0v0z" />
    <glyph glyph-name="space" unicode=" " horiz-adv-x="512" 
d="M0 0v0v0v0z" />
    <glyph glyph-name="uniE900" unicode="&#xe900;" 
d="M342 -42q0 -9 -6 -15t-15 -6q-8 0 -14 6t-6 15q0 8 6 14.5t14 6.5q9 0 15 -6.5t6 -14.5zM723 -42q0 -9 -6 -15t-14 -6q-9 0 -15 6t-6 15q0 8 6 14.5t15 6.5q8 0 14 -6.5t6 -14.5zM530 634q0 -9 -6 -15t-15 -6t-15 6t-6 15t6 15t15 6t15 -6t6 -15zM928 866
q-46 46 -105.5 70t-124.5 23q-51 -1 -98 -17t-88 -46q-42 32 -92 48t-103 15q-63 -1 -120 -25t-102 -69q-45 -44 -69.5 -101.5t-25.5 -119.5q-1 -70 26.5 -134t78.5 -110q23 -21 35.5 -49t12.5 -59v-44q0 -20 9.5 -37t24.5 -27v-109q0 -29 21 -50t50 -21h127q29 0 49.5 21
t20.5 50v109q16 10 25.5 27t9.5 37v44q0 21 5.5 40.5t16.5 36.5q11 -17 16.5 -36.5t5.5 -40.5v-44q0 -20 9.5 -37t25.5 -27v-109q0 -29 20.5 -50t49.5 -21h127q29 0 50 21t21 50v109q15 10 24.5 27t9.5 37v44q0 31 12.5 59t35.5 49q50 46 77.5 108t27.5 130q0 65 -24.5 124
t-71.5 104v0zM415 75q0 -13 -9 -22t-21 -9h-127q-12 0 -21 9t-9 22v96h187v-96v0zM450 292v-44q0 -15 -10.5 -25.5t-25.5 -10.5h-185q-15 0 -25.5 10.5t-10.5 25.5v44q0 39 -16 75t-44 62q-46 41 -70 97t-23 117q1 56 23.5 106t60 87.5t87.5 59.5t106 23h2h2
q44 0 84.5 -12.5t75.5 -36.5l-3 -3l-2 -2q-45 -44 -69.5 -101.5t-25.5 -119.5q-1 -69 26 -132.5t78 -110.5q-17 -24 -26 -51.5t-9 -57.5v0zM512 431q-44 41 -68 96.5t-23 115.5q2 59 26.5 111t65.5 90q1 -2 2.5 -3.5t3.5 -2.5q40 -40 62 -92t22 -108q0 -59 -24 -113t-67 -94
zM796 75q0 -13 -9 -22t-21 -9h-127q-12 0 -21 9t-9 22v96h187v-96v0zM892 430q-29 -27 -45 -63t-16 -75v-44q0 -15 -10.5 -25.5t-25.5 -10.5h-185q-15 0 -25.5 10.5t-10.5 25.5v44q0 30 -9 57.5t-26 51.5q50 46 77 107.5t27 129.5q0 65 -25 124t-71 104l-1.5 1.5l-1.5 1.5
q34 23 73 36t82 14h2h2q55 0 106 -21t91 -60q41 -40 62.5 -92t21.5 -108q0 -60 -24 -114t-68 -94v0zM828 808q-7 5 -15 4t-13 -8q-5 -6 -4 -14.5t8 -13.5q32 -24 49.5 -59t17.5 -75q0 -41 -18 -76.5t-51 -59.5q-6 -5 -7.5 -13.5t3.5 -14.5q3 -4 7.5 -6.5t8.5 -2.5q3 0 6 1
t6 3q40 30 63 74.5t23 94.5q0 49 -22.5 93t-61.5 73zM222 502q-35 24 -55 60.5t-20 79.5q0 41 20 78t54 61q7 4 9 12.5t-3 15.5t-13 8.5t-15 -3.5q-43 -29 -67.5 -75t-24.5 -97q0 -53 24.5 -98.5t67.5 -74.5q3 -2 6 -3t6 -1q5 0 9 2.5t7 6.5q5 7 3.5 15t-8.5 13z" />
    <glyph glyph-name="uniE901" unicode="&#xe901;" 
d="M694 523q1 7 -37 42q-26 25 -63 25t-63 -26t-26 -64t22 -66t129 -28l99 -5l225 1v-54q-52 -1 -386 2q-63 0 -108 44t-45 107t45 107t108 44t109 -43q53 -50 53 -87zM828 523q-6 92 -70 159q-71 74 -171 73q-102 -1 -171 -73q-71 -74 -71 -178t71 -178t171 -73q35 0 392 2
v54h-120l-272 3q-78 1 -132 57t-54 136t54 136q56 58 132 57t132 -57q48 -48 53 -117zM239 767l-1 -514h52v562h-131v-48h80zM160 702v-449h52l-1 497h-125v-48h74z" />
    <glyph glyph-name="uniE902" unicode="&#xe902;" 
d="M499 898q0 9 -6.5 14t-14.5 5q-8 -1 -13.5 -7t-5.5 -15q1 -8 6.5 -13t13.5 -5h0.5h0.5h0.5h0.5q8 0 13.5 6.5t4.5 14.5zM770 817q-6 6 -14.5 5.5t-13.5 -7.5q-6 -6 -5.5 -14t6.5 -14h0.5h0.5q3 -3 6 -4t7 -1t8 1.5t7 5.5q5 6 4.5 14.5t-6.5 13.5v0zM664 885q-8 3 -15.5 0
t-11.5 -10q-3 -8 0 -16t10 -11h1q2 -1 4 -1.5t4 -0.5q6 0 11 3.5t7 9.5q3 7 0 14.5t-10 11.5zM814 771v0.5v0.5q-5 6 -13.5 6.5t-14.5 -4.5q-7 -5 -7.5 -13.5t4.5 -14.5q3 -4 7 -5.5t9 -1.5q3 0 6 1t6 3q7 5 7.5 13.5t-4.5 14.5zM541 916v0q-8 1 -14.5 -4.5t-7.5 -13.5
q0 -9 5 -15t14 -7h0.5h0.5q8 0 14 5t6 13q1 8 -4.5 14.5t-13.5 7.5v0zM604 905h-0.5h-0.5q-8 2 -15 -2t-9 -13q-2 -8 2.5 -15t12.5 -9h2h3q6 0 11.5 4t7.5 10q2 8 -2 15.5t-12 9.5zM720 855h-0.5h-0.5q-7 5 -15 3t-12 -9q-5 -7 -3 -15t9 -13q2 -1 5 -2t6 -1q5 0 9.5 2.5
t6.5 6.5q5 7 3.5 15t-8.5 13v0zM886 498q-9 1 -15.5 -4t-6.5 -14v0q-1 -8 4 -14.5t14 -7.5h0.5h1.5q7 0 13 5.5t6 12.5l-20 2l20 -2q1 9 -4 15t-13 7v0zM861 381q-7 3 -15 0t-11 -10l-1 -1q-3 -8 0 -15.5t11 -10.5q2 -1 4 -1.5t4 -0.5q6 0 11 3.5t7 8.5q4 8 1 15.5t-11 11.5
zM850 719v0.5v0.5q-4 7 -12 9t-15 -2q-7 -5 -9 -13t2 -15q3 -4 7.5 -7t9.5 -3q3 0 5.5 1t4.5 2q7 4 9.5 12t-2.5 15v0zM905 539v1q-1 8 -7 13.5t-14 4.5q-9 0 -14.5 -6.5t-4.5 -14.5q0 -8 6 -13.5t14 -5.5h0.5h0.5q8 1 13.5 7t5.5 14v0zM878 663l-19 -7l19 7q-3 8 -10.5 11
t-15.5 0t-11 -10.5t0 -15.5v0v0q2 -6 7 -9.5t11 -3.5q2 0 4 0.5t4 1.5q7 3 10.5 10.5t0.5 15.5v0zM896 602v0v1q-2 8 -9 12t-15 3q-8 -2 -12.5 -9t-2.5 -15q2 -7 7.5 -11.5t12.5 -4.5h2h2q8 2 12.5 9t2.5 15zM878 439q-8 2 -15 -2.5t-10 -12.5q-2 -8 2.5 -15t11.5 -9
q2 -1 3 -1h3q6 0 11.5 4t7.5 11v0v0q2 8 -2 15.5t-12 9.5v0zM139 627q-8 2 -15 -2.5t-9 -12.5v0q-2 -8 2.5 -15t12.5 -9q1 -1 2.5 -1h2.5q6 0 11.5 4.5t7.5 10.5q2 9 -2.5 16t-12.5 9v0zM161 683q-7 3 -15 0t-11 -11v0q-3 -8 0 -15.5t11 -10.5q2 -1 4 -1.5t3 -0.5
q6 0 11 3.5t8 8.5v1q3 7 0 15t-11 11v0zM154 433q-2 8 -9 12.5t-15 2.5t-12.5 -9t-2.5 -15v-0.5v-0.5q1 -6 6.5 -10.5t12.5 -4.5h2.5t2.5 1q8 2 12.5 9t2.5 15zM197 328q-4 7 -12 9t-15 -2q-7 -5 -9 -13t2 -15v0v0q3 -5 7.5 -7.5t9.5 -2.5q3 0 5.5 1t5.5 2q7 5 9 13t-3 15z
M145 489q-1 8 -7 13.5t-14 5.5q-9 -1 -14.5 -7t-4.5 -15v0q1 -8 6.5 -13t13.5 -5h0.5h0.5q9 0 14.5 6.5t4.5 14.5v0zM127 568q-8 0 -14.5 -5t-7.5 -13v-0.5v-0.5q0 -8 5 -14.5t14 -6.5h0.5h0.5q8 0 13.5 5t6.5 13t-4.5 14.5t-13.5 7.5zM439 892q-1 8 -8 12.5t-15 3.5l-1 -1
q-8 -2 -12.5 -9t-2.5 -15q2 -7 7.5 -11t12.5 -4h2h2q8 2 12.5 9t2.5 15v0zM326 853q-4 7 -12 9.5t-15 -1.5q0 -1 -0.5 -1h-0.5q-7 -4 -9 -12t3 -15q2 -5 7 -7.5t10 -2.5q2 0 5 1t5 2q7 4 9 12t-2 15zM381 877q-3 8 -10.5 11.5t-15.5 0.5v-0.5v-0.5q-8 -3 -11 -10.5t0 -15.5
q2 -5 7 -8.5t11 -3.5q2 0 4 0.5t4 0.5q7 3 10.5 10.5t0.5 15.5zM275 821q-5 6 -13.5 7t-14.5 -4v-1q-7 -5 -7.5 -13t4.5 -15q3 -3 7 -5t9 -2q3 0 6.5 1.5t6.5 3.5q6 5 6.5 13.5t-4.5 14.5v0zM230 781q-6 6 -14.5 5.5t-13.5 -7.5v0v0q-6 -6 -5 -14.5t7 -13.5q3 -3 6 -4t7 -1
t8 2t7 5q5 6 4.5 14.5t-6.5 13.5zM171 379q-3 7 -10.5 10.5t-15.5 0.5q-7 -3 -10.5 -11t-0.5 -15v-0.5v-0.5q3 -6 8 -9t11 -3q2 0 4 0.5t4 0.5q7 4 10 11.5t0 15.5v0zM192 735q-7 4 -15 2t-13 -9v0q-4 -7 -2 -15t9 -12q2 -2 4.5 -2.5t5.5 -0.5q5 0 9.5 2.5t7.5 6.5q5 7 3 15
t-9 13zM1004 19h-32v0.5v0.5l-331 491q-5 8 -12.5 13.5t-15.5 8.5v56l100 63q4 3 6.5 7.5t2.5 10.5t-3.5 10.5t-8.5 6.5l-109 48q-5 2 -10 1.5t-9 -2.5q-4 -3 -6.5 -7.5t-2.5 -9.5v-117v0v0v-67q-9 -3 -16 -8.5t-12 -13.5l-136 -201l-32 48q-8 12 -21 18.5t-27 6.5
q-15 0 -27.5 -6.5t-20.5 -18.5l-229 -339h-32q-8 0 -14 -5.5t-6 -14.5q0 -8 6 -14t14 -6h43v0v0v0v0h941q8 0 14 6t6 14q0 9 -6 14.5t-14 5.5v0zM613 686l47 -21l-47 -29v50zM101 19l213 316q2 4 6 6t9 2q4 0 8 -2t7 -6l41 -61l-71 -105q-5 -7 -3 -15t8 -13q7 -5 15.5 -3
t12.5 9l231 342q2 4 6 6t9 2q4 0 8 -2t7 -6l316 -470h-823v0zM300 84q0 -9 -6 -14.5t-14 -5.5t-14 5.5t-6 14.5q0 8 6 14t14 6t14 -6t6 -14z" />
    <glyph glyph-name="uniE903" unicode="&#xe903;" 
d="M532 497q0 -8 -6 -14t-14 -6t-14 6t-6 14t6 14t14 6t14 -6t6 -14zM481 244q0 -8 -5.5 -14t-14.5 -6q-8 0 -14 6t-6 14t6 14t14 6q9 0 14.5 -6t5.5 -14zM583 244q0 -8 -6 -14t-14 -6q-9 0 -14.5 6t-5.5 14t5.5 14t14.5 6q8 0 14 -6t6 -14zM1018 508q-43 63 -99 112
t-121.5 83t-137.5 52t-148 18h-1.5h-0.5h-1.5h-0.5v0v0q-75 0 -147 -18.5t-136.5 -52.5t-120 -83t-98.5 -111q-4 -5 -4 -11t4 -11q31 -45 69 -83.5t82 -69.5t93 -54t101 -37q6 -12 9 -25.5t3 -26.5v-39q0 -18 8 -33t22 -24v-94q0 -26 18.5 -45t45.5 -19h110q27 0 45.5 19
t18.5 45v94q14 9 22 24t8 33v39q0 13 3 26.5t9 25.5q52 14 101 37t93 54t82 69.5t69 83.5q4 5 4 11t-4 11v0zM47 497q26 36 57.5 67t66.5 57t73.5 46.5t80.5 34.5q-3 -3 -6 -5.5t-6 -5.5q-39 -39 -61 -89.5t-23 -105.5t18.5 -106t56.5 -91q-38 15 -74 35t-68.5 45
t-61.5 54.5t-53 63.5v0zM591 0q0 -10 -7 -17t-17 -7h-110q-10 0 -17 7t-7 17v82h158v-82zM675 311q-9 -9 -17.5 -19t-14.5 -22q-1 -1 -1.5 -2t-1.5 -2q-9 -18 -14 -37t-5 -39v-39q0 -12 -8.5 -20.5t-20.5 -8.5h-160q-12 0 -20.5 8.5t-8.5 20.5v39q0 34 -14.5 66t-39.5 55
q-39 35 -60 83.5t-20 101.5q1 48 20.5 91t52 75.5t75.5 51.5t92 19v0v0h1.5h1.5q48 0 92 -18t78 -51q35 -35 54 -79.5t19 -93.5q0 -51 -21 -98t-59 -82zM720 299q36 39 55.5 88.5t19.5 103.5q0 57 -22 109t-63 92q-2 3 -4.5 5t-5.5 5q41 -14 79.5 -34.5t74 -46.5t66.5 -57
t57 -67q-24 -34 -53 -63.5t-61.5 -54.5t-68.5 -45t-74 -35zM512 674q-73 0 -125 -52t-52 -125t52 -125t125 -52t125 52t52 125t-52 125t-125 52zM512 360q-57 0 -97 40t-40 97t40 97t97 40t97 -40t40 -97t-40 -97t-97 -40zM514 960q-9 0 -14.5 -6t-5.5 -14v-87q0 -8 5.5 -14
t14.5 -6q8 0 14 6t6 14v87q0 8 -6 14t-14 6zM669 893q-6 5 -14 5t-14 -5l-61 -62q-6 -6 -6 -14t6 -14q3 -3 6.5 -4.5t7.5 -1.5t7.5 1.5t6.5 4.5l61 61q6 6 6 14.5t-6 14.5zM444 831l-61 62q-6 5 -14 5t-14 -5q-6 -6 -6 -14.5t6 -14.5l61 -61q3 -3 6.5 -4.5t7.5 -1.5t7.5 1.5
t6.5 4.5q6 6 6 14t-6 14z" />
    <glyph glyph-name="uniE904" unicode="&#xe904;" 
d="M639 767q-9 0 -14.5 -5.5t-5.5 -14.5v-123q0 -29 -20 -49t-48 -20q-9 0 -14.5 -5.5t-5.5 -14.5q0 -8 5.5 -14t14.5 -6q44 0 76 32t32 77v123q0 9 -6 14.5t-14 5.5v0zM866 872h-103v48q8 0 13.5 6t5.5 14t-6 14t-14 6h-503q-9 0 -14.5 -6t-5.5 -14t5.5 -14t14.5 -6h3v-48
h-104q-34 0 -59 -22.5t-25 -54.5v-61q0 -73 55.5 -126.5t135.5 -58.5q10 -60 55 -101.5t106 -46.5q5 -22 7.5 -44t2.5 -45q0 -21 -2.5 -41.5t-6.5 -40.5h-33q-16 0 -28 -12t-12 -28v-139h-17q-30 0 -51.5 -21.5t-21.5 -51.5v-22q0 -8 5.5 -14t14.5 -6h458q8 0 14 6t6 14v22
q0 30 -21.5 51.5t-52.5 21.5h-17v139q0 16 -12 28t-28 12h-33q-5 20 -8 40.5t-3 41.5q0 23 2.5 45t8.5 44q62 5 107 46.5t55 101.5q80 6 135 59t55 126v61q0 32 -25 54.5t-59 22.5v0zM631 190v-139h-118q-9 0 -14.5 -6t-5.5 -14t5.5 -14t14.5 -6h175q14 0 24 -10t10 -23v-2
h-418v2q0 13 9.5 23t23.5 10h62q8 0 14 6t6 14t-6 14t-14 6h-5v139h237zM467 401h90q-5 -22 -7.5 -44.5t-2.5 -44.5q0 -21 2.5 -41.5t7.5 -40.5h-90q4 20 6.5 40.5t2.5 41.5q0 22 -2 44.5t-7 44.5zM723 579q0 -57 -40.5 -97.5t-97.5 -40.5h-145q-57 0 -97.5 40.5t-40.5 97.5
q0 8 -5.5 14t-14.5 6q-5 0 -9.5 -3t-7.5 -7q-63 5 -107 46.5t-44 98.5v61q0 15 13 26t31 11h104v-103q0 -8 6 -14t14 -6q9 0 14.5 6t5.5 14v191h421v-341zM910 734q0 -56 -42.5 -97t-104.5 -48v243h103q18 0 31 -11t13 -26v-61v0zM301 650q0 -9 -5.5 -14.5t-14.5 -5.5
q-8 0 -14 5.5t-6 14.5q0 8 6 14t14 6q9 0 14.5 -6t5.5 -14zM659 822q0 -8 -6 -14t-14 -6q-9 0 -14.5 6t-5.5 14t5.5 14t14.5 6q8 0 14 -6t6 -14z" />
    <glyph glyph-name="uniE905" unicode="&#xe905;" 
d="M994 803l-68 57q-2 2 -5.5 3t-7.5 1h-308v42q0 22 -15.5 38t-38.5 16h-78q-22 0 -38 -16t-16 -38v-42h-106q-8 0 -14 -5.5t-6 -14.5v-159q0 -8 6 -14t14 -6h106v-60h-308q-4 0 -7.5 -1t-5.5 -4l-68 -57q-9 -7 -13.5 -17t-4.5 -21t4.5 -20.5t13.5 -16.5l68 -58
q2 -2 5.5 -3t7.5 -1h308v-430h-81q-9 0 -14.5 -6t-5.5 -14t5.5 -14t14.5 -6h349q8 0 14 6t6 14t-6 14t-14 6h-82v282q0 8 -5.5 14t-14.5 6q-8 0 -14 -6t-6 -14v-282h-106v430h252q8 0 14 5.5t6 14.5v159q0 8 -6 14t-14 6h-106v60h308q4 0 7.5 1.5t5.5 3.5l68 57q9 7 13.5 17
t4.5 21t-4.5 21t-13.5 17v0zM459 906v0q0 6 4.5 10t9.5 4h78q6 0 10 -4t4 -10v-42h-106v42v0zM691 565v-119h-573l-62 52q-3 2 -3.5 4t-0.5 3q0 2 0.5 4t3.5 4l62 52h573v0zM459 605v60h106v-60h-106v0zM968 758l-62 -53h-465h-0.5h-1.5h-0.5h-1.5h-104v119h573l62 -52
q3 -2 3.5 -4t0.5 -3t-0.5 -3.5t-3.5 -3.5v0zM532 768q0 -9 -5.5 -14.5t-14.5 -5.5q-8 0 -14 5.5t-6 14.5q0 8 6 14t14 6q9 0 14.5 -6t5.5 -14zM532 505q0 -8 -5.5 -14t-14.5 -6q-8 0 -14 6t-6 14q0 9 6 14.5t14 5.5q9 0 14.5 -5.5t5.5 -14.5zM605 347q0 -9 -5.5 -14.5
t-14.5 -5.5q-8 0 -14 5.5t-6 14.5q0 8 6 14t14 6q9 0 14.5 -6t5.5 -14z" />
    <glyph glyph-name="uniE906" unicode="&#xe906;" 
d="M635 909h-244q-28 0 -48 -20t-20 -48v-31q0 -9 6 -14.5t14 -5.5t14 5.5t6 14.5v31q0 12 8.5 20t19.5 8h244q12 0 20 -8t8 -20v-31q0 -9 6 -14.5t14 -5.5q9 0 14.5 5.5t5.5 14.5v31q0 28 -20 48t-48 20zM926 748h-828q-41 0 -69.5 -28.5t-28.5 -69.5v-177q0 -7 4 -12.5
t10 -7.5l13 -3v-419q0 -18 12.5 -31t31.5 -13h882q19 0 31.5 13t12.5 31v416l13 3q6 2 10 7.5t4 11.5v181q0 41 -28.5 69.5t-69.5 28.5zM178 27h-107q-2 0 -3 1t-1 3v108h57q23 0 38.5 -16t15.5 -39v-57v0zM957 31q0 -2 -1 -3t-3 -1h-107v57q0 23 15.5 39t38.5 16h57v-108z
M957 179h-57q-39 0 -66.5 -28t-27.5 -67v-57h-588v57q0 39 -27.5 67t-66.5 28h-57v259l353 -104v-64q0 -9 5.5 -14.5t14.5 -5.5h144q9 0 14.5 5.5t5.5 14.5v63l353 102v-256zM460 290v59v0v0v38h104v-97h-104v0zM984 485l-380 -110v32q0 8 -5.5 14t-14.5 6h-144
q-9 0 -14.5 -6t-5.5 -14v-31l-380 111v163q0 24 17 41t41 17h80v-69q0 -9 6 -14.5t14 -5.5q9 0 14.5 5.5t5.5 14.5v69h580v-69q0 -9 6 -14.5t14 -5.5q9 0 14.5 5.5t5.5 14.5v69h88q24 0 41 -17t17 -41v-165v0zM838 561q0 -8 -5.5 -14t-14.5 -6q-8 0 -14 6t-6 14q0 9 6 14.5
t14 5.5q9 0 14.5 -5.5t5.5 -14.5zM218 561q0 -8 -5.5 -14t-14.5 -6q-8 0 -14 6t-6 14q0 9 6 14.5t14 5.5q9 0 14.5 -5.5t5.5 -14.5z" />
    <glyph glyph-name="uniE907" unicode="&#xe907;" 
d="M977 -24h-44v637q0 22 -16 38t-38 16h-98q-22 0 -38 -16t-16 -38v-637h-111v348q0 23 -16 38.5t-38 15.5h-98q-22 0 -38 -15.5t-16 -38.5v-348h-111v180q0 23 -16 38.5t-38 15.5h-98q-22 0 -38 -15.5t-16 -38.5v-180h-46q-8 0 -14 -6t-6 -14t6 -14t14 -6h930q8 0 14 6
t6 14t-6 14t-14 6v0zM259 -24h-126v180q0 6 4.5 10t9.5 4h98q6 0 10 -4t4 -10v-180zM576 -24h-126v348q0 6 4 10t10 4h98q6 0 10 -4t4 -10v-348zM893 -24h-126v637q0 6 4 10t10 4h98q6 0 10 -4t4 -10v-637zM933 939q0 4 -1.5 8t-4.5 7t-7 4.5t-8 1.5h-0.5h-0.5h-121
q-8 0 -14 -6t-6 -14t6 -14t14 -6h75l-198 -198l-75 75q-2 3 -6 4.5t-8 1.5t-7.5 -1.5t-6.5 -4.5l-359 -360q-6 -6 -6 -14t6 -14q2 -3 6 -4.5t8 -1.5t7.5 1.5t6.5 4.5l345 345l75 -74q6 -6 14 -6t14 6l212 212v-68q0 -8 6 -14t14 -6t14 6t6 14v114v0.5v0.5zM171 353
q0 -8 -5.5 -14t-14.5 -6q-8 0 -14 6t-6 14q0 9 6 14.5t14 5.5q9 0 14.5 -5.5t5.5 -14.5z" />
    <glyph glyph-name="uniE908" unicode="&#xe908;" 
d="M40 -41q0 -8 -6 -14t-14 -6t-14 6t-6 14t6 14t14 6t14 -6t6 -14zM554 469q0 -8 -6 -14t-14 -6t-14 6t-6 14q0 9 6 14.5t14 5.5t14 -5.5t6 -14.5zM797 724q-12 12 -27.5 18.5t-32.5 6.5q-18 0 -33.5 -6.5t-27.5 -18.5q-25 -25 -25 -60.5t25 -60.5q13 -12 28.5 -18.5
t32.5 -6.5q16 0 31.5 6.5t28.5 18.5q25 25 25 60.5t-25 60.5v0zM769 631q-14 -13 -32.5 -13t-32.5 13q-13 14 -13 32.5t13 32.5q7 6 15 9.5t18 3.5q9 0 17 -3.5t15 -9.5q13 -14 13 -32.5t-13 -32.5zM251 137q-8 4 -15.5 1.5t-11.5 -10.5l-24 -48q-8 -16 -22.5 -25.5
t-32.5 -10.5l-27 -2q-4 -1 -6.5 0.5t-3.5 2.5t-2 3.5t-1 5.5l2 28q1 18 11 32.5t25 22.5l48 24q8 3 10.5 11t-1.5 16q-3 7 -11 9.5t-16 -0.5l-48 -24q-25 -13 -40.5 -36.5t-17.5 -51.5l-2 -28q-1 -11 3 -21.5t12 -18.5q7 -8 16.5 -11.5t20.5 -3.5h1.5h1.5l28 2q28 1 51.5 17
t36.5 41l24 48q4 8 1 15.5t-10 11.5v0zM1010 944q-7 7 -16.5 10.5t-18.5 2.5l-19 -1q-63 -4 -123 -21t-115.5 -45.5t-104 -67.5t-88.5 -88l-44 -54l-115 3v0v0q-69 0 -131.5 -26t-110.5 -74l-118 -118q-4 -4 -5.5 -10t0.5 -12q3 -5 7.5 -8.5t10.5 -3.5l250 -13l-10 -13
q-4 -5 -4.5 -11t2.5 -11q2 -5 5.5 -10.5t6.5 -10.5l-59 -71q-4 -4 -5 -10t2 -11q10 -21 22.5 -39t28.5 -34t34.5 -29.5t39.5 -23.5q2 -1 4.5 -1.5t4.5 -0.5q3 0 6.5 1.5t6.5 3.5q9 8 20 17t21 17q8 7 15.5 13.5t14.5 12.5q5 -3 9.5 -5.5t8.5 -5.5q2 -1 4.5 -1.5t5.5 -0.5
t6 1t6 3l14 11l13 -251q0 -6 3.5 -11t8.5 -7q2 0 4 -0.5t4 -0.5q4 0 7.5 1.5t6.5 4.5l118 118q48 48 74 110.5t26 131.5v110l46 36q53 40 94.5 90.5t71.5 107.5t47 120t20 129l1 10q0 10 -3.5 19.5t-10.5 16.5v0zM66 468l86 86q43 43 98 66t115 23l85 -3l-150 -184l-234 12
v0zM370 212q-8 -6 -16 -13t-16 -13q-14 8 -27 18t-25 21q-11 11 -20.5 24t-16.5 27l43 51q10 -13 21 -25.5t22 -24.5v0v0v0v0v0v0q13 -13 27 -24.5t29 -22.5q-6 -5 -11 -9t-10 -9zM704 305q0 -61 -23 -116t-66 -98l-86 -86l-12 234l187 144v-78v0zM983 900q-3 -61 -19 -120
t-43.5 -112.5t-66.5 -100.5t-88 -85l-315 -244q-20 12 -38 25t-35 29l106 106q6 6 6 14t-6 14t-14 6t-14 -6l-106 -106q-15 16 -28 34t-24 37l259 317q37 46 82 82.5t96.5 63t108 42.5t114.5 20l19 1q2 0 3 -0.5t2 -1.5t1.5 -2t0.5 -3l-1 -10v0z" />
    <glyph glyph-name="uniE909" unicode="&#xe909;" 
d="M716 482v0.5v0.5q-17 11 -33.5 19.5t-33.5 13.5q-17 6 -41 10t-56 6q-30 3 -51 5.5t-34 4.5q-8 2 -16 5.5t-15 9.5q-3 3 -6.5 8.5t-3.5 16.5v23q0 31 4.5 43t7.5 14q3 4 13.5 8t36.5 4h37q27 0 38 -4t13 -6q4 -3 7.5 -13t3.5 -34v-8q0 -21 12 -33t33 -12h99q21 0 33 12
t12 33v22q0 48 -13.5 87t-39.5 67q-25 26 -57 40.5t-71 16.5v73q0 21 -12 33t-33 12h-70q-21 0 -33 -12t-12 -33v-72v0q-8 0 -14 -6t-6 -14t6 -14t14 -6h20q9 0 14.5 6t5.5 14v92q0 2 0.5 3t0.5 2h1h3h70h3h1q0 -1 0.5 -2t0.5 -3v-92q0 -8 5.5 -14t14.5 -6h2q37 0 66 -11
t50 -34q22 -23 32.5 -55t10.5 -72v-22v-3v-1q-1 0 -2 -0.5t-3 -0.5h-99q-2 0 -3 0.5l-1 0.5l-0.5 1t-0.5 3v8q0 27 -5.5 45.5t-17.5 29.5q-11 11 -30.5 16.5t-48.5 5.5h-37q-29 0 -48.5 -6t-31.5 -18q-11 -12 -16.5 -33t-5.5 -52v-23q0 -17 6.5 -31.5t18.5 -24.5
q10 -9 22.5 -14.5t25.5 -8.5h0.5h0.5q13 -3 35 -5.5t54 -5.5q29 -2 51.5 -5.5t36.5 -8.5q14 -4 28 -11.5t28 -16.5q27 -19 40 -55t13 -88v-44q0 -42 -11 -73.5t-33 -54.5q-23 -22 -54 -33t-71 -11h-2q-9 0 -14.5 -6t-5.5 -14v-90q0 -2 -0.5 -3t-0.5 -2h-1h-3h-70h-3h-1
q0 1 -0.5 2t-0.5 3v90q0 8 -5.5 14t-14.5 6h-8q-41 0 -71.5 11t-52.5 34q-23 22 -33.5 53.5t-10.5 73.5v22v2v2h2h2h100h2h2v-2v-2v-8q0 -27 6 -46t18 -30t31.5 -16.5t46.5 -5.5h47q27 0 46.5 6t31.5 18q12 11 18 31t6 48v18q0 19 -6 34t-18 26q-11 10 -23.5 17t-26.5 10v0
v0q-12 3 -33 5.5t-52 5.5q-30 3 -52 6.5t-36 7.5t-28 11t-29 16v1v0q-28 18 -42 55t-14 93v43q0 31 6 57t18 46q4 7 2 15t-9 12t-15 2t-13 -9q-15 -24 -22 -55t-7 -68v-43q0 -67 18.5 -112.5t55.5 -69.5q17 -11 34 -19t34 -13q16 -5 39.5 -8.5t55.5 -7.5q30 -2 50 -4.5
t30 -5.5q9 -2 17 -6.5t15 -10.5q5 -5 8 -13t3 -18v-18q0 -25 -4.5 -36t-7.5 -15q-4 -4 -15.5 -8t-34.5 -4h-47q-25 0 -36 4t-15 7q-3 3 -7 13t-4 34v8q0 20 -12 32t-32 12h-100q-20 0 -32 -12t-12 -32v-22q0 -49 14 -88t41 -67q26 -27 61.5 -41t79.5 -16v-70q0 -21 12 -33
t33 -12h70q21 0 33 12t12 33v70q41 3 75 16.5t60 39.5q28 28 42 67t14 89v44q0 62 -17.5 106t-52.5 69v0zM370 804q0 -8 -6 -14t-14 -6t-14 6t-6 14q0 9 6 14.5t14 5.5t14 -5.5t6 -14.5z" />
    <glyph glyph-name="uniE90A" unicode="&#xe90a;" 
d="M875 433l-62 114v77q0 70 -26.5 131t-72 106.5t-106.5 72t-131 26.5q-69 0 -130 -26.5t-106.5 -72t-72 -106.5t-26.5 -131v-57q0 -54 15.5 -104.5t46.5 -94.5v-143q0 -8 6 -14t14 -6t14 6t6 14v150q0 3 -1 6t-3 6q-28 39 -43 85t-15 95v57q0 62 23 115.5t63.5 93.5
t94 63.5t114.5 23.5t115 -23.5t94 -63.5t63.5 -93.5t23.5 -115.5v-82q0 -3 0.5 -5.5t1.5 -4.5l65 -118q3 -7 2 -12t-3 -8q-1 -2 -5 -5.5t-11 -3.5h-1v0h-29v0v0q-4 0 -8 -1.5t-6 -4.5q-3 -3 -4.5 -6.5t-1.5 -7.5v-89q0 -36 -25.5 -61.5t-61.5 -25.5h-60q-20 0 -34.5 -14.5
t-14.5 -34.5v-153l-263 118q-7 3 -15 0t-11 -10q-4 -8 -1 -15.5t11 -11.5l291 -130q2 -1 4 -1.5t4 -0.5q3 0 5.5 1t5.5 2q4 3 6.5 7.5t2.5 9.5v184q0 4 2.5 6.5t6.5 2.5h60q53 0 90 37t37 90v69h9v0h1q15 0 29 7.5t22 21.5t8.5 29.5t-7.5 29.5v0zM511 608h-44
q-14 0 -23.5 9.5t-9.5 23.5v25q0 14 9.5 24t23.5 10h48q12 0 20.5 -8.5t8.5 -20.5q0 -8 6 -14t14 -6t14 6t6 14q0 28 -20 48.5t-49 20.5h-6v32q0 8 -6 14t-14 6t-14 -6t-6 -14v-32h-2q-30 0 -51.5 -21.5t-21.5 -52.5v-25q0 -30 21.5 -51.5t51.5 -21.5h44q13 0 23 -10t10 -24
v-25q0 -14 -10 -23.5t-23 -9.5h-48q-12 0 -20.5 8.5t-8.5 19.5q0 9 -6 14.5t-14 5.5t-14 -5.5t-6 -14.5q0 -28 20 -48t49 -20h6v-33q0 -8 6 -14t14 -6t14 6t6 14v33h2q30 0 51.5 21.5t21.5 51.5v25q0 31 -21.5 52.5t-51.5 21.5v0zM245 124q0 -8 -6 -14t-14 -6q-9 0 -14.5 6
t-5.5 14q0 9 5.5 14.5t14.5 5.5q8 0 14 -5.5t6 -14.5z" />
    <glyph glyph-name="uniE90B" unicode="&#xe90b;" 
d="M875 433l-62 114v77q0 70 -26.5 131t-72 106.5t-106.5 72t-131 26.5q-69 0 -130 -26.5t-106.5 -72t-72 -106.5t-26.5 -131v-57q0 -54 15.5 -104.5t46.5 -94.5v-165q0 -8 6 -14t14 -6t14 6t6 14v172q0 3 -1 6t-3 6q-28 39 -43 85t-15 95v57q0 62 23 115.5t63.5 93.5
t94 63.5t114.5 23.5t115 -23.5t94 -63.5t63.5 -93.5t23.5 -115.5v-82q0 -3 0.5 -5.5t1.5 -4.5l65 -118q3 -7 2 -12t-3 -8q-1 -2 -5 -5.5t-11 -3.5h-1v0h-29v0v0q-4 0 -8 -1.5t-6 -4.5q-3 -3 -4.5 -6.5t-1.5 -7.5v-89q0 -36 -25.5 -61.5t-61.5 -25.5h-60q-20 0 -34.5 -14.5
t-14.5 -34.5v-153l-272 122q-8 4 -15.5 1t-11.5 -11q-3 -7 0 -15t10 -11l301 -135q2 -1 4 -1.5t4 -0.5q3 0 5.5 1t5.5 2q4 3 6.5 7.5t2.5 9.5v184q0 4 2.5 6.5t6.5 2.5h60q53 0 90 37t37 90v69h9v0h1q15 0 29 7.5t22 21.5t8.5 29.5t-7.5 29.5zM673 694v0l-14 1q0 2 -1 3.5
t-1 3.5l8 10q12 15 11.5 33.5t-12.5 30.5l-35 35q-12 12 -30.5 12.5t-33.5 -11.5l-10 -9q-2 1 -3.5 1.5t-3.5 1.5l-1 13q-3 19 -16 32t-30 13h-49q-18 0 -31 -13t-15 -32l-2 -13q-1 -1 -3 -1.5t-3 -1.5l-11 9q-15 12 -33 11.5t-30 -12.5l-35 -35q-13 -12 -13 -30.5t12 -33.5
l8 -10q-1 -2 -1.5 -3.5t-1.5 -3.5l-13 -1q-19 -3 -31.5 -16t-12.5 -30v-50q0 -17 12.5 -30t31.5 -15l13 -2q1 -1 1.5 -3t1.5 -3l-8 -11q-12 -15 -12 -33t13 -31l35 -35q12 -12 30 -12t33 12l11 8q1 -1 3 -1.5t3 -1.5l2 -13q2 -19 15 -32t31 -13h49q17 0 30 13t16 32l1 13
q2 1 3.5 1.5t3.5 1.5l10 -8q15 -12 33.5 -12t30.5 12l35 35q12 13 12.5 31t-11.5 33l-8 11q0 1 1 3t1 3l14 2q19 2 31.5 15t12.5 30v50q0 17 -12.5 30t-31.5 16v0zM677 598q0 -1 -2.5 -3t-6.5 -3l-26 -3q-6 0 -10.5 -4t-5.5 -9q-2 -7 -5 -13l-6 -12q-2 -5 -1.5 -11t3.5 -10
l17 -21q2 -3 2.5 -6t-0.5 -4l-35 -35q-1 -1 -4.5 -1t-6.5 3l-20 16q-5 4 -11 4.5t-11 -2.5q-6 -3 -12 -5.5t-12 -4.5t-9.5 -6.5t-4.5 -10.5l-3 -26q0 -4 -2 -6.5t-4 -2.5h-49q-2 0 -4 2.5t-2 6.5l-3 26q-1 6 -5 10.5t-9 6.5q-6 2 -12.5 4.5t-12.5 5.5q-2 1 -4 1.5t-5 0.5
t-6 -1t-6 -3l-21 -16q-3 -3 -6 -3t-4 1l-35 35q-1 1 -0.5 4t2.5 6l16 21q4 4 4.5 10t-2.5 11q-3 6 -5.5 12t-4.5 13q-2 5 -6.5 9t-10.5 4l-25 3q-4 1 -6.5 3t-2.5 3v50q0 1 2.5 3t6.5 3l25 3q6 1 10.5 4.5t6.5 9.5t4.5 12t5.5 12q3 5 2.5 11t-4.5 11l-16 20q-2 3 -2.5 6
t0.5 4l35 36q1 1 4 0.5t7 -3.5l20 -16q4 -3 10 -3.5t11 1.5q6 3 12.5 5.5t12.5 4.5q5 2 9 6.5t5 10.5l3 26q0 4 2 6.5t4 2.5h49q2 0 4 -2.5t2 -6.5l3 -26q1 -6 4.5 -10.5t9.5 -6.5t12 -4.5t12 -5.5q5 -2 11 -1.5t11 3.5l20 16q3 3 6.5 3.5t4.5 -0.5l35 -36q1 -1 0.5 -4
t-2.5 -6l-17 -20q-3 -5 -3.5 -11t1.5 -11l6 -12t5 -12q1 -6 5.5 -9.5t10.5 -4.5l26 -3q4 -1 6.5 -3t2.5 -3v-50v0zM476 724q-41 0 -71 -29.5t-30 -71.5t30 -71.5t71 -29.5q42 0 72 29.5t30 71.5t-30 71.5t-72 29.5zM476 562q-25 0 -43 18t-18 43t18 43t43 18q26 0 44 -18
t18 -43t-18 -43t-44 -18zM246 125q0 -8 -6 -14t-14 -6t-14 6t-6 14t6 14t14 6t14 -6t6 -14z" />
    <glyph glyph-name="uniE90C" unicode="&#xe90c;" 
d="M947 581v0l-45 5q-4 10 -8 20.5t-9 19.5l28 36q21 26 21 57t-21 52l-78 78q-21 21 -52 21t-57 -21l-36 -28q-10 5 -20 9l-20 8l-5 45q-4 33 -26.5 55t-51.5 22h-110q-29 0 -51.5 -22t-26.5 -55l-5 -45q-10 -4 -20.5 -8t-19.5 -9l-36 28q-26 21 -57 21t-52 -21l-78 -78
q-21 -21 -21 -52t21 -57l28 -36q-5 -9 -9 -19.5t-8 -20.5l-45 -5q-33 -4 -55 -26.5t-22 -51.5v-110q0 -29 22 -51.5t55 -26.5l45 -5l8 -20t9 -20l-28 -36q-21 -26 -21 -57t21 -52l78 -78q21 -21 52 -21t57 21l36 28q9 -5 19.5 -9t20.5 -8l5 -45q4 -33 26.5 -55t51.5 -22h110
q29 0 51.5 22t26.5 55l5 45q10 4 20.5 8t19.5 9l36 -28q26 -21 57 -21t52 21l78 78q21 21 21 52t-21 57l-28 36q5 10 9 20l8 20l45 5q33 4 55 26.5t22 51.5v110q0 29 -22 51.5t-55 26.5v0zM984 393q0 -14 -12 -25t-30 -13l-57 -7q-6 0 -10.5 -4t-6.5 -9q-5 -15 -11 -30
t-13 -29q-3 -5 -2.5 -11t4.5 -10l36 -46q11 -14 12 -30t-9 -26l-78 -78q-10 -10 -26 -9t-30 12l-46 36q-4 4 -10 4.5t-11 -2.5q-14 -7 -29 -13t-30 -11q-5 -2 -9 -6.5t-4 -10.5l-7 -57q-2 -18 -13 -30t-25 -12h-110q-14 0 -25 12t-13 30l-7 57q0 6 -4 10.5t-9 6.5
q-15 5 -30 11t-29 13q-2 1 -4 1.5t-5 0.5t-6.5 -1t-5.5 -3l-46 -36q-14 -11 -30 -12t-26 9l-78 78q-10 10 -9 26t12 30l36 46q4 4 4.5 10t-2.5 11q-7 14 -13 29t-11 30q-2 5 -6.5 9t-10.5 4l-57 7q-18 2 -30 13t-12 25v110q0 14 12 25t30 13l57 7q6 0 10.5 4t6.5 9
q5 15 11 30t13 29q3 5 2.5 11t-4.5 10l-36 46q-11 14 -12 30t9 26l78 78q10 10 26 9t30 -12l46 -36q4 -4 10 -4.5t11 2.5q14 7 29 13t30 11q5 2 9 6.5t4 10.5l7 57q2 18 13 30t25 12h110q14 0 25 -12t13 -30l7 -57q0 -6 4 -10.5t9 -6.5q15 -5 30 -11t29 -13q5 -3 11 -2.5
t10 4.5l46 36q14 11 30 12t26 -9l78 -78q10 -10 9 -26t-12 -30l-36 -46q-4 -4 -4.5 -10t2.5 -11q7 -14 13 -29t11 -30q2 -5 6.5 -9t10.5 -4l57 -7q18 -2 30 -13t12 -25v-110v0zM512 771q-67 0 -126 -25t-103 -69t-69 -103t-25 -126q0 -53 16.5 -103t48.5 -92
q31 -42 74 -71.5t93 -43.5q8 -3 15 1t9 12q3 8 -1 15.5t-12 9.5q-45 13 -82.5 39.5t-64.5 62.5t-41.5 79.5t-14.5 90.5q0 59 22 110.5t60.5 90t90 60.5t110.5 22t110.5 -22t90 -60.5t60.5 -90t22 -110.5q0 -48 -15.5 -92.5t-43.5 -81t-67 -62.5t-86 -38q-8 -2 -12 -9.5
t-2 -15.5q2 -7 7.5 -11t11.5 -4q2 0 3 0.5t2 0.5q54 14 98.5 44t76.5 71t49.5 92t17.5 106q0 67 -25 126t-69 103t-103 69t-126 25v0zM669 354l-137 104v89q0 9 -6 14.5t-14 5.5t-14 -5.5t-6 -14.5v-99q0 -5 2 -9t6 -7l144 -110q3 -2 6 -3t7 -1t8.5 2t6.5 6q5 7 4 15t-7 13z
M532 632q0 -8 -6 -14t-14 -6t-14 6t-6 14t6 14t14 6t14 -6t6 -14zM525 145q0 -9 -6 -14.5t-14 -5.5q-9 0 -14.5 5.5t-5.5 14.5q0 8 5.5 14t14.5 6q8 0 14 -6t6 -14z" />
    <glyph glyph-name="uniE90D" unicode="&#xe90d;" 
d="M533 -43q0 -9 -6 -15t-15 -6t-15 6t-6 15q0 8 6 14t15 6t15 -6t6 -14zM738 867q-46 46 -105.5 70t-125.5 23q-62 -1 -119.5 -25.5t-102.5 -68.5q-45 -45 -69.5 -102.5t-26.5 -119.5q-1 -70 27 -134.5t79 -110.5q23 -21 35.5 -49.5t12.5 -59.5v-44q0 -20 9.5 -37t25.5 -27
v-110q0 -29 20.5 -50t50.5 -21h126q30 0 50.5 21t20.5 50v110q16 10 25.5 27t9.5 37v44q0 31 12.5 59.5t35.5 49.5q50 46 78 108.5t28 129.5q0 66 -25 125t-72 105v0zM606 72q0 -12 -9 -21.5t-22 -9.5h-126q-13 0 -22 9.5t-9 21.5v97h188v-97v0zM702 429q-29 -27 -45 -63
t-16 -76v-44q0 -15 -10.5 -26t-25.5 -11h-73v78q0 8 -6 14t-14 6t-14 -6t-6 -14v-78h-73q-15 0 -25.5 11t-10.5 26v44q0 40 -16 76t-45 62q-45 41 -69.5 97.5t-23.5 117.5q2 56 24 106.5t60 88t88 59.5t107 23h2h2q56 0 107 -21t91 -60q41 -41 63 -92.5t22 -109.5
q0 -59 -24.5 -113.5t-68.5 -94.5v0zM538 616h-52q-17 0 -29.5 12.5t-12.5 30.5v30q0 17 12.5 29.5t29.5 12.5h57q15 0 26 -10.5t11 -26.5q0 -8 6 -14t14 -6q9 0 14.5 6t5.5 14q0 32 -22.5 54.5t-54.5 22.5h-11v42q0 9 -6 14.5t-14 5.5t-14 -5.5t-6 -14.5v-42h-6
q-34 0 -58 -24t-24 -58v-30q0 -34 24 -58.5t58 -24.5h52q17 0 29.5 -12.5t12.5 -29.5v-30q0 -18 -12.5 -30.5t-29.5 -12.5h-57q-15 0 -26 11t-11 26q0 9 -6 14.5t-14 5.5q-9 0 -14.5 -5.5t-5.5 -14.5q0 -32 22.5 -54.5t54.5 -22.5h11v-42q0 -8 6 -14t14 -6t14 6t6 14v42h6
q34 0 58 24.5t24 58.5v30q0 34 -24 58t-58 24z" />
    <glyph glyph-name="uniE90E" unicode="&#xe90e;" 
d="M510 288q-8 0 -14 -5.5t-6 -14.5v-247q0 -8 6 -14t14 -6q9 0 14.5 6t5.5 14v247q0 9 -5.5 14.5t-14.5 5.5zM576 685q14 13 22 31.5t8 39.5q0 42 -29.5 71.5t-71.5 29.5t-71.5 -29.5t-29.5 -71.5q0 -22 9 -41t24 -33q-53 -21 -86.5 -68.5t-33.5 -106.5v-160
q0 -37 25 -63.5t62 -29.5v-233q0 -8 5.5 -14t14.5 -6q8 0 14 6t6 14v481q0 8 -6 14t-14 6q-9 0 -14.5 -6t-5.5 -14v-208q-20 3 -33.5 18t-13.5 35v160q0 62 45 105.5t108 43.5q64 0 109 -43.5t45 -105.5v-160q0 -20 -12.5 -34.5t-31.5 -18.5v208q0 8 -6 14t-14 6
q-9 0 -14.5 -6t-5.5 -14v-481q0 -8 5.5 -14t14.5 -6q8 0 14 6t6 14v233q35 4 59.5 30.5t24.5 62.5v160q0 62 -36 110t-92 68v0zM505 696q-25 0 -43 17.5t-18 42.5t18 43t43 18t43 -18t18 -43t-18 -42.5t-43 -17.5zM882 874l-96 21q-8 2 -15 -2.5t-9 -12.5q-2 -9 2.5 -16
t12.5 -8l49 -11l-76 -48q-7 -5 -9 -13t3 -15q2 -4 7 -6.5t10 -2.5q2 0 5 0.5t5 2.5l77 48l-11 -48q-2 -8 2.5 -15t12.5 -9h2h2q7 0 12.5 4.5t7.5 11.5l21 95q2 8 -2.5 15t-12.5 9v0zM716 739q0 -8 -5.5 -14t-14.5 -6q-8 0 -14 6t-6 14q0 9 6 14.5t14 5.5q9 0 14.5 -5.5
t5.5 -14.5zM920 109l-21 95q-1 8 -8 12.5t-15 2.5q-9 -2 -13 -9t-3 -15l11 -48l-76 48q-7 5 -15.5 3t-12.5 -9t-2.5 -15t8.5 -12l76 -49l-48 -10q-8 -2 -12.5 -9t-3.5 -15q2 -7 7.5 -11.5t12.5 -4.5h2t2 1l96 21q8 2 12.5 9t2.5 15v0zM740 219q0 -8 -6 -14t-14 -6t-14 6
t-6 14t6 14t14 6t14 -6t6 -14zM1018 489l-70 69q-5 6 -13.5 6t-14.5 -6t-6 -14.5t6 -14.5l35 -35h-89q-9 0 -14.5 -5.5t-5.5 -14.5q0 -8 5.5 -14t14.5 -6v0v0h90l-35 -35q-6 -6 -6 -14t6 -14q3 -3 7 -4.5t7 -1.5q4 0 8 1.5t7 4.5l68 69q6 6 6 14.5t-6 14.5v0zM810 474
q0 -8 -6 -14t-14 -6q-9 0 -14.5 6t-5.5 14q0 9 5.5 14.5t14.5 5.5q8 0 14 -5.5t6 -14.5zM274 797l-76 48l49 11q8 1 12.5 8t2.5 16q-2 8 -9 12.5t-15 2.5l-96 -21q-8 -2 -12.5 -9t-2.5 -15l21 -95q2 -7 7.5 -11.5t12.5 -4.5h2h2q8 2 12.5 9t2.5 15l-11 48l77 -48
q2 -2 5 -2.5t5 -0.5q5 0 10 2.5t7 6.5q5 7 3 15t-9 13v0zM348 739q0 -8 -6 -14t-14 -6q-9 0 -14.5 6t-5.5 14q0 9 5.5 14.5t14.5 5.5q8 0 14 -5.5t6 -14.5zM257 189q-4 7 -12.5 9t-15.5 -3l-76 -48l11 48q1 8 -3 15t-13 9q-8 2 -15 -2.5t-8 -12.5l-21 -95q-2 -8 2.5 -15
t12.5 -9l96 -21q1 -1 2 -1h2q7 0 12.5 4.5t7.5 11.5q1 8 -3.5 15t-12.5 9l-48 10l76 49q7 4 8.5 12t-2.5 15v0zM324 219q0 -8 -6 -14t-14 -6t-14 6t-6 14t6 14t14 6t14 -6t6 -14zM158 494h-89l35 35q6 6 6 14.5t-6 14.5t-14.5 6t-13.5 -6l-70 -69q-6 -6 -6 -14.5t6 -14.5
l68 -69q3 -3 7 -4.5t8 -1.5q3 0 7 1.5t7 4.5q6 6 6 14t-6 14l-35 35h90v0v0q9 0 14.5 6t5.5 14q0 9 -5.5 14.5t-14.5 5.5v0zM254 474q0 -8 -5.5 -14t-14.5 -6q-8 0 -14 6t-6 14q0 9 6 14.5t14 5.5q9 0 14.5 -5.5t5.5 -14.5z" />
    <glyph glyph-name="uniE90F" unicode="&#xe90f;" 
d="M903 284q0 -8 -5.5 -14t-14.5 -6q-8 0 -14 6t-6 14t6 14t14 6q9 0 14.5 -6t5.5 -14zM142 284q0 -8 -6 -14t-14 -6t-14 6t-6 14t6 14t14 6t14 -6t6 -14zM989 -24h-172l-1 492q0 8 -6 14t-14 6v0v0q-9 -1 -14.5 -6.5t-5.5 -14.5l1 -491h-58l-1 219q0 8 -6 14t-14 6v0v0
q-8 0 -14 -6t-6 -14l1 -219h-49v265q43 3 72 34t29 74v194q0 23 -4.5 45.5t-14.5 43.5q30 -2 57 -14t48 -32q23 -23 35.5 -52t12.5 -60v-114q0 -9 6 -14.5t14 -5.5v0v0q9 0 14.5 6t5.5 14v114q0 40 -15.5 76t-44.5 64q-17 16 -36.5 28t-41.5 19q16 15 24.5 34.5t8.5 42.5
q0 44 -31 75t-74 31h-1v0q-12 0 -24.5 -3.5t-24.5 -8.5q-7 -4 -9.5 -12t1.5 -15q4 -8 12 -10.5t15 1.5t14.5 6t15.5 2q28 0 47 -19.5t19 -46.5t-19 -46.5t-46 -19.5h-1.5h-1.5h-1.5h-1.5q-22 29 -51.5 50.5t-64.5 31.5q19 17 29.5 39.5t10.5 49.5q0 48 -34.5 82.5
t-82.5 34.5q-49 0 -83 -34.5t-34 -82.5q0 -28 11.5 -51.5t31.5 -40.5q-32 -11 -59 -31.5t-47 -47.5h-5h-5h-2h-2h-1v0q-28 0 -47 19.5t-19 46.5t19 46.5t47 19.5q8 0 16 -2t15 -6t15 -2t12 10q4 7 1.5 15t-9.5 12q-11 6 -24 9.5t-26 3.5q-44 0 -75 -31t-31 -75
q0 -24 9.5 -44.5t26.5 -35.5q-57 -22 -93 -72t-36 -113v-113q0 -8 6 -14t14 -6t14 6t6 14v113q0 62 43.5 107.5t106.5 50.5q-9 -21 -14 -43t-5 -45v-194q0 -43 30.5 -74.5t74.5 -34.5v-264h-55v219q0 8 -5.5 14t-14.5 6q-8 0 -14 -6t-6 -14v-219h-49v491q0 9 -6 14.5
t-14 5.5t-14 -5.5t-6 -14.5v-491h-159q-8 0 -14 -6t-6 -14t6 -14t14 -6h954q8 0 14 6t6 14t-6 14t-14 6v0zM419 843q0 32 22.5 54.5t54.5 22.5t54.5 -22.5t22.5 -54.5t-22.5 -55t-54.5 -23t-54.5 23t-22.5 55v0zM610 556q-8 0 -14 -6t-6 -14v-560h-71v278q0 9 -6 14.5
t-14 5.5t-14 -5.5t-6 -14.5v-278h-61v560q0 8 -6 14t-14 6q-9 0 -14.5 -6t-5.5 -14v-255q-27 2 -46 21.5t-19 46.5v194q0 26 7.5 50.5t21.5 46.5q27 40 69 62.5t91 22.5t91.5 -22.5t68.5 -62.5q15 -22 22 -46.5t7 -50.5v-194q0 -26 -17.5 -45t-43.5 -23v255q0 8 -6 14t-14 6
v0z" />
    <glyph glyph-name="uniE910" unicode="&#xe910;" 
d="M1020 710q-2 4 -6.5 6.5t-9.5 2.5h-331q-6 0 -11 -3.5t-7 -8.5l-71 -164h-144l-71 164q-2 5 -7 8.5t-11 3.5h-331q-5 0 -9.5 -2.5t-6.5 -6.5q-3 -4 -3.5 -8.5t0.5 -9.5l62 -171v-552q0 -8 5.5 -14t14.5 -6h858q8 0 14 6t6 14v550l62 173q1 5 0.5 9.5t-3.5 8.5v0zM48 679
h289l59 -136h-299l-49 136v0zM921 -11v0h-303v343q0 8 -6 14t-14 6q-9 0 -14.5 -6t-5.5 -14v-343h-475v514h818v-514v0zM927 543h-299l59 136h289l-49 -136v0zM514 947q-8 0 -14 -6t-6 -14v-100q0 -8 6 -14t14 -6t14 6t6 14v100q0 8 -6 14t-14 6zM691 870q-5 6 -13.5 6
t-14.5 -6l-71 -71q-6 -6 -6 -14t6 -14q3 -3 7 -4.5t7 -1.5q4 0 8 1.5t7 4.5l70 71q6 6 6 14t-6 14v0zM432 799l-71 71q-6 6 -14.5 6t-13.5 -6q-6 -6 -6 -14t6 -14l70 -71q3 -3 7 -4.5t8 -1.5q3 0 7 1.5t7 4.5q6 6 6 14t-6 14zM618 427q0 -9 -6 -14.5t-14 -5.5
q-9 0 -14.5 5.5t-5.5 14.5q0 8 5.5 14t14.5 6q8 0 14 -6t6 -14z" />
    <glyph glyph-name="uniE911" unicode="&#xe911;" 
d="M1004 603h-71q6 22 8.5 44t2.5 44v149h60q8 0 14 6t6 14q0 9 -6 14.5t-14 5.5h-65q-6 13 -17.5 20.5t-26.5 7.5q-6 0 -12 -1.5t-11 -3.5q-7 8 -17 12.5t-21 4.5q-5 0 -9 -1l-8 -2q-7 12 -19 19.5t-26 7.5t-25 -6t-18 -16q-4 2 -9.5 3t-10.5 1q-20 0 -35 -13t-17 -33h-219
q-8 0 -14 -5.5t-6 -14.5v-7l-21 6v78q0 9 -6 14.5t-14 5.5q-9 0 -14.5 -5.5t-5.5 -14.5v-67q-21 5 -42.5 7.5t-42.5 2.5h-152v58q0 8 -6 14t-14 6q-9 0 -14.5 -6t-5.5 -14v-64q-12 -6 -19 -17.5t-7 -25.5q0 -6 1.5 -12t4.5 -11q-8 -7 -13 -17t-5 -21q0 -5 1 -9l2 -8
q-12 -7 -19.5 -19t-7.5 -26t6 -25t17 -18q-3 -4 -4 -9.5t-1 -10.5q0 -20 12.5 -34t31.5 -17v-223q0 -8 5.5 -14t14.5 -6h7l-5 -18h-82q-8 0 -14 -6t-6 -14q0 -9 6 -14.5t14 -5.5h71q-6 -22 -8.5 -44t-2.5 -44v-149h-60q-8 0 -14 -6t-6 -14q0 -9 6 -14.5t14 -5.5h65
q6 -13 17.5 -20.5t26.5 -7.5q6 0 12 1.5t11 3.5q7 -8 17 -12.5t21 -4.5q5 0 9 1l8 2q7 -12 19 -19.5t26 -7.5t25 6t18 16q4 -2 9.5 -3t10.5 -1q20 0 35 13t17 33h219q8 0 14 5.5t6 14.5v7l21 -6v-79q0 -8 6 -14t14 -6q9 0 14.5 6t5.5 14v68q21 -5 42.5 -7.5t42.5 -2.5h152
v-58q0 -8 6 -14t14 -6q9 0 14.5 6t5.5 14v64q12 6 19 17.5t7 25.5q0 6 -1.5 12t-4.5 11q8 7 13 17t5 21q0 5 -1 9l-2 8q12 7 19.5 19t7.5 26t-6 25t-17 18q3 4 4 9.5t1 10.5q0 20 -12.5 34t-31.5 17v223q0 8 -5.5 14t-14.5 6h-7l5 18h82q8 0 14 6t6 14q0 9 -6 14.5t-14 5.5
v0zM677 704q8 0 14 6t6 14v150q0 5 3.5 8.5t8.5 3.5t8 -3.5t3 -8.5v-45q0 -9 6 -14.5t14 -5.5q9 0 14.5 5.5t5.5 14.5v64q0 5 3.5 8t8.5 3q4 0 7.5 -3t3.5 -8v-62q0 -8 5.5 -14t14.5 -6q8 0 14 6t6 14v38q0 4 3 7.5t8 3.5t8 -3.5t3 -7.5v-40q0 -8 6 -14t14 -6q9 0 14.5 6
t5.5 14v30q0 4 3 6.5t7 2.5t6.5 -2.5t2.5 -6.5v-168q0 -21 -2.5 -41.5t-8.5 -40.5l-17 -64h-179v9q0 10 -3 20.5t-8 20.5l-47 80q-2 3 -2.5 6.5t-0.5 7.5v53q0 11 5.5 21t15.5 15v-54q0 -8 6 -14t14 -6v0zM88 633q-5 0 -8.5 3.5t-3.5 8.5t3.5 8t8.5 3h46q8 0 14 6t6 14
q0 9 -6 14.5t-14 5.5h-65q-5 0 -8 3.5t-3 8.5q0 4 3 7.5t8 3.5h63q8 0 14 5.5t6 14.5q0 8 -6 14t-14 6h-38q-5 0 -8.5 3t-3.5 8t3.5 8t8.5 3h39q8 0 14 6t6 14q0 9 -6 14.5t-14 5.5h-29q-4 0 -7 3t-3 7t3 6.5t7 2.5h168q20 0 41 -2.5t41 -8.5l64 -17v-179h-9q-11 0 -21.5 -3
t-19.5 -8l-80 -47q-3 -1 -7 -2t-7 -1h-53q-12 0 -21.5 5.5t-14.5 15.5h54q8 0 14 6t6 14t-6 14t-14 6h-151v0zM347 192q-8 0 -14 -6t-6 -14v-150v0q0 -5 -3.5 -8.5t-8.5 -3.5t-8 3.5t-3 8.5v45q0 9 -6 14.5t-14 5.5q-9 0 -14.5 -5.5t-5.5 -14.5v-64q0 -5 -3.5 -8t-8.5 -3
q-4 0 -7.5 3t-3.5 8v62q0 8 -5.5 14t-14.5 6q-8 0 -14 -6t-6 -14v-38q0 -4 -3 -7.5t-8 -3.5t-8 3.5t-3 7.5v40q0 8 -6 14t-14 6q-9 0 -14.5 -6t-5.5 -14v-30q0 -4 -3 -6.5t-7 -2.5t-6.5 2.5t-2.5 6.5v168q0 21 2.5 41.5t8.5 40.5l17 64h179v-9q0 -10 3 -20.5t8 -20.5l47 -80
q2 -3 2.5 -6.5t0.5 -7.5v-53q0 -11 -5.5 -21t-15.5 -15v54q0 8 -6 14t-14 6v0zM586 333h-145q-8 0 -14 -6t-6 -14q0 -9 6 -14.5t14 -5.5h125v-237h-199v19q27 7 44 29t17 50v53q0 9 -2 18t-7 16l-46 80q-3 5 -4.5 10.5t-1.5 10.5v9h10q8 0 14 6t6 14v126q0 8 -6 14t-14 6
q-9 0 -14.5 -6t-5.5 -14v-106h-237v202h22q7 -26 28.5 -43.5t50.5 -17.5h53q9 0 17.5 2t16.5 7l80 46q5 3 10 4.5t11 1.5h9v-10q0 -8 6 -14t14 -6h140q8 0 14 6t6 14q0 9 -6 14.5t-14 5.5h-120v237h199v-19q-27 -7 -44 -29t-17 -50v-53q0 -9 2 -18t7 -16l46 -80
q3 -5 4.5 -10.5t1.5 -10.5v-9h-10q-8 0 -14 -6t-6 -14v-142q0 -9 6 -14.5t14 -5.5q9 0 14.5 5.5t5.5 14.5v122h224v0v0v0v0h13v-202h-22q-7 26 -28.5 43.5t-50.5 17.5h-53q-9 0 -17.5 -2t-16.5 -7l-80 -46q-5 -3 -10 -4.5t-11 -1.5h-9v10q0 8 -6 14t-14 6v0zM936 263
q5 0 8.5 -3.5t3.5 -8.5t-3.5 -8t-8.5 -3h-46q-8 0 -14 -6t-6 -14q0 -9 6 -14.5t14 -5.5h65q5 0 8 -3.5t3 -8.5q0 -4 -3 -7.5t-8 -3.5h-63q-8 0 -14 -5.5t-6 -14.5q0 -8 6 -14t14 -6h38q5 0 8.5 -3t3.5 -8t-3.5 -8t-8.5 -3h-39q-8 0 -14 -6t-6 -14q0 -9 6 -14.5t14 -5.5h29
q4 0 7 -3t3 -7t-3 -6.5t-7 -2.5h-168q-20 0 -41 2.5t-41 8.5l-64 17v179h9q11 0 21.5 3t19.5 8l80 47q3 1 7 2t7 1h53q12 0 21.5 -5.5t14.5 -15.5h-54q-8 0 -14 -6t-6 -14t6 -14t14 -6h151v0zM330 436q0 -9 -6 -14.5t-14 -5.5q-9 0 -14.5 5.5t-5.5 14.5q0 8 5.5 14t14.5 6
q8 0 14 -6t6 -14zM330 502q0 -8 -6 -14t-14 -6q-9 0 -14.5 6t-5.5 14q0 9 5.5 14.5t14.5 5.5q8 0 14 -5.5t6 -14.5zM546 248q0 -8 -6 -14t-14 -6q-9 0 -14.5 6t-5.5 14q0 9 5.5 14.5t14.5 5.5q8 0 14 -5.5t6 -14.5zM479 248q0 -8 -6 -14t-14 -6t-14 6t-6 14q0 9 6 14.5
t14 5.5t14 -5.5t6 -14.5zM734 464q0 -8 -5.5 -14t-14.5 -6q-8 0 -14 6t-6 14t6 14t14 6q9 0 14.5 -6t5.5 -14zM734 397q0 -8 -5.5 -14t-14.5 -6q-8 0 -14 6t-6 14q0 9 6 14.5t14 5.5q9 0 14.5 -5.5t5.5 -14.5zM522 641q0 -8 -6 -14t-14 -6q-9 0 -14.5 6t-5.5 14
q0 9 5.5 14.5t14.5 5.5q8 0 14 -5.5t6 -14.5zM588 641q0 -8 -5.5 -14t-14.5 -6q-8 0 -14 6t-6 14q0 9 6 14.5t14 5.5q9 0 14.5 -5.5t5.5 -14.5z" />
    <glyph glyph-name="uniE912" unicode="&#xe912;" 
d="M611 139h-77q-9 0 -14.5 -6t-5.5 -14q0 -9 5.5 -14.5t14.5 -5.5h77q9 0 15.5 -6.5t6.5 -15.5t-6.5 -15.5t-15.5 -6.5h-209q-23 0 -44.5 10t-36.5 28l-50 60q-20 24 -48 38t-59 14v119h73q28 0 53 -10.5t44 -29.5l108 -104q6 -5 6 -13t-5 -14q-6 -6 -14 -6.5t-14 5.5
l-85 77q-6 6 -14 5.5t-14 -6.5q-5 -6 -5 -14.5t6 -13.5l85 -78q9 -8 19 -11.5t21 -3.5q12 0 23.5 4.5t20.5 14.5q17 18 16 42t-18 41l-108 104q-25 25 -57.5 38t-67.5 13h-77q-6 13 -18 21.5t-28 8.5h-94q-8 0 -14 -6t-6 -14v-146q0 -9 6 -14.5t14 -5.5t14 5.5t6 14.5v126
h74q4 0 7 -3t3 -7v-160q0 -4 -3 -7t-7 -3h-21q-8 0 -14 -5.5t-6 -14.5q0 -8 6 -14t14 -6h21q16 0 28.5 9t17.5 23q23 -1 44.5 -10.5t36.5 -27.5l49 -60q21 -25 50.5 -39t61.5 -14h209q26 0 44 18t18 44q0 25 -18 43.5t-44 18.5v0zM1004 696q-8 0 -14 -6t-6 -14v-134h-74
q-4 0 -7 3t-3 7v160q0 4 3 7t7 3h19q8 0 14 5.5t6 14.5q0 8 -6 14t-14 6h-19q-16 0 -28.5 -9t-17.5 -23q-23 1 -44.5 10.5t-36.5 27.5l-49 60q-21 25 -50.5 39t-61.5 14h-209q-26 0 -44 -18t-18 -44q0 -25 18 -43.5t44 -18.5h85q9 0 14.5 6t5.5 14q0 9 -5.5 14.5t-14.5 5.5
h-85q-9 0 -15.5 6.5t-6.5 15.5t6.5 15.5t15.5 6.5h209q23 0 44.5 -10t36.5 -28l50 -60q20 -24 48 -38t59 -14v-119h-73q-28 0 -53 10.5t-44 29.5l-108 104q-6 5 -6 13t5 14q6 6 14 6.5t14 -5.5l85 -77q6 -6 14 -5.5t14 6.5q5 6 5 14.5t-6 13.5l-85 78q-18 16 -42.5 15
t-41.5 -19t-16 -42t18 -41l108 -104q25 -25 57.5 -38t67.5 -13h77q6 -13 18 -21.5t28 -8.5h94q8 0 14 6t6 14v154q0 8 -6 14t-14 6v0zM646 201q-4 7 -11.5 10t-15.5 0q-7 -4 -10 -11.5t0 -15.5q2 -5 7 -8.5t11 -3.5q2 0 4 0.5t4 1.5h0.5h0.5q7 4 10 11.5t0 15.5v0zM695 234
q-5 7 -13 8t-15 -3q-6 -5 -7.5 -13.5t3.5 -14.5q3 -4 7.5 -6.5t8.5 -2.5q3 0 6 1t6 3v0v1q7 4 8 12.5t-4 14.5zM590 178q-2 8 -9 12.5t-15 3.5q-8 -2 -12.5 -9t-3.5 -15q2 -7 7.5 -11.5t12.5 -4.5h2h2v0.5v0.5q8 1 12.5 8t3.5 15zM737 278q-6 5 -14.5 5t-13.5 -7v0h-1
q-5 -6 -4.5 -14.5t7.5 -13.5q2 -3 5.5 -4t7.5 -1t8 1.5t7 5.5q5 6 4.5 14t-6.5 14zM726 261l-2 2l2 -2v0v0zM788 386q-8 3 -15 -1t-10 -12q-2 -8 1.5 -15.5t11.5 -9.5q2 -1 3.5 -1h2.5q7 0 12 4t7 10v0q3 8 -1 15.5t-12 9.5v0zM814 489v1v0q-2 8 -9 12.5t-15 3.5
q-8 -2 -12.5 -9t-3.5 -15q2 -7 7.5 -11.5t12.5 -4.5h2h2q8 2 12.5 8.5t3.5 14.5zM795 446q-8 1 -14.5 -4.5t-6.5 -13.5v-0.5v-0.5q-1 -8 4.5 -14.5t13.5 -6.5h1h1q7 0 13 5.5t7 12.5q0 9 -5 15t-14 7zM768 329q-7 4 -15 2t-12 -9v-1q-4 -7 -1.5 -15t9.5 -12q2 -1 4.5 -1.5
t5.5 -0.5q5 0 9.5 2.5t7.5 7.5l-17 10l17 -10q4 7 2 15t-10 12zM406 710q-4 8 -12 10.5t-15 -1.5v0q-8 -4 -10.5 -11.5t1.5 -15.5q3 -5 7.5 -8t10.5 -3q2 0 4.5 0.5t4.5 1.5q7 4 9.5 12t-0.5 15v0zM464 727q-2 8 -9 12.5t-16 2.5v-0.5v-0.5q-8 -2 -12 -9t-2 -15
q1 -7 6.5 -11t12.5 -4h2.5t2.5 1q8 2 12.5 9t2.5 15v0zM353 681q-5 7 -13.5 8t-14.5 -5l12 -15l-12 15q-7 -5 -8 -13t5 -15q3 -3 7 -5t8 -2q3 0 6.5 1t6.5 3v0q6 5 7 13.5t-4 14.5v0zM246 539q-8 2 -15 -2t-9 -12v-0.5v-0.5q-2 -8 2 -15t12 -9h2.5h2.5q7 0 12.5 4t6.5 11
q2 8 -2 15t-12 9zM234 480q-9 1 -15 -4.5t-7 -13.5v-1v0q0 -9 6 -15t14 -6v0v0q8 0 14 5.5t6 13.5q1 9 -4.5 15t-13.5 6v0zM271 594q-7 4 -15 1.5t-12 -10.5v0q-4 -8 -1 -15.5t10 -11.5q2 -1 4.5 -1.5t4.5 -0.5q6 0 10.5 3t7.5 8q4 7 1.5 15t-10.5 12v0zM308 642
q-7 5 -15 4.5t-14 -7.5v0v0q-5 -7 -4 -15t7 -13q3 -3 6 -4t7 -1t8 2t7 6q5 6 4.5 14.5t-6.5 13.5zM256 404q-1 8 -8 13t-15 3q-8 -1 -13 -8t-3 -15v0q1 -8 6.5 -12.5t12.5 -4.5h2t2 1q8 1 13 8t3 15zM581 556q-20 0 -37.5 -8t-30.5 -21q-13 13 -30 21t-37 8
q-38 0 -65.5 -27.5t-27.5 -65.5q0 -21 9 -39.5t25 -31.5v-1v0l114 -90q3 -2 6 -3t6 -1q4 0 7 1t6 3l119 95l0.5 0.5l0.5 0.5q13 13 20.5 30t7.5 36q0 38 -27.5 65.5t-65.5 27.5v0zM619 426l-106 -84l-101 80q-9 8 -14 18.5t-5 22.5q0 22 15.5 37.5t37.5 15.5q16 0 29.5 -9
t19.5 -24q2 -6 7 -9t11 -3t11 3t8 9q6 15 19.5 24t29.5 9q22 0 37.5 -15.5t15.5 -37.5q0 -10 -4 -19.5t-11 -17.5v0zM40 154q0 -8 -6 -13.5t-14 -5.5t-14 5.5t-6 13.5q0 9 6 14.5t14 5.5t14 -5.5t6 -14.5zM1024 742q0 -9 -6 -14.5t-14 -5.5t-14 5.5t-6 14.5q0 8 6 13.5
t14 5.5t14 -5.5t6 -13.5z" />
    <glyph glyph-name="uniE913" unicode="&#xe913;" 
d="M1018 572l-189 189q-6 6 -14.5 6t-14.5 -6q-6 -5 -6 -13.5t6 -14.5l176 -175l-103 -103q-2 -2 -5.5 -2t-5.5 2l-203 203q-2 2 -2 5.5t2 5.5l69 69q6 6 6 14t-6 14t-14 6t-14 -6l-69 -69q-11 -10 -13.5 -24.5t3.5 -27.5l-24 -24h-162l-30 30q1 3 1.5 6t0.5 6q0 10 -3.5 19
t-10.5 15l-67 67q-6 6 -14 6t-14 -6q-6 -5 -6 -13.5t6 -14.5l67 -67q1 -1 1.5 -3t0.5 -3t-0.5 -2.5t-1.5 -2.5l-203 -203v0v0q-2 -1 -3.5 -1.5l-1.5 -0.5q-1 0 -3 0.5t-3 1.5l-103 103l178 178q6 5 6 13.5t-6 14.5t-14 6t-14 -6l-192 -192q-6 -6 -6 -14.5t6 -13.5l117 -117
q7 -7 15.5 -10.5t18.5 -3.5q4 0 8 0.5t8 2.5l66 -66q-4 -7 -6 -15t-2 -17q0 -28 20 -48t48 -20v0h1v0v0q0 -28 19.5 -48.5t48.5 -20.5v0v0q0 -28 20 -48t48 -20q9 0 17 2t15 6l25 -25q8 -8 19 -12.5t24 -4.5q12 0 23 4.5t19 12.5q9 9 13.5 19t4.5 22q11 0 21.5 4.5
t19.5 13.5t13.5 20.5t4.5 23.5v0v1q13 0 24.5 5.5t20.5 15.5t13.5 22t4.5 24q12 0 23.5 5t20.5 14t14 21t5 25q0 8 -1.5 15.5t-5.5 14.5l66 60q6 -5 13 -7t14 -2q10 0 18.5 3.5t15.5 10.5l117 117q6 5 6 13.5t-6 14.5v0zM299 290q-11 0 -19.5 8t-8.5 20t8.5 20.5t19.5 8.5
q12 0 20.5 -8.5t8.5 -20.5t-8.5 -20t-20.5 -8zM389 231l-1.5 -1.5l-0.5 -0.5q-4 -4 -9 -6t-10 -2q-12 0 -20 8.5t-8 20.5q0 11 8 19.5t20 8.5t20 -8.5t8 -19.5q0 -6 -2 -10.5t-5 -8.5zM456 162v-1v0v0v0q-4 -4 -9 -6t-11 -2q-12 0 -20 8.5t-8 19.5q0 6 2 10.5t5 8.5l1.5 1.5
t0.5 1.5q4 3 9 5t10 2q12 0 20 -8.5t8 -20.5q0 -5 -2 -10.5t-6 -8.5v0zM734 314q-4 -3 -8.5 -5t-9.5 -2t-9.5 2t-8.5 5l-42 42q-5 6 -13.5 6t-14.5 -6t-6 -14.5t6 -14.5l42 -41v0v0v0q8 -8 8 -19t-7 -19q-4 -4 -9 -6t-10 -3q-6 0 -11 2t-9 6l-40 38q-6 5 -14.5 5t-13.5 -6
q-6 -6 -6 -14.5t6 -13.5l44 -42q3 -3 5 -7t2 -8q0 -5 -1.5 -9t-5.5 -7q-6 -6 -15 -6t-15 6l-21 20q-5 6 -13.5 6t-14.5 -6q-3 -3 -4.5 -6.5t-1.5 -7.5t1.5 -7.5t4.5 -6.5l21 -21q3 -3 4.5 -6.5t1.5 -8.5q0 -4 -1.5 -7.5t-4.5 -6.5t-6.5 -4.5t-7.5 -1.5q-5 0 -8.5 1.5
t-6.5 4.5l-25 24q4 7 6 15.5t2 16.5q0 29 -20 49t-48 20v0v0q0 28 -20 48t-48 20v0v0v0v0q0 28 -20 48.5t-49 20.5q-8 0 -16.5 -2.5t-15.5 -5.5l-62 62l177 177l30 -31q3 -3 6.5 -4.5t7.5 -1.5h26l-79 -79q-9 -9 -13.5 -20.5t-4.5 -24.5t4.5 -24.5t13.5 -20.5t21 -14t25 -5
q12 0 24 5t21 14l67 67l73 -1l130 -128q3 -3 5 -8t2 -10t-2 -9.5t-5 -8.5v0zM748 392l-122 120v0v0v0q-3 4 -7.5 5.5t-8.5 0.5l-87 1q-4 0 -8 -1.5t-7 -4.5l-72 -73q-4 -3 -8.5 -5t-8.5 -2q-5 0 -9.5 2t-7.5 5q-4 4 -5.5 8t-1.5 9t1.5 9.5t5.5 7.5l107 107h97q4 0 7.5 1.5
t6.5 4.5l27 27l164 -165l-63 -57v0zM897 549q0 -9 -6 -14.5t-14 -5.5q-9 0 -14.5 5.5t-5.5 14.5q0 8 5.5 13.5t14.5 5.5q8 0 14 -5.5t6 -13.5zM165 547q0 -9 -5.5 -14.5t-14.5 -5.5q-8 0 -14 5.5t-6 14.5q0 8 6 13.5t14 5.5q9 0 14.5 -5.5t5.5 -13.5zM282 796q0 -9 -6 -14.5
t-14 -5.5t-14 5.5t-6 14.5q0 8 6 14t14 6t14 -6t6 -14zM781 797q0 -8 -5.5 -14t-13.5 -6q-9 0 -14.5 6t-5.5 14q0 9 5.5 14.5t14.5 5.5q8 0 13.5 -5.5t5.5 -14.5z" />
    <glyph glyph-name="uniE914" unicode="&#xe914;" 
d="M1004 838h-112q-4 40 -33.5 67.5t-70.5 27.5q-40 0 -70 -27.5t-33 -67.5h-224v18q0 43 -30.5 73.5t-73.5 30.5t-73.5 -30.5t-30.5 -73.5v-18h-111q-9 0 -14.5 -5.5t-5.5 -14.5v-111h-18q-43 0 -73.5 -30.5t-30.5 -73.5t30.5 -73.5t73.5 -30.5h18v-110v-1v-1v-125
q0 -8 5.5 -14t14.5 -6h44q29 0 49.5 -20.5t20.5 -49.5t-20.5 -50t-49.5 -21h-44q-9 0 -14.5 -5.5t-5.5 -14.5v-125q0 -8 5.5 -14t14.5 -6h862q8 0 14 6t6 14v862q0 9 -6 14.5t-14 5.5zM142 539h-38q-26 0 -45 18.5t-19 45.5q0 26 19 45t45 19h38q8 0 14 6t6 14v111h111
q8 0 14 6t6 14v38q0 26 19 45t45 19q27 0 45.5 -19t18.5 -45v-38q0 -8 6 -14t14 -6h112v-111q0 -8 5.5 -14t14.5 -6h37q27 0 45.5 -19t18.5 -45q0 -27 -18.5 -45.5t-45.5 -18.5h-37q-9 0 -14.5 -6t-5.5 -14v-112h-188v108q0 8 -5.5 14t-14.5 6q-8 0 -14 -6t-6 -14v-108h-163
v112q0 8 -6 14t-14 6v0zM573 108q-9 0 -14.5 -6t-5.5 -14v-112h-128v108q0 8 -6 14t-14 6t-14 -6t-6 -14v-108h-223v85h24q45 0 77.5 32.5t32.5 78.5q0 45 -32.5 77.5t-77.5 32.5h-24v85h391v-111q0 -9 5.5 -14.5t14.5 -5.5h12q26 0 45 -19t19 -45q0 -27 -19 -45.5
t-45 -18.5h-12zM984 130h-108q-8 0 -14 -5.5t-6 -14.5q0 -8 6 -14t14 -6h108v-114h-391v92q40 3 68 33t28 71t-28 70.5t-68 32.5v92h91v-44q0 -43 30.5 -73.5t73.5 -30.5t74 30.5t31 73.5v44h91v-237zM984 640h-108q-8 0 -14 -6t-6 -14q0 -9 6 -14.5t14 -5.5h108v-193h-111
q-9 0 -14.5 -5.5t-5.5 -14.5v-64q0 -26 -19 -45t-46 -19q-26 0 -45 19t-19 45v64q0 9 -5.5 14.5t-14.5 5.5h-111v92h17q43 0 73.5 30.5t30.5 73.5t-30.5 73.5t-73.5 30.5h-17v91h111q9 0 14.5 6t5.5 14v11q0 27 19 45.5t45 18.5q27 0 46 -18.5t19 -45.5v-11q0 -8 5.5 -14
t14.5 -6h111v-158zM425 159q0 -8 -6 -14t-14 -6t-14 6t-6 14t6 14t14 6t14 -6t6 -14zM821 110q0 -8 -6 -14t-14 -6t-14 6t-6 14q0 9 6 14.5t14 5.5t14 -5.5t6 -14.5zM821 620q0 -9 -6 -14.5t-14 -5.5t-14 5.5t-6 14.5q0 8 6 14t14 6t14 -6t6 -14zM365 590q0 -8 -5.5 -14
t-14.5 -6q-8 0 -14 6t-6 14q0 9 6 14.5t14 5.5q9 0 14.5 -5.5t5.5 -14.5z" />
    <glyph glyph-name="uniE915" unicode="&#xe915;" 
d="M913 115v45q0 31 -22 53t-53 22h-306v18q0 9 -6 14.5t-14 5.5t-14 -5.5t-6 -14.5v-18h-306q-31 0 -53 -22t-22 -53v-45q-30 -7 -50 -31.5t-20 -56.5q0 -38 26.5 -64.5t63.5 -26.5q38 0 64.5 26.5t26.5 64.5q0 32 -20 56.5t-51 31.5v45q0 14 10.5 24.5t24.5 10.5h306v-80
q-30 -7 -50.5 -31.5t-20.5 -56.5q0 -38 26.5 -64.5t64.5 -26.5t64.5 26.5t26.5 64.5q0 32 -20.5 56.5t-50.5 31.5v80h306q14 0 24.5 -10.5t10.5 -24.5v-45q-31 -7 -51 -31.5t-20 -56.5q0 -38 26.5 -64.5t64.5 -26.5q37 0 63.5 26.5t26.5 64.5q0 32 -20 56.5t-50 31.5v0z
M182 27q0 -21 -15 -36t-36 -15t-35.5 15t-14.5 36t14.5 35.5t35.5 14.5t36 -14.5t15 -35.5zM563 27q0 -21 -15 -36t-36 -15t-36 15t-15 36t15 35.5t36 14.5t36 -14.5t15 -35.5zM893 -24q-21 0 -36 15t-15 36t15 35.5t36 14.5t35.5 -14.5t14.5 -35.5t-14.5 -36t-35.5 -15z
M512 960q-65 0 -122 -24.5t-99.5 -67.5t-67.5 -100t-25 -122q0 -74 32 -137.5t85 -106.5q1 0 1 -0.5t1 -1.5q11 -9 23.5 -17t25.5 -15v0v0q33 -17 70 -26.5t76 -9.5q49 0 93 14t82 40v0v0q5 3 10 7t10 7l1.5 1.5l0.5 0.5q53 43 85 106.5t32 137.5q0 65 -25 122t-67.5 100
t-99.5 67.5t-122 24.5v0zM512 372q-45 0 -85.5 14t-74.5 38q16 51 60.5 83t99.5 32t99.5 -32t60.5 -83q-34 -24 -74.5 -38t-85.5 -14v0zM439 646q0 28 20 47.5t47 19.5q28 0 47.5 -19.5t19.5 -47.5t-19.5 -47.5t-47.5 -19.5q-27 0 -47 19.5t-20 47.5zM705 452
q-10 24 -26 44.5t-36 37.5q-15 11 -30.5 19.5t-33.5 14.5q16 15 25 35t9 43q0 44 -31 75.5t-76 31.5q-44 0 -75.5 -31.5t-31.5 -75.5q0 -24 10 -45t27 -36q-14 -6 -28 -13.5t-27 -17.5q-20 -17 -36 -37.5t-26 -44.5q-37 37 -59 87t-22 107t21.5 107t59 87t87 58.5
t106.5 21.5t106.5 -21.5t87 -58.5t59 -87t21.5 -107t-22 -107t-59 -87v0zM532 303q0 -8 -6 -14t-14 -6t-14 6t-6 14t6 14t14 6t14 -6t6 -14z" />
    <glyph glyph-name="uniE916" unicode="&#xe916;" 
d="M449 617q0 -8 -6 -14t-15 -6q-8 0 -14 6t-6 14q0 9 6 15t14 6q9 0 15 -6t6 -15zM607 617q0 -8 -6.5 -14t-14.5 -6q-9 0 -15 6t-6 14q0 9 6 15t15 6q8 0 14.5 -6t6.5 -15zM837 248q-29 7 -56 13t-58 11l-40 61q-3 4 -7 6.5t-9 2.5q-4 1 -8.5 -1t-7.5 -5l-139 -158
l-139 148q-3 3 -7.5 5t-8.5 1q-4 0 -8 -2t-7 -5l-40 -53q-31 -5 -58.5 -11t-57.5 -14q-63 -16 -103.5 -68t-40.5 -118v-46q0 -33 23 -56t56 -23h321v0v0v0v0h150v0v0v0v0h311q33 0 56 23t23 56v46q0 66 -40.5 118t-104.5 69v0zM664 289l29 -44l-73 -144l-78 51zM360 282
l121 -130l-80 -51l-65 149l24 32v0zM425 -24h-304q-16 0 -27.5 11.5t-11.5 27.5v46q0 53 32 94t82 54q27 7 52 12.5t52 9.5l74 -167q2 -4 5 -7t7 -4q5 -2 9 -1.5t8 3.5l39 25l-17 -104v0zM465 -24l22 132l25 16l26 -17l29 -131h-102zM903 -24h-295l-22 100l31 -21
q3 -2 5.5 -2.5t5.5 -0.5h2.5h2.5q4 1 7.5 4t5.5 7l84 167q25 -4 48.5 -9.5t48.5 -11.5q51 -13 83 -54t32 -94v-46v0q0 -16 -11.5 -27.5t-27.5 -11.5v0zM805 885q-9 0 -14.5 -6t-5.5 -14v-27q0 -30 -22 -52t-52 -22h-314h-0.5h-1.5h-0.5h-1.5q-47 0 -80.5 -33t-33.5 -81v-105
q0 -7 0.5 -14t1.5 -14q-31 14 -37.5 44.5t-6.5 44.5v188q0 27 19 46.5t47 19.5h24q8 0 14 5.5t6 14.5q0 16 12 28t28 12h330q8 0 14 6t6 14t-6 14t-14 6h-330q-28 0 -49.5 -17t-27.5 -43h-7q-44 0 -75 -31t-31 -75v-188q0 -55 25.5 -90.5t68.5 -42.5q23 -68 82 -112t135 -44
q47 0 88.5 18t72.5 49t49 72.5t18 88.5v182q38 9 63.5 40t25.5 71v27q0 8 -6 14t-14 6v0zM696 545q0 -78 -55 -133t-133 -55t-133.5 55t-55.5 133v105q0 31 22 52.5t52 21.5h1.5h0.5h1.5h0.5h299v-179v0zM585 489q-6 6 -14.5 6t-13.5 -6q-9 -9 -21 -13.5t-24 -4.5
q-14 0 -26 5.5t-21 14.5q-6 7 -14 7t-14 -5q-6 -6 -6.5 -14t4.5 -14q15 -17 35 -25.5t42 -8.5q20 0 39 7.5t34 22.5q6 6 6 14.5t-6 13.5zM825 940q0 -8 -6 -14t-14 -6q-9 0 -14.5 6t-5.5 14t5.5 14t14.5 6q8 0 14 -6t6 -14z" />
    <glyph glyph-name="uniE917" unicode="&#xe917;" 
d="M450 577q0 -8 -5.5 -14t-14.5 -6q-8 0 -14 6t-6 14q0 9 6 14.5t14 5.5q9 0 14.5 -5.5t5.5 -14.5zM604 577q0 -8 -6 -14t-14 -6t-14 6t-6 14q0 9 6 14.5t14 5.5t14 -5.5t6 -14.5zM829 241q-27 7 -54.5 13t-55.5 10l-40 61q-2 4 -6.5 6t-8.5 3q-5 0 -9 -2t-8 -5l-135 -154
l-136 145q-3 3 -7 4.5t-8 1.5q-5 0 -9 -2t-6 -6l-40 -51q-20 -4 -40.5 -8t-41.5 -9v391q0 58 22.5 109t60.5 89.5t89 60.5t109 22q59 0 110 -22t89 -60.5t60.5 -89.5t22.5 -109v-259q0 -8 5.5 -14t14.5 -6q8 0 14 6t6 14v259q0 66 -25.5 124.5t-69 102t-102 69t-125.5 25.5
q-66 0 -124.5 -25.5t-102 -69t-69 -102t-25.5 -124.5v-401q-58 -18 -94.5 -67.5t-36.5 -111.5v-46q0 -32 22.5 -54.5t54.5 -22.5h764q32 0 54.5 22.5t22.5 54.5v46q0 64 -39.5 115t-102.5 67v0zM660 281l28 -43l-70 -140l-76 49zM363 273l118 -126l-77 -49l-64 145l23 30v0z
M426 -24h-296q-15 0 -26 11t-11 26v46q0 51 31 91t80 52q25 7 50.5 12t50.5 10l72 -163q1 -4 4.5 -7t7.5 -4q2 -1 3.5 -1h2.5q3 0 5.5 1t5.5 2l37 24zM467 -24v0l21 128l24 16l25 -17l28 -127h-98v0zM931 13q0 -15 -11 -26t-26 -11h-288l-21 96l29 -20q4 -2 8 -2.5t9 0.5
q4 1 7 3.5t5 6.5l82 163q24 -4 47.5 -9.5t46.5 -10.5q50 -13 81 -53t31 -91v-46v0zM673 699h-93q-16 0 -30 7t-24 19q-2 4 -6 6t-9 2t-9 -1.5t-7 -5.5q-11 -13 -26.5 -20t-32.5 -7h-88q-26 0 -45 -19t-19 -45v-103q0 -47 17.5 -87.5t48 -71t71.5 -48t87 -17.5t86.5 17.5
t71 48t48 71t17.5 87.5v108q0 24 -17 41.5t-41 17.5v0zM691 532q0 -76 -53.5 -130t-129.5 -54t-130 54t-54 130v103q0 9 7 16.5t17 7.5h88q21 0 40 6.5t34 19.5q14 -13 32 -19.5t38 -6.5h93q8 0 13 -5.5t5 -13.5v-108v0zM567 465q-6 6 -14 6t-14 -6q-5 -6 -12.5 -9t-15.5 -3
t-15.5 3.5t-12.5 9.5q-6 6 -14.5 6.5t-14.5 -5.5q-6 -5 -6.5 -13.5t5.5 -14.5q11 -12 26.5 -19t31.5 -7t30.5 6t25.5 17q6 6 6 14.5t-6 14.5zM827 304q0 -8 -6 -14t-14 -6q-9 0 -14.5 6t-5.5 14t5.5 14t14.5 6q8 0 14 -6t6 -14z" />
    <glyph glyph-name="uniE918" unicode="&#xe918;" 
d="M883 960h-742q-34 0 -58.5 -24.5t-24.5 -58.5v-346q0 -34 24.5 -58.5t58.5 -24.5h31l82 -110q6 -9 16 -14t20 -5q4 0 7.5 1t7.5 2q14 4 22.5 16t8.5 27l2 83h92q-5 -11 -7 -22.5t-2 -23.5q0 -29 12.5 -54t33.5 -42q-68 -24 -112.5 -83.5t-44.5 -134.5v-112h-120
q-8 0 -14 -6t-6 -14t6 -14t14 -6h662q8 0 14 6t6 14t-6 14t-14 6h-64v112q0 78 -47 138.5t-119 82.5q19 17 31 41t12 52q0 51 -36 86.5t-86 35.5q-26 0 -48 -9.5t-39 -26.5h-138q-8 0 -14 -5.5t-6 -14.5l-2 -103q0 -2 -1 -3.5t-3 -1.5q-1 -1 -3 -0.5t-3 2.5l-88 118
q-3 4 -7 6t-9 2h-41q-18 0 -30.5 12.5t-12.5 30.5v346q0 18 12.5 30.5t30.5 12.5h742q18 0 30.5 -12.5t12.5 -30.5v-346q0 -18 -12.5 -30.5t-30.5 -12.5h-77q-8 0 -14 -6t-6 -14t6 -14t14 -6h77q34 0 58.5 24.5t24.5 58.5v346q0 34 -24.5 58.5t-58.5 24.5v0zM748 88v-112
h-66v105q0 8 -5.5 14t-14.5 6q-8 0 -14 -6t-6 -14v-105h-182v105q0 8 -6 14t-14 6q-9 0 -14.5 -6t-5.5 -14v-105h-70v112q0 40 16 75t43 61t63 41t77 15t77.5 -15t63.5 -41t42.5 -61t15.5 -75v0zM543 484q34 0 58 -24t24 -58t-24 -58t-58 -24t-58 24t-24 58t24 58t58 24z
M958 -44q0 -8 -6 -14t-14 -6q-9 0 -14.5 6t-5.5 14t5.5 14t14.5 6q8 0 14 -6t6 -14zM362 713q0 -8 -6 -14t-14 -6q-9 0 -14.5 6t-5.5 14t5.5 14t14.5 6q8 0 14 -6t6 -14zM478 713q0 -8 -5.5 -14t-14.5 -6q-8 0 -14 6t-6 14t6 14t14 6q9 0 14.5 -6t5.5 -14zM583 713
q0 -8 -6 -14t-14 -6t-14 6t-6 14t6 14t14 6t14 -6t6 -14zM697 713q0 -8 -6 -14t-14 -6t-14 6t-6 14t6 14t14 6t14 -6t6 -14zM741 469q0 -8 -6 -14t-14 -6q-9 0 -14.5 6t-5.5 14t5.5 14t14.5 6q8 0 14 -6t6 -14z" />
    <glyph glyph-name="uniE919" unicode="&#xe919;" 
d="M512 354q-40 0 -75.5 -15.5t-62 -42t-42 -62t-15.5 -75.5q0 -46 19.5 -85.5t52.5 -66.5q1 0 1.5 -0.5l1.5 -1.5q25 -19 55.5 -30t64.5 -11t64.5 11t55.5 30l1.5 1.5t1.5 0.5q33 27 52.5 66.5t19.5 85.5q0 40 -15.5 75.5t-42 62t-62 42t-75.5 15.5v0zM512 4
q-24 0 -45.5 6.5t-40.5 19.5q10 25 33.5 41t52.5 16t52.5 -16t33.5 -41q-19 -13 -40.5 -19.5t-45.5 -6.5zM477 159q0 13 9 22t23 9q13 0 22 -9t9 -22q0 -14 -9 -23t-22 -9q-14 0 -23 9t-9 23zM629 57q-10 19 -26.5 34t-36.5 24q7 9 10.5 20t3.5 24q0 29 -21 50t-50 21
q-30 0 -51 -21t-21 -50q0 -13 4 -25t12 -21q-18 -9 -33 -23.5t-25 -32.5q-18 21 -28 47t-10 55q0 64 45.5 109.5t109.5 45.5t109.5 -45.5t45.5 -109.5q0 -29 -10 -55t-28 -47v0zM195 932q-40 0 -75.5 -15t-62 -41.5t-42 -62t-15.5 -76.5q0 -45 19.5 -84.5t52.5 -66.5
l1.5 -1.5t1.5 -0.5q25 -20 55.5 -31t64.5 -11t64.5 11t55.5 31q1 0 1.5 0.5l1.5 1.5q33 27 52.5 66.5t19.5 84.5q0 41 -15.5 76.5t-42 62t-62 41.5t-75.5 15v0zM195 582q-24 0 -45.5 7t-40.5 19q10 26 33.5 42t52.5 16t52.5 -16t33.5 -42q-19 -12 -40.5 -19t-45.5 -7v0z
M160 737q0 14 9 23t23 9q13 0 22 -9t9 -23q0 -13 -9 -22t-22 -9q-14 0 -23 9t-9 22zM312 636q-10 19 -26.5 34t-36.5 24q7 9 10.5 20t3.5 23q0 30 -21 51t-50 21q-30 0 -51 -21t-21 -51q0 -13 4 -24.5t12 -20.5q-18 -9 -33 -23.5t-25 -32.5q-18 20 -28 46t-10 55
q0 64 45.5 109.5t109.5 45.5t109.5 -45.5t45.5 -109.5q0 -29 -10 -55t-28 -46v0zM829 932q-40 0 -75.5 -15t-62 -41.5t-42 -62t-15.5 -76.5q0 -45 19.5 -84.5t52.5 -66.5l1.5 -1.5t1.5 -0.5q25 -20 55.5 -31t64.5 -11t64.5 11t55.5 31q1 0 1.5 0.5l1.5 1.5q33 27 52.5 66.5
t19.5 84.5q0 41 -15.5 76.5t-42 62t-62 41.5t-75.5 15v0zM829 582q-24 0 -45.5 7t-40.5 19q10 26 33.5 42t52.5 16t52.5 -16t33.5 -42q-19 -12 -40.5 -19t-45.5 -7zM794 737q0 14 9.5 23t22.5 9t22.5 -9t9.5 -23q0 -13 -9.5 -22t-22.5 -9t-22.5 9t-9.5 22zM946 636
q-10 19 -26.5 34t-36.5 24q7 9 11 20t4 23q0 30 -21.5 51t-50.5 21q-30 0 -51 -21t-21 -51q0 -13 4.5 -24.5t11.5 -20.5q-18 -9 -33 -23.5t-25 -32.5q-18 20 -28 46t-10 55q0 64 45.5 109.5t109.5 45.5t109.5 -45.5t45.5 -109.5q0 -29 -10 -55t-28 -46v0zM282 249v0v0
q-7 6 -15 5t-13 -7q-6 -6 -5.5 -14.5t7.5 -13.5v0v0q3 -3 6 -4t7 -1t8 2t7 5q5 6 4.5 14.5t-6.5 13.5v0zM243 289v0.5v0.5q-6 6 -14 6.5t-14 -4.5q-7 -5 -7.5 -13.5t4.5 -14.5v0q3 -4 7 -6t9 -2q3 0 6 1.5t6 3.5q7 5 7.5 13.5t-4.5 14.5v0zM211 335h-1v0q-4 8 -12 10t-15 -3
q-7 -4 -9 -12t2 -15v0q3 -5 7.5 -7.5t9.5 -2.5q3 0 5.5 0.5t4.5 2.5q8 4 10 12t-2 15v0zM169 439q-2 8 -9 12.5t-15 3.5q-8 -2 -12.5 -9t-2.5 -15v0v0q2 -7 7.5 -11.5t12.5 -4.5h2h2q8 2 12.5 9t2.5 15v0zM186 386v0h-1q-3 8 -10.5 11t-15.5 0q-7 -3 -10.5 -10.5t-0.5 -15.5
v0q3 -6 8 -9.5t11 -3.5q2 0 4 0.5t3 1.5q8 3 11.5 10.5t0.5 15.5v0zM770 247q-5 6 -13 7t-15 -5v0v0q-6 -5 -6.5 -13.5t4.5 -14.5q3 -3 7 -5t8 -2t7 1t6 4v0v0q7 5 7.5 13.5t-5.5 14.5zM865 397q-8 3 -15.5 0t-10.5 -11h-1v0q-3 -8 0.5 -15.5t11.5 -10.5q1 -1 3 -1.5t4 -0.5
q6 0 11 3.5t8 9.5q3 8 -0.5 15.5t-10.5 10.5v0zM809 292q-6 5 -14 4.5t-14 -6.5v-0.5v-0.5q-5 -6 -4.5 -14t7.5 -14q3 -2 6 -3t6 -1q5 0 9 1.5t7 5.5q5 6 4.5 14.5t-7.5 13.5v0zM879 455q-8 1 -15 -3t-9 -13v0q-2 -8 2.5 -15t12.5 -9h2h2q7 0 12.5 4.5t7.5 11.5v0v0
q2 8 -2.5 15t-12.5 9v0zM841 342q-7 5 -15 3t-12 -10v0h-1q-4 -7 -2 -15t10 -12q2 -2 4.5 -2.5t5.5 -0.5q5 0 9.5 2.5t7.5 7.5q4 7 2 15t-9 12v0zM884 514q-8 0 -14.5 -5.5t-6.5 -13.5v0v0q-1 -8 4.5 -14.5t14.5 -6.5h0.5h0.5q8 0 13.5 5.5t6.5 13.5q0 8 -5.5 14t-13.5 7v0z
M636 896v0q-8 3 -15 -1t-10 -12q-2 -8 1.5 -15t11.5 -10v0q2 0 3.5 -0.5t2.5 -0.5q7 0 12 4t7 10q3 8 -1 15.5t-12 9.5v0zM575 911h-1q-8 1 -14.5 -4t-7.5 -13q-2 -8 3 -15t14 -8h1h2q7 0 12.5 4.5t6.5 12.5q2 8 -3 14.5t-13 8.5zM512 915h-1q-8 0 -14 -6t-5 -14
q0 -8 5.5 -14t13.5 -6h1v0q8 0 14 6t6 14t-6 14t-14 6zM412 883q-2 8 -9.5 11.5t-15.5 1.5v0q-8 -2 -12 -9.5t-1 -15.5q2 -6 7.5 -10t11.5 -4h2.5t3.5 1q8 2 12 9.5t1 15.5v0zM472 893q-2 8 -8.5 13t-14.5 4l3 -20l-3 20q-9 -2 -13.5 -8.5t-3.5 -14.5t6.5 -12.5t13.5 -4.5h1
h2v0v0q8 1 13 8t4 15v0zM161 499q-2 8 -9 12.5t-15 3.5q-8 -2 -12.5 -9t-2.5 -15v0v0q1 -7 6.5 -11.5t12.5 -4.5h2.5h2.5q8 2 12.5 9t2.5 15z" />
    <glyph glyph-name="uniE91A" unicode="&#xe91a;" 
d="M331 953q-36 0 -61 -25.5t-25 -60.5q0 -36 25 -61t61 -25q35 0 60.5 25t25.5 61q0 35 -25.5 60.5t-60.5 25.5zM331 821q-19 0 -32.5 13.5t-13.5 32.5t13.5 32.5t32.5 13.5t32.5 -13.5t13.5 -32.5t-13.5 -32.5t-32.5 -13.5zM720 953q-35 0 -60 -25.5t-25 -60.5
q0 -36 25 -61t60 -25q36 0 61 25t25 61q0 35 -25 60.5t-61 25.5zM720 821q-19 0 -32 13.5t-13 32.5t13 32.5t32 13.5t32.5 -13.5t13.5 -32.5t-13.5 -32.5t-32.5 -13.5zM1004 -17h-102l-1 429q0 8 -6 14t-14 6v0v0q-9 0 -14.5 -6t-5.5 -14v-429h-124l-1 468v2v2v22
q0 15 -2 29.5t-7 28.5q16 9 33.5 13.5t36.5 4.5v0v0q29 0 54.5 -10t45.5 -30q20 -19 31 -44t11 -52v-89q0 -9 6 -14.5t14 -5.5v0v0q8 0 14 6t6 14v89q0 36 -14 68t-40 57q-14 14 -30.5 24t-34.5 16q13 14 20 31t7 36q0 39 -28 67t-67 28v0v0q-40 0 -68 -28t-27 -68
q0 -19 7 -36t21 -31l0.5 -0.5t0.5 -1.5q-3 -1 -7 -3l-8 -4q-18 33 -47 56.5t-64 35.5q15 15 24 34.5t9 42.5q0 43 -31 74t-75 31q-43 0 -74 -31t-31 -74q0 -24 9.5 -44.5t26.5 -35.5q-33 -12 -59.5 -35t-43.5 -53q-5 3 -10.5 5t-11.5 4q13 13 20 30t7 37q0 39 -28 67t-67 28
t-67 -28t-28 -67q0 -21 8 -38.5t21 -30.5q-49 -21 -80 -64.5t-31 -98.5v-90q0 -8 6 -14t14 -6q9 0 14.5 6t5.5 14v90q0 56 41.5 96t100.5 40q18 0 35.5 -4t33.5 -13q-5 -14 -7 -28.5t-2 -30.5v-494h-121v428q0 9 -6 14.5t-14 5.5t-14 -5.5t-6 -14.5v-428h-149q-8 0 -14 -5.5
t-6 -14.5q0 -8 6 -14t14 -6h984q8 0 14 6t6 14q0 9 -6 14.5t-14 5.5zM792 704v0v0q23 0 39 -16t16 -39q0 -11 -4 -21.5t-12 -17.5q-8 -8 -18 -12.5t-21 -4.5v0v0q-11 0 -21 4.5t-18 11.5q-8 8 -12 18t-4 21q0 23 16 39.5t39 16.5v0zM265 593q-23 0 -39 16.5t-16 39.5
q0 22 16 38.5t39 16.5t39 -16.5t16 -38.5q0 -23 -16 -39.5t-39 -16.5zM527 806q27 0 46.5 -19t19.5 -46q0 -28 -19.5 -47t-46.5 -19t-46 19t-19 47q0 27 19 46t46 19zM421 -17h-51v247q11 -8 24 -13t27 -7v-227v0zM627 492q-8 0 -14 -6t-6 -14v-489h-57v242q0 8 -6 14t-14 6
t-14 -6t-6 -14v-242h-49v489q0 8 -5.5 14t-14.5 6q-8 0 -14 -6t-6 -14v-221q-22 3 -36.5 19t-14.5 38v169q0 16 3 31t9 29v0v0q18 45 59.5 71.5t91.5 26.5t91.5 -27t59.5 -72q6 -14 9 -28.5t3 -30.5v-169q0 -21 -14 -37t-35 -20v221q0 8 -5.5 14t-14.5 6v0zM647 -17v228
q14 1 26.5 6t23.5 13v-247h-50v0zM979 249q0 -8 -6 -14t-14 -6t-14 6t-6 14t6 14t14 6t14 -6t6 -14zM128 249q0 -8 -5.5 -14t-14.5 -6q-8 0 -14 6t-6 14t6 14t14 6q9 0 14.5 -6t5.5 -14z" />
    <glyph glyph-name="uniE91B" unicode="&#xe91b;" 
d="M521 808q-74 0 -138.5 -28t-113 -76t-76.5 -113t-28 -139q0 -73 28 -138t76.5 -113t113 -76.5t138.5 -28.5q73 0 138 28.5t113.5 76.5t76.5 113t28 138q0 74 -28 139t-76.5 113t-113.5 76t-138 28v0zM410 748q-17 -20 -31 -45.5t-25 -55.5h-82q27 34 62 60t76 41v0z
M245 607h96q-8 -31 -13 -64.5t-6 -70.5h-116q2 37 12 71t27 64v0zM206 432h116q1 -33 5 -64t11 -59h-99q-14 28 -22.5 59t-10.5 64v0zM264 269h86q11 -34 26.5 -62.5t33.5 -49.5q-44 16 -81.5 45t-64.5 67zM501 141q-25 6 -47.5 27.5t-41.5 56.5q-6 11 -11 21.5t-9 22.5h109
v-128v0zM501 309h-122q-7 29 -11.5 60t-5.5 63h139v-123v0zM501 472h-139q1 36 6.5 70t14.5 65h118v-135v0zM501 647h-104q3 9 7 17t8 15q19 35 41.5 56.5t47.5 28.5v-117zM796 607q17 -30 27.5 -64t12.5 -71h-116q-1 37 -6 70.5t-13 64.5h95v0zM769 647h-81
q-11 30 -25.5 55.5t-30.5 45.5q41 -15 76 -41t61 -60zM541 764q25 -7 47.5 -28.5t41.5 -56.5q4 -7 8 -15t7 -17h-104v117v0zM541 607h118q9 -31 14 -65t7 -70h-139v135zM541 432h139q-1 -32 -5.5 -63t-12.5 -60h-121v123zM541 141v128h109q-5 -12 -10 -22.5t-10 -21.5
q-19 -35 -41.5 -56.5t-47.5 -27.5zM632 157q18 21 33.5 49.5t26.5 62.5h86q-27 -38 -64.5 -67t-81.5 -45zM704 309q6 28 10.5 59t5.5 64h116q-2 -33 -10.5 -64t-23.5 -59h-98zM932 960q-36 0 -61.5 -25.5t-25.5 -61.5q0 -37 25.5 -62.5t61.5 -25.5q37 0 62.5 25.5t25.5 62.5
q0 36 -25.5 61.5t-62.5 25.5zM932 825q-19 0 -33 14t-14 34q0 19 14 33t33 14q20 0 34 -14t14 -33q0 -20 -14 -34t-34 -14zM92 960q-37 0 -62.5 -25.5t-25.5 -61.5q0 -37 25.5 -62.5t62.5 -25.5q36 0 61.5 25.5t25.5 62.5q0 36 -25.5 61.5t-61.5 25.5zM92 825q-20 0 -34 14
t-14 34q0 19 14 33t34 14q19 0 33 -14t14 -33q0 -20 -14 -34t-33 -14zM932 111q-36 0 -61.5 -25.5t-25.5 -62.5q0 -36 25.5 -61.5t61.5 -25.5q37 0 62.5 25.5t25.5 61.5q0 37 -25.5 62.5t-62.5 25.5zM932 -24q-19 0 -33 14t-14 33q0 20 14 34t33 14q20 0 34 -14t14 -34
q0 -19 -14 -33t-34 -14zM92 111q-37 0 -62.5 -25.5t-25.5 -62.5q0 -36 25.5 -61.5t62.5 -25.5q36 0 61.5 25.5t25.5 61.5q0 37 -25.5 62.5t-61.5 25.5v0zM92 -24q-20 0 -34 14t-14 33q0 20 14 34t34 14q19 0 33 -14t14 -34q0 -19 -14 -33t-33 -14zM224 758q0 -8 -6 -14
t-14 -6t-14 6t-6 14t6 14t14 6t14 -6t6 -14zM222 141q0 -8 -5.5 -14t-14.5 -6q-8 0 -14 6t-6 14q0 9 6 14.5t14 5.5q9 0 14.5 -5.5t5.5 -14.5zM847 139q0 -9 -6 -14.5t-14 -5.5t-14 5.5t-6 14.5q0 8 6 14t14 6t14 -6t6 -14zM847 758q0 -8 -6 -14t-14 -6t-14 6t-6 14t6 14
t14 6t14 -6t6 -14z" />
    <glyph glyph-name="uniE91C" unicode="&#xe91c;" 
d="M914 70h-248v106q0 8 -6 14t-14 6h-30v197q33 4 55.5 29t22.5 59v150q0 58 -33.5 103t-85.5 64q13 13 20.5 30t7.5 36q0 40 -28 68t-68 28q-39 0 -67 -28t-28 -68q0 -20 8 -38t21 -31q-49 -20 -80 -64t-31 -100v-150q0 -34 23.5 -59.5t57.5 -28.5v-197h-33q-8 0 -14 -6
t-6 -14v-54h-248q-8 0 -14 -6t-6 -14v-146q0 -8 6 -14t14 -6h804q8 0 14 6t6 14v94q0 8 -6 14t-14 6v0zM358 -24h-228v106h228v-106zM507 920q23 0 39.5 -16.5t16.5 -39.5t-16.5 -39t-39.5 -16t-39 16t-16 39t16 39.5t39 16.5zM370 481v150q0 57 41.5 97.5t100.5 40.5
t100.5 -40.5t41.5 -97.5v-150q0 -17 -11 -30t-27 -17v192q0 8 -6 14t-14 6q-9 0 -14.5 -6t-5.5 -14v-430h-43v227q0 9 -5.5 14.5t-14.5 5.5q-8 0 -14 -5.5t-6 -14.5v-227h-42v430q0 8 -6 14t-14 6t-14 -6t-6 -14v-193q-18 3 -29.5 16.5t-11.5 31.5v0zM626 50v-74h-228v180
h228v-106zM894 -24h-228v54h228v-54z" />
    <glyph glyph-name="uniE91D" unicode="&#xe91d;" 
d="M535 -44q0 -8 -6 -14t-14 -6t-14 6t-6 14t6 14t14 6t14 -6t6 -14zM535 337q0 -8 -6 -14t-14 -6t-14 6t-6 14q0 9 6 14.5t14 5.5t14 -5.5t6 -14.5zM162 585q0 -8 -6 -14t-14 -6t-14 6t-6 14t6 14t14 6t14 -6t6 -14zM902 585q0 -8 -6 -14t-14 -6t-14 6t-6 14t6 14t14 6
t14 -6t6 -14zM856 768q0 -9 -6 -14.5t-14 -5.5t-14 5.5t-6 14.5q0 8 6 14t14 6t14 -6t6 -14zM744 893q0 -9 -5.5 -14.5t-14.5 -5.5q-8 0 -14 5.5t-6 14.5q0 8 6 14t14 6q9 0 14.5 -6t5.5 -14zM532 940q0 -8 -6 -14t-14 -6q-9 0 -14.5 6t-5.5 14t5.5 14t14.5 6q8 0 14 -6
t6 -14zM333 893q0 -9 -5.5 -14.5t-14.5 -5.5q-8 0 -14 5.5t-6 14.5q0 8 6 14t14 6q9 0 14.5 -6t5.5 -14zM214 768q0 -9 -6 -14.5t-14 -5.5q-9 0 -14.5 5.5t-5.5 14.5q0 8 5.5 14t14.5 6q8 0 14 -6t6 -14zM720 792q-42 42 -96 63.5t-113 20.5q-57 -1 -109 -23t-93 -62
q-40 -41 -62.5 -92.5t-23.5 -108.5q-1 -64 24 -122t72 -100q20 -19 31 -44t11 -52v-40q0 -18 8.5 -33.5t22.5 -25.5v-97q0 -27 19.5 -46.5t46.5 -19.5h114q27 0 46.5 19.5t19.5 46.5v97q14 10 22.5 25.5t8.5 33.5v40q0 27 11 52.5t32 43.5q45 42 70 98.5t25 117.5
q0 59 -22.5 113t-64.5 95v0zM598 76q0 -11 -7.5 -18.5t-18.5 -7.5h-114q-11 0 -18.5 7.5t-7.5 18.5v85h166v-85zM685 398q-27 -24 -41.5 -57t-14.5 -69v-40q0 -13 -9 -22t-22 -9h-63v67q0 8 -6 14t-14 6t-14 -6t-6 -14v-67h-63q-13 0 -22 9t-9 22v40q0 36 -14.5 68.5
t-40.5 56.5q-41 37 -62.5 87t-20.5 105q1 50 21 95t54 78.5t78.5 53t94.5 20.5h2h2q50 0 95.5 -18.5t81.5 -54.5q36 -35 55.5 -81.5t19.5 -97.5q0 -53 -21.5 -102t-60.5 -84v0zM515 781q-41 0 -76.5 -15.5t-62 -42t-42 -62.5t-15.5 -76q0 -8 6 -14t14 -6q9 0 14.5 6t5.5 14
q0 64 46 110t110 46t110 -46t46 -110q0 -8 5.5 -14t14.5 -6q8 0 14 6t6 14q0 40 -15.5 76t-42 62.5t-62.5 42t-76 15.5zM644 452q-7 30 -27 53.5t-48 35.5q7 9 11 20.5t4 23.5q0 30 -21.5 51t-50.5 21q-30 0 -51.5 -21t-21.5 -51q0 -13 4.5 -25t12.5 -21
q-26 -13 -44.5 -35.5t-25.5 -51.5q-1 -6 1 -11.5t6 -8.5q26 -21 57 -32t65 -11t65 11t57 32q4 3 6 8.5t1 11.5v0zM512 617q13 0 22.5 -9.5t9.5 -22.5t-9.5 -22.5t-22.5 -9.5q-14 0 -23 9.5t-9 22.5t9 22.5t23 9.5v0zM515 429q-23 0 -45 6.5t-41 19.5q10 26 33.5 42t52.5 16
t52.5 -16t33.5 -42q-19 -13 -41 -19.5t-45 -6.5z" />
    <glyph glyph-name="uniE91E" unicode="&#xe91e;" 
d="M311 476q0 -8 -6 -14t-14 -6t-14 6t-6 14t6 14t14 6t14 -6t6 -14zM425 409q0 -8 -6 -14t-14 -6t-14 6t-6 14q0 9 6 14.5t14 5.5t14 -5.5t6 -14.5zM539 533q0 -8 -6 -14t-14 -6t-14 6t-6 14q0 9 6 14.5t14 5.5t14 -5.5t6 -14.5zM650 484q0 -8 -5.5 -14t-14.5 -6
q-8 0 -14 6t-6 14t6 14t14 6q9 0 14.5 -6t5.5 -14zM761 625q0 -8 -6 -14t-14 -6q-9 0 -14.5 6t-5.5 14q0 9 5.5 14.5t14.5 5.5q8 0 14 -5.5t6 -14.5zM1004 231h-405q-8 0 -14 -6t-6 -14q0 -14 -10 -24t-24 -10h-67q-14 0 -23.5 10t-9.5 24q0 8 -6 14t-14 6h-315v518
q0 17 12 29.5t30 12.5h720q18 0 30 -12.5t12 -29.5v-385q0 -9 6 -14.5t14 -5.5q9 0 14.5 5.5t5.5 14.5v385q0 34 -24 58t-58 24h-720q-34 0 -58 -24t-24 -58v-518h-50q-8 0 -14 -6t-6 -14v-32q0 -47 33.5 -80.5t80.5 -33.5h796q47 0 80.5 33.5t33.5 80.5v32q0 8 -6 14t-14 6
zM984 179q0 -30 -21.5 -52t-52.5 -22h-796q-31 0 -52.5 22t-21.5 52v12h367q7 -24 26.5 -39t44.5 -15h67q26 0 45.5 15t25.5 39h368v-12zM852 746h-674q-8 0 -14 -6t-6 -14v-431q0 -9 6 -14.5t14 -5.5h674q9 0 14.5 5.5t5.5 14.5v431q0 8 -5.5 14t-14.5 6zM832 315h-71v239
q0 9 -6 14.5t-14 5.5q-9 0 -14.5 -5.5t-5.5 -14.5v-239h-73v89q0 8 -5.5 14t-14.5 6q-8 0 -14 -6t-6 -14v-89h-72v135q0 8 -6 14t-14 6t-14 -6t-6 -14v-135h-73v19q0 8 -5.5 14t-14.5 6q-8 0 -14 -6t-6 -14v-19h-72v79q0 8 -6 14t-14 6t-14 -6t-6 -14v-79h-73v391h634v-391
v0zM952 285q0 -8 -6 -14t-14 -6t-14 6t-6 14q0 9 6 14.5t14 5.5t14 -5.5t6 -14.5z" />
    <glyph glyph-name="uniE91F" unicode="&#xe91f;" 
d="M978 875h-64v65q0 8 -5.5 14t-14.5 6q-8 0 -14 -6t-6 -14v-76l-83 -84q-32 28 -68 50.5t-75 37.5t-80.5 23t-84.5 8q-46 0 -90 -9t-85 -26t-78.5 -42t-69.5 -57q-33 -33 -58 -70.5t-42 -78.5t-25.5 -85t-8.5 -90t8.5 -90t25.5 -85t42 -78.5t58 -69.5q10 -10 20.5 -19.5
t21.5 -18.5l-110 -110q-6 -6 -6 -14t6 -14q3 -3 6.5 -4.5t7.5 -1.5t7.5 1.5t6.5 4.5l115 115q55 -36 118 -54.5t130 -18.5t130.5 19t118.5 54l116 -115q3 -3 6.5 -4.5t7.5 -1.5t7.5 1.5t6.5 4.5q6 6 6 14t-6 14l-111 111q11 9 21.5 18t20.5 19q32 32 57 69.5t42 78.5
t25.5 85t8.5 90q0 52 -11 102t-34 97q-3 7 -11 10t-15 -1q-8 -4 -10.5 -11.5t0.5 -15.5q21 -42 31 -87.5t10 -93.5q0 -86 -32.5 -162t-89.5 -133t-133 -89.5t-162 -32.5t-162 32.5t-133 89.5t-89.5 133t-32.5 162t32.5 162t89.5 133t133 90t162 33q78 0 150 -28t129 -80
l-70 -70q-43 38 -97 58t-112 20q-66 0 -124 -25t-101 -68t-68 -101t-25 -124t25 -123.5t68 -101t101 -68.5t124 -25t124 25t101 68.5t68 101t25 123.5q0 21 -2.5 42t-8.5 42q-9 35 -27 67.5t-42 60.5l84 85v0v0v0v0l98 97h75q9 0 14.5 6t5.5 14q0 9 -5.5 14.5t-14.5 5.5v0z
M752 514q4 -18 6.5 -36t2.5 -37q0 -57 -22 -108t-59.5 -88.5t-88 -59.5t-108.5 -22q-57 0 -108 22t-88.5 59.5t-59.5 88.5t-22 108q0 58 22 108.5t59.5 88.5t88.5 59.5t108 21.5q50 0 96.5 -17t84.5 -49l-83 -83q-20 15 -45 24t-53 9q-67 0 -114.5 -47.5t-47.5 -114.5
t47.5 -114.5t114.5 -47.5t114.5 47.5t47.5 114.5q0 29 -9.5 54.5t-25.5 46.5l82 82q21 -23 36 -51t24 -59v0zM472 432q3 -3 6.5 -4.5t7.5 -1.5t7.5 1.5t6.5 4.5l81 81q12 -15 18 -33.5t6 -38.5q0 -50 -35.5 -86t-86.5 -36q-50 0 -86 36t-36 86q0 51 36 86.5t86 35.5
q20 0 37.5 -6t32.5 -16l-81 -81q-6 -6 -6 -14.5t6 -13.5v0zM858 693q0 -9 -5.5 -14.5t-14.5 -5.5q-8 0 -14 5.5t-6 14.5q0 8 6 14t14 6q9 0 14.5 -6t5.5 -14z" />
    <glyph glyph-name="uniE920" unicode="&#xe920;" 
d="M953 519q-24 0 -43 -14.5t-25 -36.5h-98q-3 46 -20.5 87t-45.5 73l69 69q7 -4 16 -6t18 -2q14 0 27 5t23 15q10 11 15.5 23.5t5.5 27.5q0 14 -5.5 27t-15.5 23t-23 15.5t-27 5.5q-15 0 -27.5 -5.5t-23.5 -15.5q-10 -10 -15 -23t-5 -27q0 -9 2 -18t6 -16l-69 -69
q-32 28 -73 45.5t-87 20.5v98q22 6 36.5 25t14.5 43q0 29 -21 50t-50 21t-50 -21t-21 -50q0 -24 14.5 -43t36.5 -25v-98q-46 -3 -87 -20.5t-73 -45.5l-69 69q4 7 6 16t2 18q0 14 -5 27t-15 23q-11 10 -23.5 15.5t-27.5 5.5q-14 0 -27 -5.5t-23 -15.5t-15.5 -23t-5.5 -27
q0 -15 5.5 -27.5t15.5 -23.5q10 -10 23 -15t27 -5q9 0 18 2t16 6l69 -69q-28 -32 -45.5 -73t-20.5 -87h-98q-6 22 -25 36.5t-43 14.5q-29 0 -50 -21t-21 -50t21 -50t50 -21q24 0 43 14.5t25 36.5h98q3 -46 20.5 -87t45.5 -73l-69 -69q-20 11 -43.5 8t-40.5 -20
q-21 -21 -21 -50.5t21 -50.5q10 -10 23 -15.5t27 -5.5q15 0 27.5 5.5t23.5 15.5q17 17 20 40.5t-8 43.5l69 69q32 -28 73 -45.5t87 -20.5v-98q-22 -6 -36.5 -25t-14.5 -43q0 -29 21 -50t50 -21t50 21t21 50q0 24 -14.5 43t-36.5 25v98q42 3 80.5 18t69.5 40q1 0 2 1l1 1
q2 2 4 3.5t3 2.5l69 -69q-11 -20 -8 -43.5t20 -40.5q11 -10 23.5 -15.5t27.5 -5.5q14 0 27 5.5t23 15.5q21 21 21 50.5t-21 50.5q-17 17 -40.5 20t-43.5 -8l-69 69q28 32 45.5 73t20.5 87h98q6 -22 25 -36.5t43 -14.5q29 0 50 21t21 50t-21 50t-50 21v0zM802 782q4 4 10 6.5
t12 2.5t11.5 -2.5t10.5 -6.5q9 -9 9 -22t-9 -22q-5 -5 -10.5 -7t-11.5 -2t-12 2t-10 7v0v0v0v0q-5 4 -7 10t-2 12t2 11.5t7 10.5zM222 738q-9 -9 -22 -9t-22 9t-9 22t9 22q5 4 10.5 6.5t11.5 2.5t12 -2.5t10 -6.5q9 -9 9 -22t-9 -22zM71 417q-13 0 -22 9t-9 22t9 22t22 9
t22 -9t9 -22t-9 -22t-22 -9zM222 114q-4 -4 -10 -6.5t-12 -2.5t-11.5 2.5t-10.5 6.5q-9 9 -9 22t9 22q5 5 10.5 7t11.5 2t12 -2t10 -7q9 -9 9 -22t-9 -22zM802 158v0v0v0v0q4 5 10 7t12 2t11.5 -2t10.5 -7q9 -9 9 -22t-9 -22q-5 -4 -10.5 -6.5t-11.5 -2.5t-12 2.5t-10 6.5
q-9 9 -9 22t9 22zM481 889q0 13 9 22t22 9t22 -9t9 -22t-9 -22t-22 -9t-22 9t-9 22v0zM543 7q0 -13 -9 -22t-22 -9t-22 9t-9 22t9 22t22 9t22 -9t9 -22zM681 283q-9 20 -22.5 37.5t-31.5 31.5q-11 9 -24 16.5t-27 12.5q12 13 19.5 30t7.5 37q0 40 -28 68t-68 28t-68 -28
t-28 -68q0 -21 8 -39t22 -31q-13 -5 -25.5 -12.5t-24.5 -17.5q-6 -5 -6.5 -13.5t4.5 -14.5q6 -7 14 -7.5t14 5.5q20 16 44.5 25t50.5 9q47 0 85 -27t51 -70q-28 -20 -63 -31.5t-73 -11.5q-49 0 -92 18.5t-75 50.5t-50.5 75t-18.5 92t18.5 92t50.5 75t75 50.5t92 18.5
t92 -18.5t75 -50.5t50.5 -75t18.5 -92q0 -48 -18 -90.5t-49 -74.5v0zM563 448q0 -23 -16.5 -39.5t-39.5 -16.5t-39.5 16.5t-16.5 39.5t16.5 39.5t39.5 16.5t39.5 -16.5t16.5 -39.5v0zM953 417q-13 0 -22 9t-9 22t9 22t22 9t22 -9t9 -22t-9 -22t-22 -9zM391 297
q0 -9 -6 -14.5t-14 -5.5t-14 5.5t-6 14.5q0 8 6 14t14 6t14 -6t6 -14z" />
    <glyph glyph-name="uniE921" unicode="&#xe921;" 
d="M619 767q-29 29 -66 43.5t-77 14.5q-39 -1 -75 -16t-63 -43q-28 -27 -43.5 -63t-16.5 -75q0 -43 17 -83t49 -69q12 -11 19 -26.5t7 -31.5v-27q0 -13 5.5 -24t14.5 -18v-61q0 -21 15 -35.5t36 -14.5h75q21 0 36 14.5t15 35.5v61q9 7 14.5 18t5.5 24v27q0 16 7 31.5
t19 26.5q32 29 49 67.5t17 80.5q0 41 -15.5 78t-44.5 65v0zM516 278h-75q-4 0 -7.5 3t-3.5 7v50h97v-50v0q0 -4 -3 -7t-8 -3zM587 506q-19 -17 -29.5 -40t-10.5 -48v-27q0 -5 -4 -9t-9 -4h-111q-5 0 -9 4t-4 9v27q0 25 -10.5 48t-28.5 40q-26 23 -39.5 55t-13.5 67
q2 64 48 110t110 47h1.5h1.5q31 0 60 -12t52 -34q23 -23 35.5 -52.5t12.5 -62.5t-14 -64t-38 -54v0zM875 433l-62 114v77q0 70 -26.5 131t-72 106.5t-106.5 72t-131 26.5q-69 0 -130 -26.5t-106.5 -72t-72 -106.5t-26.5 -131v-57q0 -54 15.5 -104.5t46.5 -94.5v-165
q0 -8 6 -14t14 -6t14 6t6 14v172q0 3 -1 6t-3 6q-28 39 -43 85t-15 95v57q0 62 23 115.5t63 93.5t94 63.5t115 23.5t115 -23.5t94 -63.5t63.5 -93.5t23.5 -115.5v-82q0 -3 0.5 -5.5t1.5 -4.5l65 -118q3 -7 2 -12t-3 -8q-1 -2 -5 -5.5t-11 -3.5h-1v0h-29q-4 0 -8 -1.5
t-6 -4.5q-3 -3 -4.5 -6.5t-1.5 -7.5v-89q0 -36 -25.5 -61.5t-61.5 -25.5h-60q-20 0 -34.5 -14.5t-14.5 -34.5v-153l-272 122q-8 4 -15.5 1t-11.5 -11q-3 -7 0 -15t10 -11l301 -135q2 -1 4 -1.5t4 -0.5q3 0 5.5 1t5.5 2q4 3 6.5 7.5t2.5 9.5v184q0 4 2.5 6.5t6.5 2.5h60
q53 0 90 37t37 90v69h9v0v0q16 0 30 7.5t22 21.5t8.5 29.5t-7.5 29.5v0zM246 125q0 -8 -6 -14t-14 -6t-14 6t-6 14t6 14t14 6t14 -6t6 -14z" />
    <glyph glyph-name="uniE922" unicode="&#xe922;" 
d="M1024 741q0 -8 -6 -14t-14 -6t-14 6t-6 14q0 9 6 14.5t14 5.5t14 -5.5t6 -14.5zM611 139h-77q-9 0 -15 -6t-6 -14q0 -9 6 -14.5t15 -5.5h77q9 0 15.5 -6.5t6.5 -15.5t-6.5 -15.5t-15.5 -6.5h-209q-23 0 -44.5 10t-36.5 28l-50 60q-20 24 -48 38t-59 15v118h73
q28 0 53 -10.5t44 -29.5l108 -104q6 -5 6 -13t-5 -14q-6 -6 -14 -6.5t-14 5.5l-85 77q-6 6 -14 5.5t-14 -6.5q-5 -6 -5 -14.5t6 -13.5l85 -78q9 -8 19 -11.5t21 -3.5q12 0 23.5 4.5t20.5 14.5q17 18 16 42t-18 41l-108 104q-25 25 -57.5 38t-67.5 13h-77q-5 13 -17.5 22
t-28.5 9h-94q-8 0 -14 -6t-6 -14v-147q0 -8 6 -14t14 -6t14 6t6 14v127h74q4 0 7 -3t3 -7v-160q0 -4 -3 -7t-7 -3h-21q-8 0 -14 -5.5t-6 -14.5q0 -8 6 -14t14 -6h21q16 0 28 8.5t18 22.5q23 -1 44.5 -10.5t35.5 -27.5l50 -60q21 -25 50.5 -39t61.5 -14h209q26 0 44 18t18 44
q0 25 -18 43.5t-44 18.5v0zM737 277q-6 6 -14.5 5.5t-14.5 -6.5v0v0q-5 -6 -4.5 -14.5t6.5 -13.5q3 -3 6.5 -4.5t6.5 -1.5q4 0 8 2t7 5l-15 14l15 -14q6 6 5.5 14.5t-6.5 13.5v0zM695 234q-5 7 -13 8t-15 -4t-8.5 -13t3.5 -15q3 -4 7.5 -6t9.5 -2q3 0 6 1t5 3h1q6 5 7.5 13
t-3.5 15v0zM645 200q-4 8 -11.5 11t-15.5 -1q-7 -3 -10 -10.5t0 -15.5q2 -5 7.5 -8.5t10.5 -3.5q2 0 4 0.5t4 1.5h0.5h0.5q7 3 10 11t0 15v0zM589 178q-2 8 -9 12.5t-15 3.5q-8 -2 -12.5 -9t-3.5 -15q2 -7 7.5 -11.5t12.5 -4.5h2h2v0v0q8 2 12.5 9t3.5 15v0zM814 490l-20 -4
l20 4q-2 8 -9 12.5t-15 3.5q-8 -2 -12.5 -9t-3.5 -15v0q2 -7 7.5 -11.5t12.5 -4.5h2h2q8 2 12.5 9t3.5 15v0zM795 446q-8 1 -14.5 -4.5t-6.5 -13.5v-0.5v-0.5q-1 -8 4.5 -14.5t13.5 -6.5h0.5h1.5q7 0 13 5t7 13l-20 2l20 -2q0 9 -5 15t-14 7v0zM768 329q-7 4 -15 2t-12 -10
q-4 -7 -2 -15t9 -12q3 -1 5.5 -2t4.5 -1q5 0 10 3t8 7v0.5v0.5q4 7 1.5 15t-9.5 12v0zM788 386q-8 2 -15.5 -1.5t-9.5 -11.5q-3 -8 1 -15.5t12 -9.5q2 -1 3.5 -1h2.5q7 0 12 3.5t7 10.5v0q3 8 -1 15.5t-12 9.5v0zM259 389q-2 8 -8.5 12.5t-15.5 2.5q-8 -2 -12.5 -9t-2.5 -15
v0q2 -7 7.5 -11.5t12.5 -4.5q1 0 2 0.5t3 0.5q8 2 12 9t2 15v0zM264 580q-8 3 -15.5 0.5t-11.5 -10.5v-1q-3 -7 0 -15t11 -11q1 -1 3 -1h4q6 0 11 3t8 9q3 7 0 15t-10 11zM242 524q-8 2 -15 -2.5t-9 -13.5v0q-2 -8 3 -15t13 -9h2h2q7 0 12.5 4.5t6.5 11.5q2 8 -2.5 15
t-12.5 9zM297 630q-7 5 -15 3.5t-13 -7.5l16 -12l-16 12q-5 -7 -3.5 -15t7.5 -13q3 -2 6 -3t6 -1q5 0 9 2t7 6h1q4 7 3 15t-8 13v0zM341 672q-6 6 -14.5 6.5t-14.5 -4.5v0v0q-6 -6 -6.5 -14t5.5 -15q3 -3 6.5 -4.5t8.5 -1.5q3 0 6.5 1t6.5 4q6 5 6.5 13.5t-4.5 14.5v0z
M392 704q-4 7 -12 9.5t-15 -1.5q0 -1 -0.5 -1h-0.5q-7 -4 -9 -12t2 -15q3 -5 7.5 -7.5t9.5 -2.5q3 0 5.5 0.5t4.5 2.5q7 4 9.5 12t-1.5 15zM449 724q-3 8 -10.5 12t-14.5 1l5 -19l-5 19q-8 -2 -12 -9.5t-2 -15.5q2 -6 7.5 -10t11.5 -4h3.5t2.5 1h0.5h0.5q8 3 11.5 10t1.5 15
zM509 731q-1 9 -7.5 14t-14.5 5v0q-9 -1 -14 -7.5t-4 -14.5q0 -8 6 -13t14 -5h0.5h0.5q9 0 14 6.5t5 14.5v0zM252 445q0 8 -6 14t-14 5q-9 0 -14.5 -6t-5.5 -14h20h-20q0 -8 6 -14t14 -6v0h1q8 0 13.5 6t5.5 14v0.5v0.5v0zM533 470h-42q-12 0 -21 8.5t-9 21.5v24
q0 13 9 21.5t21 8.5h46q11 0 18.5 -7.5t7.5 -18.5q0 -8 6 -14t14 -6t14 6t6 14q0 28 -19.5 47.5t-46.5 19.5h-5v29q0 9 -6 14.5t-14 5.5t-14 -5.5t-6 -14.5v-29h-1q-29 0 -49.5 -21t-20.5 -50v-24q0 -29 20.5 -50t49.5 -21h26v0v0h16q12 0 21 -8.5t9 -21.5v-24
q0 -13 -9 -21.5t-21 -8.5h-46q-11 0 -18.5 7.5t-7.5 18.5q0 8 -6 14t-14 6t-14 -6t-6 -14q0 -28 19.5 -47.5t46.5 -19.5h5v-29q0 -9 6 -14.5t14 -5.5t14 5.5t6 14.5v29h1q29 0 49.5 21t20.5 50v24q0 29 -20.5 50t-49.5 21v0zM1004 696q-8 0 -14 -6t-6 -14v-134h-74
q-4 0 -7 3t-3 7v160q0 4 3 6.5t7 2.5h19q8 0 14 6t6 14q0 9 -6 14.5t-14 5.5h-19q-16 0 -28.5 -8.5t-17.5 -22.5q-24 1 -45 10.5t-36 27.5l-49 60q-21 25 -50.5 39t-61.5 14h-209q-26 0 -44 -18t-18 -44q0 -25 18 -43.5t44 -18.5h85q9 0 14.5 6t5.5 14q0 9 -5.5 14.5
t-14.5 5.5h-85q-9 0 -15.5 6.5t-6.5 15.5t6.5 15.5t15.5 6.5h209q23 0 44.5 -10t36.5 -28l50 -60q20 -24 48 -38t59 -15v-118h-73q-28 0 -53 10.5t-44 29.5l-108 104q-6 5 -6 13t5 14q6 6 14 6.5t14 -5.5l85 -77q6 -6 14 -5.5t14 6.5q5 6 5 14.5t-6 13.5l-85 78
q-18 16 -43 15t-41 -19q-17 -18 -16 -42t18 -41l108 -104q25 -25 57.5 -38t67.5 -13h77q6 -13 18 -21.5t28 -8.5h94q8 0 14 6t6 14v154q0 8 -6 14t-14 6v0zM40 155q0 -8 -6 -14t-14 -6t-14 6t-6 14q0 9 6 14.5t14 5.5t14 -5.5t6 -14.5z" />
    <glyph glyph-name="uniE923" unicode="&#xe923;" 
d="M933 576q0 -8 -5.5 -14t-14.5 -6q-8 0 -14 6t-6 14q0 9 6 14.5t14 5.5q9 0 14.5 -5.5t5.5 -14.5zM404 460q0 -8 -5.5 -14t-14.5 -6q-8 0 -14 6t-6 14q0 9 6 14.5t14 5.5q9 0 14.5 -5.5t5.5 -14.5zM964 803h-155q-7 41 -39.5 69t-75.5 28t-75 -28t-40 -69h-155
q-25 0 -42.5 -17.5t-17.5 -41.5v-101h-111q8 11 13 25t5 30q0 39 -28 66.5t-67 27.5t-67 -27.5t-28 -66.5q0 -21 8 -38.5t21 -30.5q-48 -20 -79 -63.5t-31 -98.5v-149q0 -34 23 -59t57 -28v-195h-50q-8 0 -14 -5.5t-6 -14.5q0 -8 6 -14t14 -6h551v0v0v0v0h239v0v0h0.5h0.5
h164q8 0 14 6t6 14q0 9 -6 14.5t-14 5.5h-150l-57 171h186q25 0 42.5 17.5t17.5 42.5v477q0 24 -17.5 41.5t-42.5 17.5v0zM694 860q27 0 47 -16t27 -41h-148q7 25 27.5 41t46.5 16v0zM176 752q22 0 38.5 -16t16.5 -38q0 -23 -16.5 -39t-38.5 -16q-23 0 -39 16t-16 39
q0 22 16 38t39 16v0zM244 539v-503h-42v225q0 8 -6 14t-14 6t-14 -6t-6 -14v-225h-42v426q0 8 -5.5 14t-14.5 6q-8 0 -14 -6t-6 -14v-191q-17 3 -28.5 16.5t-11.5 30.5v149q0 56 41 96t100 40h367q-6 -19 -22.5 -31.5t-38.5 -12.5h-223q-9 0 -14.5 -6t-5.5 -14v0zM793 36
h-184l57 171h69zM984 267q0 -8 -5.5 -14t-14.5 -6h-48.5h-107h-107.5h-49h-228q-8 0 -14 6t-6 14v117q0 8 -5.5 14t-14.5 6q-8 0 -14 -6t-6 -14v-117q0 -25 17.5 -42.5t42.5 -17.5h200l-57 -171h-283v483h203q43 0 73.5 30.5t30.5 73.5q0 8 -5.5 14t-14.5 6h-167v101
q0 8 6 13.5t14 5.5h540q9 0 14.5 -5.5t5.5 -13.5v-477v0zM866 529q-6 6 -14 6t-14 -6l-86 -85l-31 31q-6 6 -14 6t-14 -6l-111 -110l-30 30q-3 3 -7 4.5t-8 1.5t-7.5 -1.5t-6.5 -4.5l-57 -57q-6 -6 -6 -14t6 -14q3 -3 6.5 -4.5t7.5 -1.5t7.5 1.5t6.5 4.5l43 43l31 -31
q6 -6 14.5 -6t14.5 6l110 111l31 -32q6 -6 14.5 -6t13.5 6l100 100q6 6 6 14.5t-6 13.5z" />
    <glyph glyph-name="uniE924" unicode="&#xe924;" 
d="M315 916q0 -8 -5.5 -14t-14.5 -6q-8 0 -14 6t-6 14q0 9 6 14.5t14 5.5q9 0 14.5 -5.5t5.5 -14.5zM848 574q0 -9 -6 -14.5t-14 -5.5t-14 5.5t-6 14.5q0 8 6 14t14 6t14 -6t6 -14zM452 578q0 -8 -5.5 -14t-14.5 -6q-8 0 -14 6t-6 14q0 9 6 14.5t14 5.5q9 0 14.5 -5.5
t5.5 -14.5zM1022 582q-2 5 -7 8.5t-11 3.5h-91q-8 0 -14 -6t-6 -14q0 -9 6 -14.5t14 -5.5h46l-119 -131q-4 -5 -5 -10.5t1 -11.5l58 -136h-436l31 124h212q7 0 12.5 4.5t7.5 11.5l80 328q1 5 0 9.5t-4 7.5q-3 4 -7 6t-9 2h-466l7 31q4 13 1.5 25.5t-10.5 22.5q-7 9 -18.5 14
t-23.5 5q-25 0 -46 -16.5t-27 -41.5l-14 -55v0v0l-183 -755q-2 -7 1.5 -14t11.5 -10q7 -2 14.5 -3t15.5 -1q12 0 24 3t23 9q18 10 30.5 26t17.5 36l86 355h223l-35 -139q-1 -5 0 -9.5t4 -7.5q2 -4 6.5 -6t8.5 -2h492q5 0 9.5 2.5t7.5 6.5q2 4 2.5 9t-1.5 10l-64 152l141 155
q4 4 5 10t-2 12v0zM237 789q2 11 12.5 19t21.5 8q2 0 5.5 -0.5t5.5 -3.5q2 -2 2.5 -5.5t-0.5 -8.5l-10 -40h-45zM100 44q-3 -12 -10 -21.5t-18 -15.5q-6 -4 -13 -5.5t-14 -1.5l94 389h45l-84 -345v0zM149 429l32 129h167q8 0 14 6t6 14q0 9 -6 14.5t-14 5.5h-158l29 120h537
l-71 -289h-536v0z" />
    <glyph glyph-name="uniE925" unicode="&#xe925;" 
d="M1012 516l-174 197q-3 4 -7 5.5t-8 1.5h-622q-4 0 -8 -1.5t-7 -5.5l-174 -197q-4 -4 -5 -10t1 -11q1 -2 2.5 -4t3.5 -3v0v0l483 -545q3 -3 7 -5t8 -2t8 2t7 5l483 545v0v0q2 1 3.5 3t2.5 4q2 5 1 11t-5 10zM787 680l-88 -143l-143 143h231zM656 523h-288l144 145z
M468 680l-143 -143l-88 143h231zM198 666l89 -143h-216l127 143v0zM71 483h237l163 -451zM554 33l114 309q3 8 -0.5 15.5t-11.5 10.5q-8 2 -15.5 -1t-10.5 -11l-118 -320l-162 447h603l-399 -450v0zM737 523l89 143l127 -143h-216v0zM512 960q-8 0 -14 -6t-6 -14v-103
q0 -8 6 -14t14 -6t14 6t6 14v103q0 8 -6 14t-14 6zM694 881q-6 6 -14 6t-14 -6l-73 -73q-6 -6 -6 -14t6 -14q3 -3 6.5 -4.5t7.5 -1.5t7.5 1.5t6.5 4.5l73 73q6 6 6 14t-6 14zM427 808l-73 73q-6 6 -14 6t-14 -6t-6 -14t6 -14l73 -73q3 -3 6.5 -4.5t7.5 -1.5t7.5 1.5t6.5 4.5
q6 6 6 14t-6 14zM695 423q0 -8 -6 -14t-14 -6t-14 6t-6 14q0 9 6 14.5t14 5.5t14 -5.5t6 -14.5z" />
    <glyph glyph-name="uniE926" unicode="&#xe926;" 
d="M257 318q0 -8 -6 -14t-14 -6t-14 6t-6 14q0 9 6 14.5t14 5.5t14 -5.5t6 -14.5zM1024 485v2q0 35 -24.5 59.5t-59.5 24.5h-240q23 41 35.5 85t13.5 91v16v16v11.5v12.5q0 32 -23 55t-56 23q-6 1 -23 -2.5t-33 -20.5q-7 -7 -12 -16.5t-7 -20.5q-4 -20 -9.5 -37.5
t-12.5 -32.5q-25 -56 -59.5 -102.5t-79.5 -82.5q-12 -10 -24.5 -19t-25.5 -17q-5 18 -20 29.5t-34 11.5h-310q-8 0 -14 -5.5t-6 -14.5v-516q0 -9 6 -14.5t14 -5.5h310q22 0 38 14.5t18 36.5q28 -25 63.5 -38t74.5 -13h416q35 0 59.5 24.5t24.5 59.5q0 19 -8 35.5t-22 27.5
q14 12 22 28.5t8 35.5v3q0 19 -8 35.5t-22 28.5q14 12 22 28.5t8 35.5v0q0 20 -8 36.5t-22 27.5q14 12 22 28.5t8 35.5v0zM346 497v0v0v-426q0 -7 -5 -11.5t-11 -4.5h-73v174q0 8 -6 14t-14 6t-14 -6t-6 -14v-174h-177v476h290q6 0 11 -4.5t5 -11.5v-18v0zM885 401h55
q18 0 31 -12.5t13 -31.5v0q0 -18 -13 -31t-31 -13h-55q-9 0 -14.5 -6t-5.5 -14t5.5 -14t14.5 -6h55q18 0 31 -13t13 -31v-3q0 -18 -13 -31t-31 -13h-55q-9 0 -14.5 -5.5t-5.5 -14.5q0 -8 5.5 -14t14.5 -6h55q18 0 31 -12.5t13 -30.5q0 -19 -13 -31.5t-31 -12.5h-416
q-34 0 -64.5 12t-54.5 36l-19 18v364q19 11 37.5 23.5t35.5 26.5q49 39 86.5 89.5t64.5 110.5q7 17 13 36.5t11 41.5q1 5 3.5 9.5t5.5 7.5q7 8 15.5 9.5t10.5 1.5h0.5h0.5q16 0 27.5 -11t11.5 -27v-12.5v-11.5v-16v-16q-1 -49 -16.5 -96t-45.5 -88q-3 -4 -3.5 -10t2.5 -11
q2 -5 7 -8t11 -3h276q18 0 31 -12.5t13 -31.5v-2v0q0 -18 -13 -31t-31 -13h-55q-9 0 -14.5 -5.5t-5.5 -14.5q0 -8 5.5 -14t14.5 -6v0z" />
    <glyph glyph-name="uniE927" unicode="&#xe927;" 
d="M947 581v0l-45 5q-4 10 -8 20.5t-9 19.5l28 36q21 26 21 57t-21 52l-78 78q-21 21 -52 21t-57 -21l-36 -28q-10 5 -20 9l-20 8l-5 45q-4 33 -26.5 55t-51.5 22h-110q-29 0 -51.5 -22t-26.5 -55l-5 -45q-10 -4 -20.5 -8t-19.5 -9l-36 28q-26 21 -57 21t-52 -21l-78 -78
q-21 -21 -21 -52t21 -57l28 -36q-5 -9 -9 -19.5t-8 -20.5l-45 -5q-33 -4 -55 -26.5t-22 -51.5v-110q0 -29 22 -51.5t55 -26.5l45 -5l8 -20t9 -20l-28 -36q-21 -26 -21 -57t21 -52l78 -78q21 -21 52 -21t57 21l36 28q9 -5 19.5 -9t20.5 -8l5 -45q4 -33 26.5 -55t51.5 -22h110
q29 0 51.5 22t26.5 55l5 45q10 4 20.5 8t19.5 9l36 -28q26 -21 57 -21t52 21l78 78q21 21 21 52t-21 57l-28 36q5 10 9 20l8 20l45 5q33 4 55 26.5t22 51.5v110q0 29 -22 51.5t-55 26.5v0zM984 393q0 -14 -12 -25t-30 -13l-57 -7q-6 0 -10.5 -4t-6.5 -9q-5 -15 -11 -30
t-13 -29q-3 -5 -2.5 -11t4.5 -10l36 -46q11 -14 12 -30t-9 -26l-78 -78q-10 -10 -26 -9t-30 12l-46 36q-4 4 -10 4.5t-11 -2.5q-14 -7 -29 -13t-30 -11q-5 -2 -9 -6.5t-4 -10.5l-7 -57q-2 -18 -13 -30t-25 -12h-110q-14 0 -25 12t-13 30l-7 57q0 6 -4 10.5t-9 6.5
q-15 5 -30 11t-29 13q-2 1 -4 1.5t-5 0.5t-6.5 -1t-5.5 -3l-46 -36q-14 -11 -30 -12t-26 9l-78 78q-10 10 -9 26t12 30l36 46q4 4 4.5 10t-2.5 11q-7 14 -13 29t-11 30q-2 5 -6.5 9t-10.5 4l-57 7q-18 2 -30 13t-12 25v110q0 14 12 25t30 13l57 7q6 0 10.5 4t6.5 9
q5 15 11 30t13 29q3 5 2.5 11t-4.5 10l-36 46q-11 14 -12 30t9 26l78 78q10 10 26 9t30 -12l46 -36q4 -4 10 -4.5t11 2.5q14 7 29 13t30 11q5 2 9 6.5t4 10.5l7 57q2 18 13 30t25 12h110q14 0 25 -12t13 -30l7 -57q0 -6 4 -10.5t9 -6.5q15 -5 30 -11t29 -13q5 -3 11 -2.5
t10 4.5l46 36q14 11 30 12t26 -9l78 -78q10 -10 9 -26t-12 -30l-36 -46q-4 -4 -4.5 -10t2.5 -11q7 -14 13 -29t11 -30q2 -5 6.5 -9t10.5 -4l57 -7q18 -2 30 -13t12 -25v-110zM512 649q-42 0 -78.5 -16t-63.5 -43t-43 -63.5t-16 -78.5t16 -78.5t43 -63.5t63.5 -43t78.5 -16
t78.5 16t63.5 43t43 63.5t16 78.5t-16 78.5t-43 63.5t-63.5 43t-78.5 16zM512 287q-66 0 -113.5 47.5t-47.5 113.5t47.5 113.5t113.5 47.5t113.5 -47.5t47.5 -113.5t-47.5 -113.5t-113.5 -47.5zM801 468q-8 0 -14 -6t-6 -14q0 -44 -13.5 -85t-38.5 -74.5t-60 -59t-77 -38.5
q-8 -2 -12 -9.5t-1 -15.5q2 -6 7 -10t12 -4q1 0 2.5 0.5t3.5 0.5q46 14 86 42.5t69 67.5q31 40 46.5 87.5t15.5 97.5q0 8 -6 14t-14 6v0zM528 164q0 -9 -6 -14.5t-14 -5.5t-14 5.5t-6 14.5q0 8 6 14t14 6t14 -6t6 -14z" />
    <glyph glyph-name="uniE928" unicode="&#xe928;" 
d="M993 658l-141 160q-3 4 -7 5.5t-8 1.5h-547v66q0 29 -20.5 49t-48.5 20q-29 0 -49 -20t-20 -49v-800h-42q-19 0 -32 -13t-13 -32v-70h-36q-8 0 -14 -6t-6 -14t6 -14t14 -6h381q9 0 14.5 6t5.5 14t-5.5 14t-14.5 6h-33v70q0 19 -13.5 32t-31.5 13h-42v142q0 9 -6 14.5
t-14 5.5q-9 0 -14.5 -5.5t-5.5 -14.5v-142h-58v285h645q4 0 8 2t7 5l141 160q22 25 22 58t-22 57v0zM270 51v0h62q2 0 3.5 -1.5t1.5 -3.5v-70h-232v70q0 2 1.5 3.5t3.5 1.5h160v0zM192 891q0 12 8.5 20.5t20.5 8.5t20.5 -8.5t8.5 -20.5v-66h-58v66zM963 570l-135 -154h-636
v369h78v0v0v0v0h558l135 -153q12 -14 12 -31.5t-12 -30.5v0zM270 730q-9 0 -14.5 -6t-5.5 -14v-226q0 -8 5.5 -14t14.5 -6q8 0 14 6t6 14v226q0 8 -6 14t-14 6v0zM748 697h-64q-16 0 -27 -11t-11 -27v-130q0 -16 11 -27t27 -11h64q16 0 27 11t11 27v130q0 16 -11 27t-27 11z
M746 531h-60v126h60v-126zM573 697h-64q-16 0 -27 -11t-11 -27v-143q0 -8 6 -14t14 -6t14 6t6 14v41h62q16 0 27 11t11 27v64q0 16 -11 27t-27 11zM571 597h-60v60h60v-60zM410 697q-8 0 -14 -6t-6 -14v-166q0 -8 6 -14t14 -6t14 6t6 14v166q0 8 -6 14t-14 6v0zM287 318
q0 -8 -6 -14t-14 -6t-14 6t-6 14t6 14t14 6t14 -6t6 -14z" />
    <glyph glyph-name="uniE929" unicode="&#xe929;" 
d="M773 960h-1h-2h-653q-44 0 -75 -31t-32 -74v-1v0v-843q0 -31 22 -53t53 -22h544q31 0 53 22t22 53v625h123q21 0 35.5 14.5t14.5 34.5v167q0 43 -30.5 75t-73.5 33v0zM664 855v-1v0v-843q0 -15 -10 -25t-25 -10h-544q-14 0 -24.5 10t-10.5 25v843q0 27 19.5 46.5
t47.5 19.5h570q-11 -14 -17 -30.5t-6 -34.5v0zM837 685q0 -4 -3 -6.5t-7 -2.5h-123v178q0 13 5.5 25.5t14.5 21.5q10 9 21.5 14t24.5 5h1h0.5h0.5q27 -1 46 -21t19 -47v-167v0zM275 843q-65 0 -111.5 -46.5t-46.5 -111.5q0 -66 46.5 -112t111.5 -46q66 0 112.5 46t46.5 112
q0 65 -46.5 111.5t-112.5 46.5v0zM275 567q-48 0 -83 34.5t-35 83.5t35 83.5t83 34.5q49 0 84 -34.5t35 -83.5t-35 -83.5t-84 -34.5zM275 657q-11 0 -19 8t-8 20q0 11 8 19t19 8q9 0 14.5 6t5.5 14q0 9 -5.5 14.5t-14.5 5.5q-28 0 -47.5 -19.5t-19.5 -47.5t19.5 -48
t47.5 -20q9 0 14.5 6t5.5 14t-5.5 14t-14.5 6zM561 449h-424q-8 0 -14 -6t-6 -14q0 -9 6 -14.5t14 -5.5h424q8 0 14 5.5t6 14.5q0 8 -6 14t-14 6v0zM561 364h-424q-8 0 -14 -6t-6 -14t6 -14t14 -6h424q8 0 14 6t6 14t-6 14t-14 6zM357 274h-220q-8 0 -14 -5.5t-6 -14.5
q0 -8 6 -14t14 -6h220q9 0 14.5 6t5.5 14q0 9 -5.5 14.5t-14.5 5.5zM958 228v60l33 66q2 4 2.5 9t-2.5 9l-88 176q-2 5 -7 8t-10 3h-0.5h-0.5q-5 0 -10 -3t-7 -8l-88 -177q-3 -5 -2.5 -9.5t2.5 -9.5l34 -64v-60q-25 -5 -41 -24.5t-16 -45.5v-0.5v-1.5l21 -202q0 -8 6 -13
t14 -5h176q7 0 13 5t6 13l21 202v1.5v0.5q0 26 -16 45.5t-40 24.5v0zM866 454v-84q0 -8 5.5 -14t14.5 -6q8 0 14 6t6 14v85l45 -92l-26 -50h-79l-26 49zM918 273v-43h-64v43h64zM955 -24h-139l-19 183q1 13 10 22t22 9h113q13 0 22 -9t10 -22l-19 -183v0zM361 75
q-4 8 -12 10t-15 -2q-3 -2 -7 -1.5t-7 3.5q-10 9 -24 11.5t-28 -1.5l-34 -13q-1 0 -3 0.5t-3 2.5l-5 4q-9 10 -22 13.5t-26 -0.5l-39 -12q-8 -2 -12 -9.5t-1 -15.5q2 -8 9.5 -11.5t15.5 -1.5l39 12q2 1 4 0.5t3 -2.5l5 -5q9 -10 22 -13.5t25 0.5h1v0l35 13q3 1 6 0.5t6 -2.5
q7 -7 16 -10t18 -3q7 0 13 1.5t12 4.5q7 4 9.5 12t-1.5 15v0zM420 69q0 -8 -5.5 -14t-14.5 -6q-8 0 -14 6t-6 14t6 14t14 6q9 0 14.5 -6t5.5 -14z" />
    <glyph glyph-name="uniE92A" unicode="&#xe92a;" 
d="M873 880h-263q-7 34 -34.5 57t-63.5 23t-63.5 -23t-34.5 -57h-263q-22 0 -37.5 -15.5t-15.5 -37.5v-569q0 -22 15.5 -38t37.5 -16h250l-81 -242q-3 -7 1 -14.5t12 -10.5q1 0 3 -0.5t3 -0.5q6 0 11.5 3.5t7.5 10.5l85 254h138l85 -254q2 -7 7.5 -10.5t11.5 -3.5q1 0 3 0.5
t3 0.5q8 3 12 10.5t1 14.5l-81 242h250q22 0 37.5 16t15.5 38v569q0 22 -15.5 37.5t-37.5 15.5v0zM512 920q19 0 34.5 -11t21.5 -29h-112q6 18 21.5 29t34.5 11zM886 258q0 -6 -4 -10t-9 -4h-53v285q0 9 -5.5 14.5t-14.5 5.5q-8 0 -14 -5.5t-6 -14.5v-285h-61v224q0 8 -6 14
t-14 6q-9 0 -14.5 -6t-5.5 -14v-224h-56v159q0 8 -6 14t-14 6q-9 0 -14.5 -6t-5.5 -14v-159h-51v209q0 9 -6 14.5t-14 5.5t-14 -5.5t-6 -14.5v-209h-58v110q0 8 -6 14t-14 6t-14 -6t-6 -14v-110h-47v102q0 8 -5.5 14t-14.5 6q-8 0 -14 -6t-6 -14v-102h-53v79q0 8 -6 14
t-14 6t-14 -6t-6 -14v-79h-63q-5 0 -9 4t-4 10v569q0 5 4 9t9 4h722q5 0 9 -4t4 -9v-569v0zM820 746v0.5v0.5v0.5v0.5v0.5v0.5v0.5t-1 0.5v0.5v0.5v0.5v0.5v0.5t-1 0.5v0v1v0v0l-1 1v0v1h-1v0.5v0.5l-0.5 0.5l-0.5 0.5v0h-1v0.5v0.5h-0.5t-0.5 1h-0.5h-0.5v0.5t-1 0.5v0v0
l-1 1v0h-0.5h-0.5l-0.5 0.5l-0.5 0.5h-0.5h-0.5h-0.5h-0.5l-0.5 0.5l-0.5 0.5h-0.5h-0.5v0h-1v0h-1h-0.5h-0.5h-0.5h-0.5h-86q-8 0 -14 -5.5t-6 -14.5q0 -8 6 -14t14 -6h38l-166 -166l-44 44q-2 3 -6 4.5t-8 1.5t-7.5 -1.5t-6.5 -4.5l-144 -145l-43 44q-6 5 -14.5 5
t-14.5 -5l-73 -73q-5 -6 -5 -14.5t5 -14.5q3 -3 7 -4.5t8 -1.5q3 0 7 1.5t7 4.5l59 59l43 -43q5 -6 13.5 -6t14.5 6l144 144l44 -43q3 -3 6.5 -4.5t7.5 -1.5t7.5 1.5t6.5 4.5l180 180v-38q0 -8 6 -14t14 -6q9 0 14.5 6t5.5 14v86v1.5v0.5v0zM260 744q0 -8 -6 -14t-14 -6
q-9 0 -14.5 6t-5.5 14q0 9 5.5 14.5t14.5 5.5q8 0 14 -5.5t6 -14.5zM260 663q0 -9 -6 -14.5t-14 -5.5q-9 0 -14.5 5.5t-5.5 14.5q0 8 5.5 14t14.5 6q8 0 14 -6t6 -14zM260 581q0 -8 -6 -14t-14 -6q-9 0 -14.5 6t-5.5 14t5.5 14t14.5 6q8 0 14 -6t6 -14z" />
    <glyph glyph-name="uniE92B" unicode="&#xe92b;" 
d="M187 151q0 -8 -6 -14t-14 -6q-9 0 -14.5 6t-5.5 14q0 9 5.5 14.5t14.5 5.5q8 0 14 -5.5t6 -14.5zM1011 290q-13 29 -43 40.5t-59 -1.5v0h-1l-129 -59q-7 -4 -10 -11.5t1 -15.5q3 -7 11 -10t15 0l129 60q14 6 28.5 0.5t21.5 -20.5q3 -6 3 -13.5t-3 -14.5t-8 -12.5
t-12 -8.5l-264 -117q-31 -14 -65 -13t-65 16l-96 48q-39 19 -82 20t-82 -16l-2 -1l-72 163l100 45q36 15 74.5 16.5t75.5 -12.5l194 -71q13 -5 19.5 -18t1.5 -26q-5 -14 -17.5 -20t-26.5 -2l-150 51q-8 3 -15.5 -0.5t-10.5 -11.5q-2 -8 1.5 -15.5t11.5 -10.5l150 -51
q6 -2 12 -2.5t12 -0.5q23 0 43 13.5t28 36.5q10 29 -3.5 56.5t-41.5 37.5l-194 72q-44 16 -90.5 14.5t-89.5 -20.5l-101 -44q-4 6 -10 11t-14 8q-9 4 -19 3.5t-19 -4.5l-129 -57q-5 -2 -8.5 -7t-3.5 -11l-1 -348q0 -5 2.5 -9.5t7.5 -7.5q2 -2 5 -2.5t5 -0.5q3 0 5 0.5t4 1.5
l252 127q9 4 15.5 11.5t10.5 16.5q3 8 3.5 16t-1.5 15l2 1q31 14 65 13.5t65 -16.5l96 -48q39 -19 82 -20t82 17l264 116q30 13 41.5 43t-1.5 60zM276 107q-1 -2 -2.5 -3.5t-3.5 -1.5l-35 -18t-77 -39l-77 -38.5l-35 -17.5l1 86l58 28q7 4 9.5 11.5t-0.5 15.5q-4 7 -12 10
t-15 -1l-40 -20v172l117 51q2 1 4 1h4q2 -1 3.5 -2.5t2.5 -3.5l98 -222v-4v-4zM751 709h-36q-11 0 -18 7.5t-7 17.5v21q0 11 7 18t18 7h40q9 0 15 -6t6 -15q0 -8 6 -14t14 -6q9 0 14.5 6t5.5 14q0 25 -17.5 43t-43.5 18h-2v24q0 9 -6 14.5t-14 5.5t-14 -5.5t-6 -14.5v-24
q-26 -1 -44.5 -19.5t-18.5 -45.5v-21q0 -27 19 -46t46 -19h36q11 0 18 -7.5t7 -17.5v-21q0 -11 -7 -18t-18 -7h-40q-9 0 -15 6t-6 15q0 8 -6 14t-14 6t-14 -6t-6 -14q0 -25 18 -43t43 -18h2v-25q0 -8 6 -14t14 -6t14 6t6 14v25q26 0 44.5 19t18.5 46v21q0 27 -19 46t-46 19
v0zM733 960q-56 0 -105.5 -21.5t-86.5 -58.5t-58.5 -86t-21.5 -106q0 -56 21.5 -105.5t58.5 -86t86.5 -58t105.5 -21.5t105.5 21.5t86.5 58t58.5 86t21.5 105.5q0 57 -21.5 106t-58.5 86t-86.5 58.5t-105.5 21.5zM733 457q-48 0 -90 18t-73.5 49.5t-50 73.5t-18.5 90
t18.5 90.5t50 74t73.5 49.5t90 18t90 -18t73.5 -49.5t50 -74t18.5 -90.5t-18.5 -90t-50 -73.5t-73.5 -49.5t-90 -18v0z" />
    <glyph glyph-name="uniE92C" unicode="&#xe92c;" 
d="M784 754q0 -8 -6 -14t-14 -6t-14 6t-6 14q0 9 6 14.5t14 5.5t14 -5.5t6 -14.5zM184 153q0 -9 -6 -14.5t-14 -5.5t-14 5.5t-6 14.5q0 8 6 14t14 6t14 -6t6 -14zM899 904q-27 28 -63 42.5t-75 13.5q-37 -1 -71.5 -15.5t-61.5 -40.5q-27 -27 -41.5 -61.5t-15.5 -71.5
q-1 -42 15.5 -80.5t47.5 -66.5q12 -11 18.5 -25.5t6.5 -29.5v-26q0 -12 5 -23t14 -18v-58q0 -20 14.5 -34.5t35.5 -14.5h72q20 0 34.5 14.5t14.5 34.5v58q9 7 14.5 18t5.5 23v26q0 15 6.5 30t18.5 25q30 28 46.5 65t16.5 78q0 39 -15 74.5t-43 62.5v0zM809 444v0
q0 -4 -2.5 -6.5t-6.5 -2.5h-72q-4 0 -7 2.5t-3 6.5v47h91v-47zM867 654q-18 -17 -28 -39t-10 -46v-26q0 -5 -3.5 -8.5t-8.5 -3.5h-33v144q0 9 -6 14.5t-14 5.5t-14 -5.5t-6 -14.5v-144h-33q-5 0 -8.5 3.5t-3.5 8.5v26q0 24 -10 46t-28 39q-25 22 -38 52.5t-12 63.5
q1 61 45 105t106 45h0.5h1.5q30 0 58 -11.5t49 -32.5q22 -22 34 -50t12 -59q0 -32 -13 -61.5t-37 -51.5v0zM1015 292q-13 30 -43.5 41.5t-59.5 -1.5v0v0l-130 -60q-8 -3 -11 -11t1 -16q3 -7 11 -10t15 1l130 60q15 6 29.5 0t20.5 -20q7 -14 1 -29t-20 -21l-266 -118
q-32 -14 -66.5 -13t-64.5 16l-98 49q-39 19 -82 20t-83 -17h-2l-73 164l101 45q37 16 76 17t76 -12l195 -72q14 -5 20 -18t2 -27q-5 -13 -18 -19.5t-27 -2.5l-151 52q-8 2 -15.5 -1.5t-10.5 -11.5q-2 -8 1.5 -15.5t11.5 -9.5l151 -51q6 -3 12 -3.5t12 -0.5q24 0 44 13.5
t28 36.5q9 29 -4 57t-42 38l-196 72q-44 17 -90.5 15.5t-90.5 -21.5l-101 -44q-10 15 -28 20.5t-35 -2.5l-130 -57q-5 -2 -8.5 -7t-3.5 -11l-1 -351q0 -5 3 -9.5t7 -7.5q2 -2 5 -2.5t5 -0.5q3 0 5 0.5t4 1.5l254 128q17 8 25 25t3 35l2 1q32 14 66 13t65 -16l98 -49
q39 -19 82 -20t83 17l266 117q30 13 41.5 43.5t-1.5 59.5v0zM268 103v-0.5t-1 -0.5l-224 -113v87l58 28q8 4 10.5 12t-1.5 15q-3 7 -11 10t-15 -1l-41 -20v174l118 52q4 1 8 -0.5t6 -5.5l94 -212v0v0l5 -11q2 -4 0 -8.5t-6 -5.5v0z" />
    <glyph glyph-name="uniE92D" unicode="&#xe92d;" 
d="M529 485q0 -8 -6 -14t-14 -6t-14 6t-6 14q0 9 6 14.5t14 5.5t14 -5.5t6 -14.5zM364 850q0 -9 -6 -14.5t-14 -5.5t-14 5.5t-6 14.5q0 8 6 14t14 6t14 -6t6 -14v0zM529 379q0 -8 -6 -14t-14 -6t-14 6t-6 14t6 14t14 6t14 -6t6 -14zM529 273q0 -8 -6 -14t-14 -6t-14 6t-6 14
t6 14t14 6t14 -6t6 -14zM684 451q51 33 80 86t29 114v179q38 5 64 33.5t26 67.5v9q0 8 -6 14t-14 6h-702q-8 0 -14 -6t-6 -14v-9q0 -39 26 -68t64 -33v-179q0 -61 29 -114t81 -86q1 -1 1 -1.5v-1.5v-1.5t-1 -1.5q-52 -33 -81 -86t-29 -114v-179q-37 0 -63.5 -26.5
t-26.5 -63.5v-20q0 -8 6 -14t14 -6h702q8 0 14 6t6 14v20q0 37 -26 63.5t-64 26.5v179q0 61 -29 114t-80 86l-1.5 1.5t-0.5 1.5t0.5 1.5l1.5 1.5v0zM792 26q21 0 36 -14.5t15 -35.5h-662q0 21 15 35.5t36 14.5h19v0v0v0v0h541zM337 66l175 88l176 -88h-351v0zM662 412
q43 -28 67 -72t24 -95v-167l-232 116q-4 2 -8.5 2t-9.5 -2l-232 -115v166q0 51 24.5 95t66.5 72q10 6 15 15.5t5 20.5t-5 20.5t-15 15.5q-42 28 -66.5 72t-24.5 95v195q0 1 0.5 2t0.5 2q0 8 -6 14t-14 6h-10q-22 0 -39 14.5t-21 35.5h660q-4 -21 -21 -35.5t-39 -14.5h-346
q-8 0 -14 -6t-6 -14q0 -9 6 -14.5t14 -5.5h317v-179q0 -51 -24 -95t-67 -72q-9 -6 -14.5 -15.5t-5.5 -20.5t5.5 -20.5t14.5 -15.5v0zM677 642h-120q-18 0 -29 -5.5t-17 -11.5q-9 7 -21 12t-29 5h-121q-8 0 -14 -6t-6 -14q0 -9 6 -14.5t14 -5.5h121q20 0 25.5 -9.5t5.5 -14.5
v-1v0q0 -8 6 -13.5t14 -5.5v0v0q9 0 14.5 6t5.5 14v0v0q0 7 4.5 15.5t20.5 8.5h120q9 0 14.5 5.5t5.5 14.5q0 8 -5.5 14t-14.5 6v0z" />
    <glyph glyph-name="uniE92E" unicode="&#xe92e;" 
d="M1000 100h-402q-8 0 -14 -5.5t-6 -14.5q0 -13 -9.5 -23t-23.5 -10h-66q-14 0 -24 10t-10 23q0 9 -6 14.5t-14 5.5h-312v514q0 18 12 30t30 12h249v-2l-41 -39h-0.5h-0.5q-27 -28 -41.5 -63t-14.5 -73v-90q0 -6 3 -11t9 -7q2 -1 4 -1.5t4 -0.5q4 0 7.5 1.5t5.5 3.5l88 79
q2 -3 5 -5.5t6 -3.5q18 -5 36 -7.5t37 -2.5v0h1q18 0 36.5 2.5t36.5 7.5q4 1 7 3.5t5 6.5l88 -80q2 -2 5.5 -3.5t7.5 -1.5q2 0 4 0.5t4 1.5q6 2 9 7t3 11v90q0 38 -14.5 73t-41.5 63l-39 38l1 3h245q18 0 30 -12t12 -30v-366q0 -9 6 -14.5t14 -5.5t14 5.5t6 14.5v366
q0 34 -24 58t-58 24h-241q6 68 -16.5 133t-68.5 116l-3 4q-5 5 -12 8t-14 3v0v0q-7 0 -14 -3t-11 -9l-7 -7q-44 -50 -65.5 -114t-16.5 -131h-245q-34 0 -58 -24t-24 -58v-514h-49q-8 0 -14 -5.5t-6 -14.5v-31q0 -47 33 -80t80 -33h790q47 0 80 33t33 80v31q0 9 -6 14.5
t-14 5.5v0zM607 527l10 76l16 -17q22 -21 33.5 -49t11.5 -58v-45l-74 67l3 26v0zM512 914l2 3q43 -47 62 -108t11 -124l-5 -37v0v0l-19 -152v0v0l-2 -17q-12 -2 -24.5 -3.5t-24.5 -1.5h-1v0q-12 0 -24.5 1.5t-23.5 3.5l-18 170v0v0l-4 42q-7 61 12 119.5t59 103.5v0z
M420 501l-74 -67v45q0 30 11.5 58t32.5 49l19 18l11 -103v0zM907 -24h-790q-30 0 -51.5 21.5t-21.5 51.5v11h364q6 -23 25.5 -38t45.5 -15h66q25 0 44.5 15t26.5 38h364v-11v0q0 -30 -21.5 -51.5t-51.5 -21.5v0zM850 611h-101q-8 0 -14 -5.5t-6 -14.5q0 -8 6 -14t14 -6h81
v-387h-629v387h63q9 0 14.5 6t5.5 14q0 9 -5.5 14.5t-14.5 5.5h-83q-8 0 -14 -5.5t-6 -14.5v-427q0 -8 6 -14t14 -6h669q8 0 14 6t6 14v427q0 9 -6 14.5t-14 5.5zM532 749q0 -8 -6 -14t-14 -6t-14 6t-6 14t6 14t14 6t14 -6t6 -14zM951 160q0 -8 -6 -14t-14 -6t-14 6t-6 14
q0 9 6 14.5t14 5.5t14 -5.5t6 -14.5zM460 405q-8 0 -14 -6t-6 -14v-82q0 -8 6 -14t14 -6t14 6t6 14v82q0 8 -6 14t-14 6zM562 409q-9 0 -14.5 -5.5t-5.5 -14.5v-120q0 -8 5.5 -14t14.5 -6q8 0 14 6t6 14v120q0 9 -6 14.5t-14 5.5z" />
    <glyph glyph-name="uniE92F" unicode="&#xe92f;" 
d="M195 147q0 -9 -6 -14.5t-14 -5.5t-14 5.5t-6 14.5q0 8 6 14t14 6t14 -6t6 -14zM961 385q0 -8 -6 -14t-14 -6t-14 6t-6 14t6 14t14 6t14 -6t6 -14zM709 535h-30q-8 0 -13 5.5t-5 12.5v18q0 7 5 12t13 5h34q6 0 10 -4t4 -10q0 -8 6 -14t14 -6t14 6t6 14q0 22 -15.5 38
t-37.5 16v18q0 8 -6 14t-14 6t-14 -6t-6 -14v-18q-22 -2 -37.5 -18.5t-15.5 -38.5v-18q0 -24 17 -41t41 -17h30q8 0 13 -5t5 -12v-18q0 -7 -5 -12.5t-13 -5.5h-34q-6 0 -10 4.5t-4 10.5q0 8 -6 14t-14 6t-14 -6t-6 -14q0 -23 15.5 -38.5t37.5 -16.5v-17q0 -8 6 -14t14 -6
t14 6t6 14v17q22 2 37.5 18.5t15.5 39.5v18q0 24 -17 40.5t-41 16.5v0zM1000 282q-6 14 -17 24.5t-25 15.5q-15 6 -30 5.5t-29 -6.5v0v0l-126 -58q-8 -4 -10.5 -11.5t0.5 -15.5q4 -7 11.5 -10t15.5 0l125 58q7 3 14 3.5t14 -2.5t12 -8t8 -11q3 -7 3 -14t-2 -14q-3 -7 -8 -12
t-11 -8l-258 -114q-31 -13 -64 -12.5t-63 15.5l-94 47q-38 19 -80 20t-81 -16l-1 -1l-70 158l97 43q35 16 73 17t73 -12l190 -70q13 -4 19 -16.5t1 -25.5q-4 -13 -16.5 -19t-25.5 -2l-147 50q-8 2 -15 -1.5t-10 -11.5t1 -15t11 -10l147 -50q6 -2 12 -3t12 -1q23 0 42 13.5
t27 36.5q10 28 -3 55.5t-41 37.5l-190 70q-9 3 -19 5.5t-20 4.5v111q0 41 15.5 77t42.5 62.5t63 42t77 15.5h73q41 0 77 -15.5t63 -42t42.5 -62.5t15.5 -77v-52q0 -9 6 -14.5t14 -5.5t14 5.5t6 14.5v52q0 43 -14.5 82t-40.5 70t-61 52t-76 29v60l50 87q2 3 2.5 7.5t-0.5 8.5
t-4 7t-7 5l-62 28q-3 2 -7 2t-8 -1l-46 -17l-40 17q-4 1 -8 1t-7 -1l-65 -25q-4 -2 -7 -5t-5 -7q-1 -4 -0.5 -8.5t2.5 -8.5l50 -89v-61q-42 -7 -77.5 -28t-61.5 -52t-41 -70.5t-15 -82.5v-107q-24 0 -48.5 -5t-48.5 -15l-98 -43q-4 6 -10 11t-13 7q-9 4 -19 3.5t-19 -4.5
l-126 -55q-6 -2 -9 -7t-3 -11v-340q0 -5 2.5 -9.5t6.5 -7.5q3 -2 5.5 -2.5t5.5 -0.5q2 0 4.5 0.5t4.5 1.5l245 124q9 4 16 11t10 16q3 8 3.5 16t-1.5 15l2 1q30 13 63 12.5t63 -15.5l94 -47q38 -19 80 -20t81 17l258 113q14 7 24.5 17.5t15.5 25.5q6 14 5.5 29t-6.5 29z
M729 759h-82v42h82v-42zM603 905l36 14l41 -17q3 -1 6.5 -1t7.5 1l45 16l35 -15l-37 -62h-99zM276 99q-1 0 -1 -0.5v-0.5l-217 -109v81l56 27q7 4 10 12t-1 15t-11.5 10t-15.5 -1l-38 -19v169l114 50q3 1 5 0.5t3 -0.5t2.5 -1.5t2.5 -3.5l5 -10v0v0v0v0l91 -207
q1 -3 -0.5 -7t-4.5 -5v0z" />
    <glyph glyph-name="uniE930" unicode="&#xe930;" 
d="M142 487q0 -8 -6 -14t-14 -6t-14 6t-6 14t6 14t14 6t14 -6t6 -14zM230 487q0 -8 -5.5 -14t-14.5 -6q-8 0 -14 6t-6 14t6 14t14 6q9 0 14.5 -6t5.5 -14zM321 487q0 -8 -6 -14t-14 -6t-14 6t-6 14t6 14t14 6t14 -6t6 -14zM665 498q0 -8 -5.5 -14t-14.5 -6q-8 0 -14 6t-6 14
q0 9 6 14.5t14 5.5q9 0 14.5 -5.5t5.5 -14.5zM852 580q0 -8 -5.5 -14t-14.5 -6q-8 0 -14 6t-6 14t6 14t14 6q9 0 14.5 -6t5.5 -14zM940 580q0 -8 -5.5 -14t-14.5 -6q-8 0 -14 6t-6 14t6 14t14 6q9 0 14.5 -6t5.5 -14zM142 115q0 -9 -6 -14.5t-14 -5.5t-14 5.5t-6 14.5
q0 8 6 14t14 6t14 -6t6 -14zM230 115q0 -9 -5.5 -14.5t-14.5 -5.5q-8 0 -14 5.5t-6 14.5q0 8 6 14t14 6q9 0 14.5 -6t5.5 -14zM896 850q0 -8 -5.5 -14t-14.5 -6q-8 0 -14 6t-6 14q0 9 6 14.5t14 5.5q9 0 14.5 -5.5t5.5 -14.5zM1004 691h-255q-9 0 -14.5 -5.5t-5.5 -14.5
v-234h-368q-8 0 -14 -6t-6 -14v-310q0 -8 6 -14t14 -6h264v-97h-585v916h585v-326q0 -8 6 -14t14 -6q9 0 14.5 6t5.5 14v346q0 8 -5.5 14t-14.5 6h-625q-8 0 -14 -6t-6 -14v-956q0 -8 6 -14t14 -6h625q9 0 14.5 6t5.5 14v117h227q8 0 14 6t6 14v193h92q8 0 14 6t6 14v351
q0 9 -6 14.5t-14 5.5v0zM820 397l-193 -112l-194 112h387v0zM872 127h-491v253l236 -135q2 -2 4.5 -2.5t5.5 -0.5q2 0 4.5 0.5t5.5 2.5l235 135v-253v0zM984 340h-72v77q0 8 -6 14t-14 6h-123v214h215v-311zM179 730q-35 0 -60 -25t-25 -60t25 -60t60 -25t60 25t25 60
t-25 60t-60 25v0zM179 600q-19 0 -32 13t-13 32t13 32t32 13t32 -13t13 -32t-13 -32t-32 -13zM1004 946h-255q-9 0 -14.5 -6t-5.5 -14v-151q0 -8 5.5 -14t14.5 -6h255q8 0 14 6t6 14v151q0 8 -6 14t-14 6zM984 795h-215v111h215v-111zM541 822h-429q-9 0 -14.5 -6t-5.5 -14
t5.5 -14t14.5 -6h429q8 0 14 6t6 14t-6 14t-14 6v0z" />
    <glyph glyph-name="uniE931" unicode="&#xe931;" 
d="M734 358h-22q12 14 18.5 32t6.5 38v52q0 9 -5.5 14.5t-14.5 5.5h-115q-20 0 -38 -6.5t-32 -18.5v83q76 8 128.5 65.5t52.5 135.5q0 41 -15.5 78t-43 64t-64 43t-78.5 16t-78.5 -16t-64 -43t-43 -64t-15.5 -78q0 -78 52.5 -135.5t128.5 -65.5v-47q-14 12 -32 18.5t-38 6.5
h-69q-8 0 -14 -6t-6 -14v-20q0 -46 32.5 -78t77.5 -32h49v-28h-202q-23 0 -39.5 -16.5t-16.5 -39.5v-2q0 -21 13 -36.5t33 -19.5v-105q0 -49 32 -85t78 -43q-5 -9 -8.5 -19.5t-3.5 -22.5v-13q0 -8 6 -14t14 -6h228q8 0 14 6t6 14v13q0 12 -3.5 22.5t-8.5 19.5q46 7 78 43
t32 85v105q20 4 33 19.5t13 36.5v2q0 23 -16.5 39.5t-39.5 16.5zM602 460h95v-32q0 -29 -20.5 -49.5t-49.5 -20.5h-95v32q0 29 20.5 49.5t49.5 20.5v0zM351 759q0 66 47 113.5t114 47.5t114 -47.5t47 -113.5q0 -67 -47 -114.5t-114 -47.5t-114 47.5t-47 114.5v0zM443 426
q-29 0 -49.5 20.5t-20.5 49.5v0h49q29 0 49.5 -20.5t20.5 -49.5v0h-49zM419 -24q2 14 12.5 23.5t24.5 10.5h112q14 -1 24.5 -10.5t12.5 -23.5h-186zM750 300q0 -7 -4.5 -12t-11.5 -5h-257q-8 0 -14 -5.5t-6 -14.5q0 -8 6 -14t14 -6h227v-104q0 -37 -26 -63t-62 -26h-208
q-36 0 -62 26t-26 63v124q0 9 -6 14.5t-14 5.5h-10q-7 0 -11.5 5t-4.5 12v2q0 6 4.5 11t11.5 5h444q7 0 11.5 -5t4.5 -11v-2zM525 779h-26q-5 0 -9 3.5t-4 8.5v16q0 5 4 8.5t9 3.5h29q4 0 7 -2.5t3 -6.5q0 -9 5.5 -14.5t14.5 -5.5q8 0 14 5.5t6 14.5q0 19 -13.5 33.5
t-32.5 15.5v12q0 8 -6 14t-14 6t-14 -6t-6 -14v-12q-19 -3 -32.5 -17.5t-13.5 -34.5v-16q0 -21 15.5 -36.5t37.5 -15.5h26q5 0 9 -3.5t4 -8.5v-16q0 -5 -4 -8.5t-9 -3.5h-29q-4 0 -7 3t-3 7q0 8 -5.5 14t-14.5 6q-8 0 -14 -6t-6 -14q0 -20 13.5 -34t32.5 -16v-12q0 -8 6 -14
t14 -6t14 6t6 14v12q19 3 32.5 17.5t13.5 34.5v16q0 21 -15.5 36.5t-37.5 15.5v0zM412 263q0 -8 -5.5 -14t-14.5 -6q-8 0 -14 6t-6 14q0 9 6 14.5t14 5.5q9 0 14.5 -5.5t5.5 -14.5z" />
    <glyph glyph-name="uniE932" unicode="&#xe932;" 
d="M944 916h-864q-33 0 -56.5 -23.5t-23.5 -56.5v-142q0 -33 23.5 -56.5t56.5 -23.5h95v-614q0 -8 6 -14t15 -6h632q9 0 15 6t6 14v614h95q33 0 56.5 23.5t23.5 56.5v142q0 33 -23.5 56.5t-56.5 23.5v0zM216 21v83l84 -83h-84zM808 21h-84l84 83v-83zM808 162l-141 -141
h-310l-141 141v583h180q-35 -27 -56 -67t-21 -87q0 -80 56.5 -136.5t136.5 -56.5t136.5 56.5t56.5 136.5q0 47 -21 87t-56 67h180v-583v0zM512 743q63 0 107.5 -44.5t44.5 -107.5t-44.5 -107.5t-107.5 -44.5t-107.5 44.5t-44.5 107.5t44.5 107.5t107.5 44.5v0zM944 655h-95
v92h51q8 0 14 6t6 14q0 9 -6 14.5t-14 5.5h-776q-8 0 -14 -5.5t-6 -14.5q0 -8 6 -14t14 -6h51v-92h-95q-16 0 -27.5 11.5t-11.5 27.5v142q0 16 11.5 27.5t27.5 11.5h864q16 0 27.5 -11.5t11.5 -27.5v-142q0 -16 -11.5 -27.5t-27.5 -11.5v0zM621 600h-8q-3 21 -15 37t-38 16
t-37 -17t-18 -36h-54q2 18 11 26.5t9 16.5q0 6 -6.5 10.5t-12.5 4.5q-11 0 -22 -16.5t-12 -41.5h-7q-3 0 -5 -2.5t-2 -6.5q0 -3 2 -6t5 -3h8q4 -23 18.5 -37.5t39.5 -14.5q28 0 40 17t18 35h48q-1 -14 -5.5 -20.5t-4.5 -11.5q0 -8 7 -11.5t12 -3.5q12 0 16.5 16.5t4.5 30.5
h8q2 0 4 3t2 6q0 4 -2 6.5t-4 2.5v0zM473 563q-9 0 -14.5 6t-7.5 15h48q-4 -9 -10 -15t-16 -6zM541 598q4 9 8.5 15.5t13.5 6.5q8 0 13 -6t6 -16h-41zM565 161q-8 0 -14 -6t-6 -14v-21q0 -8 6 -14t14 -6t14 6t6 14v21q0 8 -6 14t-14 6zM565 329q-8 0 -14 -6t-6 -15v-86
q0 -8 6 -14t14 -6t14 6t6 14v86q0 9 -6 15t-14 6zM459 329q-8 0 -14 -6t-6 -15v-188q0 -8 6 -14t14 -6t14 6t6 14v188q0 9 -6 15t-14 6z" />
    </font>
</defs>
</svg>
