<svg xmlns="http://www.w3.org/2000/svg" xmlns:xlink="http://www.w3.org/1999/xlink" width="111.769" height="45.59" viewBox="0 0 111.769 45.59">
  <defs>
    <linearGradient id="linear-gradient" x1="0.5" y1="-0.022" x2="0.5" y2="1.021" gradientUnits="objectBoundingBox">
      <stop offset="0" stop-color="#484b4a" stop-opacity="0.502"/>
      <stop offset="0.529" stop-color="#fefefe" stop-opacity="0.502"/>
      <stop offset="0.541" stop-color="#212220" stop-opacity="0.502"/>
      <stop offset="1" stop-color="#e3e1e2" stop-opacity="0.502"/>
    </linearGradient>
    <linearGradient id="linear-gradient-2" x1="0.5" y1="-0.009" x2="0.5" y2="1.009" xlink:href="#linear-gradient"/>
    <linearGradient id="linear-gradient-4" x1="0.5" y1="-0.007" x2="0.5" y2="1.007" xlink:href="#linear-gradient"/>
    <linearGradient id="linear-gradient-5" x1="0.5" y1="-0.009" x2="0.5" y2="1.009" xlink:href="#linear-gradient"/>
  </defs>
  <g id="Слой_x0020_1" transform="translate(-3124.09 -8368.489)">
    <path d="M4698.829,8395.4h-3.389l-.754-.951h-.193l-1.083-1.366,5.418-23.683,1.083-.866h5.511l1.083.866.054.237.892.714,5.241,22.907v-23.649l1.111-1.116h4.029l2.058,2.066v8.739h5.074v-9.689l1.111-1.116h3.982l2.058,2.066v20.538l.906-.91h1.019v-14.326c0-3.317,1.848-7.368,5.649-7.368h11.392l2.059,2.066v19.628h.072l2.058,2.067v2.028l-1.111,1.117h-20.19l-1.853-1.861v.7l-1.111,1.116h-3.982l-2.058-2.067v-8.821h-5.074v9.772l-1.111,1.116h-4.028l-2.049-2.058.168.733-1.083,1.366H4707.8l-1.09-.9-.039-.2-.907-.75-.658-3.364h-3.754l-.842,4.314-.946.782.354-.059.16.179Zm-24.295-25.047v-.744l1.111-1.116h11.392a3.88,3.88,0,0,1,2.648.854c.41.342.739.761,1.145,1.1,2,1.7,2.756,4.779,2.756,7.313,0,3.451-1.427,8.113-5.6,8.113-2.084,0-4.168-.007-6.252-.01v8.375l-1.111,1.116h-4.029l-1.111-1.116h0l-.946-.951V8372.75l-.906.91h-7.409v20.578l-1.111,1.116h-4.029l-2.058-2.067v-23.682l1.111-1.116h12.55Zm71.408,3.311h-3.175c-1.363,0-1.76,2.113-1.76,3.148v13.375h4.935Zm-43.569,11.349h1.735l-.86-4.243Zm-20.641-4.3q1.588,0,3.175,0a1.012,1.012,0,0,0,.523-.133c.965-.557,1.193-2.608,1.2-3.594a8.42,8.42,0,0,0-.487-3.041c-.026-.066-.07-.182-.113-.271-.063,0-.134,0-.179,0h-4.121Z" transform="translate(-1519.41)" fill="#fefefe" fill-rule="evenodd"/>
    <g id="_2099716948128" transform="translate(3124.09 8385.115)">
      <path d="M3129.334,10024.859a1,1,0,0,1-.123-.482v-1.931a1.013,1.013,0,0,1,1.011-1.011h7.93a1.013,1.013,0,0,1,1.011,1.011v1.931a1,1,0,0,1-.123.482,1.012,1.012,0,0,1,.123.482v1.271a5.632,5.632,0,1,1,9.292,6.04v6.687a1.012,1.012,0,0,1-1.642.791l-2.364-1.886-2.473,1.9a.99.99,0,0,1-1.063.1,1.069,1.069,0,0,1-.252-.173v.719a1.013,1.013,0,0,1-1.011,1.012H3125.1a1.013,1.013,0,0,1-1.011-1.012v-26.941a1.014,1.014,0,0,1,1.011-1.012h13.721a1.006,1.006,0,0,1,.747.332l.015.015.979,1.015a.974.974,0,0,1,.284.689l.025,2.139a1.011,1.011,0,0,1-1.736.717l-1.394-1.436h-9.976v22.023h11.883a1,1,0,0,1,.7.283v-5.871a5.635,5.635,0,0,1-1.216-1.852,1.014,1.014,0,0,1-.982.769h-7.93a1.013,1.013,0,0,1-1.011-1.011v-1.932a1.008,1.008,0,0,0,0-1.447v-1.932A1.009,1.009,0,0,1,3129.334,10024.859Zm15.023,5.816a1.885,1.885,0,1,0-1.885-1.885A1.885,1.885,0,0,0,3144.357,10030.676Z" transform="translate(-3124.09 -10012.84)" fill="#fff" fill-rule="evenodd"/>
    </g>
    <path d="M3246.432,10131.216a4.62,4.62,0,1,0-6.083.077v7.035l3.1-2.38,2.982,2.38Zm-20.687-16.929v24.046h12.894v1.448H3224.09v-26.942h13.722v.038h.035l.979,1.014.025,2.139-1.692-1.742Zm3.466,13.422h7.93v1.93h-7.93Zm0-3.379h7.93v1.931h-7.93Zm0-2.9h7.93v1.932h-7.93Zm14.135,9.24a2.9,2.9,0,1,0-2.9-2.9A2.9,2.9,0,0,0,3243.347,10130.674Z" transform="translate(-98.989 -1726.712)" fill="#434242" fill-rule="evenodd"/>
    <g id="_2099715993184" transform="translate(3154.857 8397.155)">
      <path d="M6200.209,11210.123c.826-1.822,1.7-3.625,2.639-5.392a1.011,1.011,0,0,1,1.336-.434l1.13.55a1.012,1.012,0,0,1,.454,1.375l-.394.76a2.15,2.15,0,0,1,.746-.145,1.758,1.758,0,0,1,1.391.652,2,2,0,0,1,.459,1.283,2.591,2.591,0,0,1-.178.926,9.229,9.229,0,0,1-.4.877c-.007.014-.015.027-.021.042a1.017,1.017,0,0,1,.947,1.325l-.376,1.164a.972.972,0,0,1-.375.512,9.137,9.137,0,0,1-1.287.752,4.11,4.11,0,0,1-1.7.516,2.053,2.053,0,0,1-1.064-.262,1.705,1.705,0,0,1-.825-1.331q-.188.3-.36.61a21.606,21.606,0,0,0-.956,1.98q-.529,1.228-1.052,2.461a1.006,1.006,0,0,1-1.176.586l-1.233-.309a1.011,1.011,0,0,1-.7-1.346q.5-1.3,1.032-2.594a3.791,3.791,0,0,1-1.3.337,1.734,1.734,0,0,1-1.73-1.208.788.788,0,0,1-.032-.121c0-.008,0-.016-.005-.024q-.361.447-.69.92a1,1,0,0,1-1.087.4l-1.25-.328a.977.977,0,0,1-.663-.558q-.154.223-.3.451a1,1,0,0,1-1.106.436l-1.268-.328a.979.979,0,0,1-.512-.314c-.215.1-.432.2-.649.283a3.127,3.127,0,0,1-1.085.258,2.063,2.063,0,0,1-1.446-.549,1.97,1.97,0,0,1-.609-1.473,1.454,1.454,0,0,1,.034-.286l-.9,1.856a1.006,1.006,0,0,1-1.209.522l-1.387-.431a1,1,0,0,1-.435-.266c-.238.1-.48.188-.726.268a6.839,6.839,0,0,1-2.1.357,2.806,2.806,0,0,1-1.973-.717c-.074.145-.146.289-.217.436q-.515,1.059-.945,2.154a1.01,1.01,0,0,1-1.365.547l-1.147-.53a1.011,1.011,0,0,1-.507-1.312c.1-.227.2-.453.313-.675a1.566,1.566,0,0,1-.408-.206,1.59,1.59,0,0,1-.574-.719,4.282,4.282,0,0,1-2.234,1.021,1.742,1.742,0,0,1-1.23-.479,1.8,1.8,0,0,1-.517-1.338,3.15,3.15,0,0,1,.19-.991,15.841,15.841,0,0,1,.84-1.96c.621-1.252,1.333-2.484,2.034-3.691a1.01,1.01,0,0,1,1.339-.39l1.13.585a1.012,1.012,0,0,1,.427,1.373l-.045.085a6.835,6.835,0,0,0,.642-.833,1.008,1.008,0,0,1,1.291-.383l1.162.549a1.01,1.01,0,0,1,.453,1.4l-.1.174a9.376,9.376,0,0,1,1.086-1.094,5.956,5.956,0,0,1,3.827-1.643,2.429,2.429,0,0,1,1.724.6,2.168,2.168,0,0,1,.4.5l.42-.821a1.011,1.011,0,0,1,1.328-.455l1.181.551a.975.975,0,0,1,.53.59,1.125,1.125,0,0,1,.048.2l.136-.287a1.012,1.012,0,0,1,1.312-.5l1.2.514a1.012,1.012,0,0,1,.508,1.378l-1.078,2.18a1.014,1.014,0,0,1,.488-.1l1.979-4.006a1.013,1.013,0,0,1,1.369-.451l.529.271a.979.979,0,0,1,.451-.555,18.507,18.507,0,0,1,3.334-1.556,13.1,13.1,0,0,1,4.229-.722,1.012,1.012,0,0,1,.919,1.432l-.719,1.574a1.006,1.006,0,0,1-1.192.555,3.774,3.774,0,0,0-.926-.083,6.447,6.447,0,0,0-2.188.413,1.825,1.825,0,0,1,.252.437,2.673,2.673,0,0,1,1.166-.3,1.826,1.826,0,0,1,1.03.338,1.587,1.587,0,0,1,.683,1.358A2.451,2.451,0,0,1,6200.209,11210.123Z" transform="translate(-6166.979 -11203.602)" fill="#fff" fill-rule="evenodd"/>
    </g>
    <path d="M6274.547,11307.314l-1.139,2.055q-.578,1.046-.791,1.473a1.782,1.782,0,0,0-.211.564.182.182,0,0,0,.085.181.343.343,0,0,0,.151.043,1.045,1.045,0,0,0,.468-.239,4.674,4.674,0,0,0,.554-.463l.882.582c-.32.548-.611,1.093-.874,1.641q-.5,1.011-.976,2.227l-1.147-.531a7.253,7.253,0,0,1,.762-1.4,5.393,5.393,0,0,0,.71-1.109l-.1-.086a3.5,3.5,0,0,1-.671.42,1.634,1.634,0,0,1-.7.2.756.756,0,0,1-.442-.119.661.661,0,0,1-.271-.582,3.1,3.1,0,0,1,.514-1.336q.36-.615.462-.8l-.1-.052a21.661,21.661,0,0,1-1.917,1.729,4.4,4.4,0,0,1-2.072,1.164.737.737,0,0,1-.531-.2.808.808,0,0,1-.206-.608,2.222,2.222,0,0,1,.137-.667,16,16,0,0,1,.788-1.836q.668-1.336,2-3.633l1.13.586-1.952,3.666c-.08.16-.143.283-.188.369a.462.462,0,0,0-.068.2c0,.159.063.239.188.239q.5,0,2.236-1.764a16.3,16.3,0,0,0,2.132-2.447Zm7.071.035a2.193,2.193,0,0,1-.839,1.643,9.772,9.772,0,0,1-4.143,1.832.738.738,0,0,0-.017.172v.154a.474.474,0,0,0,.274.428,1.5,1.5,0,0,0,.736.154,4.292,4.292,0,0,0,1.37-.291,8.689,8.689,0,0,0,1.609-.771l-.377,1.112a7.149,7.149,0,0,1-1.669.771,5.819,5.819,0,0,1-1.789.307,1.777,1.777,0,0,1-1.318-.479,1.5,1.5,0,0,1-.429-.787v-.206l-.7.429.376-1.147.377-.24a6.356,6.356,0,0,1,2-2.778,4.928,4.928,0,0,1,3.168-1.4,1.443,1.443,0,0,1,1.027.324A1.03,1.03,0,0,1,6281.618,11307.35Zm-1.609.308c0-.206-.1-.308-.291-.308a2.436,2.436,0,0,0-1.515.848,5.536,5.536,0,0,0-1.242,1.635,7.516,7.516,0,0,0,1.883-.8Q6280.009,11308.324,6280.009,11307.657Zm8.373,2.962-.343,1.164a13.259,13.259,0,0,1-1.764.891,2.219,2.219,0,0,1-.719.188,1.051,1.051,0,0,1-.754-.273.963.963,0,0,1-.291-.736,8.237,8.237,0,0,1,.839-2,5.1,5.1,0,0,0-1.146.171q-.514.12-1.216.359l-1.267,2.6-1.387-.43,3.356-6.559,1.181.551-1.4,2.709a6.852,6.852,0,0,1,.984-.223,6.69,6.69,0,0,1,1.036-.12h.325l1.113-2.346,1.2.513-1.575,3.186c-.034.08-.1.236-.2.471a1.751,1.751,0,0,0-.146.438c0,.182.086.273.257.273a3.549,3.549,0,0,0,1.2-.445Zm11.95-7.02-.719,1.575a4.654,4.654,0,0,0-1.2-.12,7.508,7.508,0,0,0-2.688.531,11.533,11.533,0,0,0-1.866.941l-.582-.787a17.366,17.366,0,0,1,3.15-1.473A12.093,12.093,0,0,1,6300.332,11303.6Zm-1.232,7.02-.377,1.179a8.7,8.7,0,0,1-2.791,1.2.732.732,0,0,1-.77-.516,1.493,1.493,0,0,1-.035-.292,2.391,2.391,0,0,1,.061-.368,2.69,2.69,0,0,1,.334-.744c.148-.229.3-.463.445-.7.011-.022.085-.143.223-.359a.784.784,0,0,0,.154-.377.136.136,0,0,0-.154-.154q-.411,0-1.533,1.118a17.285,17.285,0,0,0-2.012,2.395l-1.25-.328,1.884-3.6.034-.119-.086-.137q-.359,0-1.644,1.335a18.845,18.845,0,0,0-2.26,2.845l-1.267-.328,3.27-6.619,1.2.615-1.387,2.551.154.1q1.079-1.028,1.678-1.559a3.092,3.092,0,0,1,1.764-.976.812.812,0,0,1,.634.242.755.755,0,0,1,.223.52,2.317,2.317,0,0,1-.428,1.073,7.653,7.653,0,0,1-.737,1l.171.1a11.057,11.057,0,0,1,2.055-1.752,2.049,2.049,0,0,1,.993-.348.834.834,0,0,1,.462.162.587.587,0,0,1,.24.523,3.874,3.874,0,0,1-.685,1.608q-.085.138-.582.891a1,1,0,0,0-.205.462.125.125,0,0,0,.042.1.721.721,0,0,0,.111.068Q6297.13,11311.441,6299.1,11310.619Zm7.242,0-.376,1.164a8.028,8.028,0,0,1-1.147.668,3.16,3.16,0,0,1-1.25.41,1.08,1.08,0,0,1-.548-.119.751.751,0,0,1-.343-.7,2.086,2.086,0,0,1,.12-.677,7.428,7.428,0,0,1,.565-1.122q.787-1.352.787-1.387v-.187a.269.269,0,0,0-.274-.154,1.867,1.867,0,0,0-1.13.7,13.388,13.388,0,0,0-.941,1.131,15.251,15.251,0,0,0-1.37,2.055,22.082,22.082,0,0,0-1,2.071q-.522,1.216-1.053,2.466l-1.233-.309q1.354-3.492,2.774-6.664t2.808-5.771l1.13.551-2.363,4.557.171.1a20.03,20.03,0,0,1,2.191-2,2.407,2.407,0,0,1,1.25-.573.745.745,0,0,1,.607.282.984.984,0,0,1,.231.642,1.58,1.58,0,0,1-.111.565q-.111.292-.359.778t-.745,1.345a1.8,1.8,0,0,0-.291.668c0,.147.068.222.206.222a2.183,2.183,0,0,0,.685-.239Q6305.845,11310.86,6306.342,11310.619Z" transform="translate(-3111.111 -2905.433)" fill="#434242"/>
    <g id="_2099715991008" transform="translate(3141.449 8370.414)">
      <path d="M12055.727,8565.1a7.494,7.494,0,0,1,.14-1.366,4.741,4.741,0,0,1,.485-1.388,3.418,3.418,0,0,1,.9-1.076,2.109,2.109,0,0,1,1.342-.435h5.233v19.708h-8.1Zm-5.927,17.472h20.19v-2.028h-2.13v-21.7h-11.393a3.418,3.418,0,0,0-2.061.621,5.15,5.15,0,0,0-1.412,1.553,7,7,0,0,0-.811,2.028,9.09,9.09,0,0,0-.255,2.05v15.443h-2.13Z" transform="translate(-11976.91 -8558.85)" fill="#2b2a29" fill-rule="evenodd"/>
      <path d="M10165.375,8582.532V8558.85h-3.982v10.806h-8.244V8558.85h-4.028v23.683h4.028v-10.89h8.244v10.89Z" transform="translate(-10095.448 -8558.85)" fill="#2b2a29" fill-rule="evenodd"/>
      <path d="M8250.267,8579.428h-5.6l2.731-13.249a1.368,1.368,0,0,0,.047-.373v-.455h.093v.414a1.868,1.868,0,0,0,.046.414Zm5.371,7.2-5.418-23.683h-5.511l-5.418,23.683h3.982l1.02-5.217h6.344l1.019,5.217Z" transform="translate(-8204.93 -8562.908)" fill="#2b2a29" fill-rule="evenodd"/>
      <path d="M4853.5,8560.837v-1.987h-12.55v23.683h4.029v-21.7Z" transform="translate(-4840.95 -8558.85)" fill="#2b2a29" fill-rule="evenodd"/>
      <path d="M6391.133,8566.055a12.343,12.343,0,0,0-.231-2.236,10.157,10.157,0,0,0-.741-2.359,5.28,5.28,0,0,0-1.389-1.863,3.191,3.191,0,0,0-2.131-.745h-11.392v23.683h4.029v-9.492c2.426,0,4.917.011,7.362.011a3.277,3.277,0,0,0,2.153-.7,5.361,5.361,0,0,0,1.39-1.76,8.055,8.055,0,0,0,.741-2.276A13.519,13.519,0,0,0,6391.133,8566.055Zm-11.854,5.017v-10.233h5.232a1.877,1.877,0,0,1,1.389.559,4.065,4.065,0,0,1,.88,1.366,7.784,7.784,0,0,1,.463,1.7,10.092,10.092,0,0,1,.139,1.511,11.706,11.706,0,0,1-.116,1.532,6.628,6.628,0,0,1-.44,1.656,4.1,4.1,0,0,1-.88,1.346,1.943,1.943,0,0,1-1.436.559C6382.772,8571.064,6381,8571.071,6379.278,8571.071Z" transform="translate(-6359.735 -8558.851)" fill="#2b2a29" fill-rule="evenodd"/>
    </g>
    <g id="_2099715988576" transform="translate(3140.503 8369.464)">
      <path d="M11962.105,8471.071a7.558,7.558,0,0,1,.139-1.366,4.715,4.715,0,0,1,.486-1.388,3.425,3.425,0,0,1,.9-1.076,2.114,2.114,0,0,1,1.344-.435h5.232v19.708h-8.1Zm-5.928,17.472h20.19v-2.028h-2.13v-21.7h-11.393a3.409,3.409,0,0,0-2.061.621,5.172,5.172,0,0,0-1.412,1.552,7.031,7.031,0,0,0-.811,2.029,9.085,9.085,0,0,0-.254,2.05v15.443h-2.131Z" transform="translate(-11883.288 -8464.819)" fill="#ffed00" fill-rule="evenodd"/>
      <path d="M10071.764,8488.5V8464.82h-3.982v10.806h-8.242V8464.82h-4.029V8488.5h4.029v-10.889h8.242V8488.5Z" transform="translate(-10001.838 -8464.82)" fill="#ffed00" fill-rule="evenodd"/>
      <path d="M8156.647,8485.4h-5.6l2.732-13.25a1.361,1.361,0,0,0,.046-.372v-.455h.093v.413a1.863,1.863,0,0,0,.046.414Zm5.372,7.2-5.418-23.683h-5.511l-5.418,23.683h3.982l1.019-5.218h6.345l1.019,5.218Z" transform="translate(-8111.311 -8468.879)" fill="#ffed00" fill-rule="evenodd"/>
      <path d="M4759.89,8466.808v-1.987h-12.55V8488.5h4.029v-21.694Z" transform="translate(-4747.34 -8464.82)" fill="#ffed00" fill-rule="evenodd"/>
      <path d="M6297.514,8472.024a12.308,12.308,0,0,0-.231-2.235,10.151,10.151,0,0,0-.741-2.361,5.278,5.278,0,0,0-1.389-1.862,3.186,3.186,0,0,0-2.131-.745H6281.63V8488.5h4.029v-9.492c2.426,0,4.917.012,7.363.012a3.276,3.276,0,0,0,2.153-.7,5.391,5.391,0,0,0,1.39-1.759,8.051,8.051,0,0,0,.741-2.277A13.519,13.519,0,0,0,6297.514,8472.024Zm-11.855,5.017v-10.233h5.233a1.881,1.881,0,0,1,1.389.559,4.057,4.057,0,0,1,.88,1.366,7.79,7.79,0,0,1,.463,1.7,10.1,10.1,0,0,1,.139,1.512,11.766,11.766,0,0,1-.116,1.531,6.637,6.637,0,0,1-.44,1.656,4.083,4.083,0,0,1-.88,1.346,1.936,1.936,0,0,1-1.436.56C6289.152,8477.034,6287.385,8477.041,6285.659,8477.041Z" transform="translate(-6266.116 -8464.82)" fill="#ffed00" fill-rule="evenodd"/>
    </g>
    <g id="_2099715985600" transform="translate(3140.503 8369.464)">
      <path d="M11962.105,8471.071a7.558,7.558,0,0,1,.139-1.366,4.715,4.715,0,0,1,.486-1.388,3.425,3.425,0,0,1,.9-1.076,2.114,2.114,0,0,1,1.344-.435h5.232v19.708h-8.1Zm-5.928,17.472h20.19v-2.028h-2.13v-21.7h-11.393a3.409,3.409,0,0,0-2.061.621,5.172,5.172,0,0,0-1.412,1.552,7.031,7.031,0,0,0-.811,2.029,9.085,9.085,0,0,0-.254,2.05v15.443h-2.131Z" transform="translate(-11883.288 -8464.819)" fill-rule="evenodd" fill="url(#linear-gradient)"/>
      <path d="M10071.764,8488.5V8464.82h-3.982v10.806h-8.242V8464.82h-4.029V8488.5h4.029v-10.889h8.242V8488.5Z" transform="translate(-10001.838 -8464.82)" fill-rule="evenodd" fill="url(#linear-gradient-2)"/>
      <path d="M8156.647,8485.4h-5.6l2.732-13.25a1.361,1.361,0,0,0,.046-.372v-.455h.093v.413a1.863,1.863,0,0,0,.046.414Zm5.372,7.2-5.418-23.683h-5.511l-5.418,23.683h3.982l1.019-5.218h6.345l1.019,5.218Z" transform="translate(-8111.311 -8468.879)" fill-rule="evenodd" fill="url(#linear-gradient-2)"/>
      <path d="M4759.89,8466.808v-1.987h-12.55V8488.5h4.029v-21.694Z" transform="translate(-4747.34 -8464.82)" fill-rule="evenodd" fill="url(#linear-gradient-4)"/>
      <path d="M6297.514,8472.024a12.308,12.308,0,0,0-.231-2.235,10.151,10.151,0,0,0-.741-2.361,5.278,5.278,0,0,0-1.389-1.862,3.186,3.186,0,0,0-2.131-.745H6281.63V8488.5h4.029v-9.492c2.426,0,4.917.012,7.363.012a3.276,3.276,0,0,0,2.153-.7,5.391,5.391,0,0,0,1.39-1.759,8.051,8.051,0,0,0,.741-2.277A13.519,13.519,0,0,0,6297.514,8472.024Zm-11.855,5.017v-10.233h5.233a1.881,1.881,0,0,1,1.389.559,4.057,4.057,0,0,1,.88,1.366,7.79,7.79,0,0,1,.463,1.7,10.1,10.1,0,0,1,.139,1.512,11.766,11.766,0,0,1-.116,1.531,6.637,6.637,0,0,1-.44,1.656,4.083,4.083,0,0,1-.88,1.346,1.936,1.936,0,0,1-1.436.56C6289.152,8477.034,6287.385,8477.041,6285.659,8477.041Z" transform="translate(-6266.116 -8464.82)" fill-rule="evenodd" fill="url(#linear-gradient-5)"/>
    </g>
    <path d="M4679.385,11141.479a4.62,4.62,0,1,0-6.083.077v7.034l3.1-2.379,2.982,2.379Zm-3.085-.543a2.9,2.9,0,1,0-2.9-2.9A2.9,2.9,0,0,0,4676.3,11140.936Z" transform="translate(-1531.942 -2736.974)" fill="#e31e24" fill-rule="evenodd"/>
  </g>
</svg>
