<?xml version="1.0" encoding="UTF-8"?>
<!DOCTYPE svg PUBLIC "-//W3C//DTD SVG 1.0//EN" "http://www.w3.org/TR/2001/REC-SVG-20010904/DTD/svg10.dtd">
<!-- Creator: CorelDRAW 2018 (64-Bit) -->
<svg xmlns="http://www.w3.org/2000/svg" xml:space="preserve" width="160px" height="65px" version="1.0" style="shape-rendering:geometricPrecision; text-rendering:geometricPrecision; image-rendering:optimizeQuality; fill-rule:evenodd; clip-rule:evenodd"
viewBox="0 0 160 64.79"
 xmlns:xlink="http://www.w3.org/1999/xlink">
 <defs>
  <style type="text/css">
   <![CDATA[
    .fil0 {fill:#FEFEFE}
    .fil4 {fill:#2B2A29}
    .fil2 {fill:#2B2A29}
    .fil5 {fill:#F7C605}
    .fil1 {fill:white}
    .fil3 {fill:#2B2A29;fill-rule:nonzero}
    .fil9 {fill:url(#id0);fill-opacity:0.501961}
    .fil6 {fill:url(#id1);fill-opacity:0.501961}
    .fil10 {fill:url(#id2);fill-opacity:0.501961}
    .fil7 {fill:url(#id3);fill-opacity:0.501961}
    .fil8 {fill:url(#id4);fill-opacity:0.501961}
   ]]>
  </style>
  <linearGradient id="id0" gradientUnits="userSpaceOnUse" x1="32.22" y1="0.96" x2="32.22" y2="35.48">
   <stop offset="0" style="stop-opacity:1; stop-color:#484B4A"/>
   <stop offset="0.529412" style="stop-opacity:1; stop-color:#FEFEFE"/>
   <stop offset="0.541176" style="stop-opacity:1; stop-color:#212220"/>
   <stop offset="1" style="stop-opacity:1; stop-color:#E3E1E2"/>
  </linearGradient>
  <linearGradient id="id1" gradientUnits="userSpaceOnUse" xlink:href="#id0" x1="142.69" y1="0.46" x2="142.69" y2="36.04">
  </linearGradient>
  <linearGradient id="id2" gradientUnits="userSpaceOnUse" xlink:href="#id0" x1="56.96" y1="0.9" x2="56.96" y2="35.54">
  </linearGradient>
  <linearGradient id="id3" gradientUnits="userSpaceOnUse" xlink:href="#id0" x1="112.18" y1="0.89" x2="112.18" y2="35.55">
  </linearGradient>
  <linearGradient id="id4" gradientUnits="userSpaceOnUse" xlink:href="#id0" x1="84.44" y1="0.95" x2="84.44" y2="35.61">
  </linearGradient>
 </defs>
 <g id="Слой_x0020_1">
  <metadata id="CorelCorpID_0Corel-Layer"/>
  <path class="fil0" d="M79.14 38.48l-4.88 0 -1.08 -1.36 -0.28 0 -1.56 -1.97 7.79 -34.05 1.56 -1.24 7.93 0 1.55 1.24 0.08 0.34 1.28 1.03 7.54 32.93 0 -34 1.6 -1.6 5.79 0 2.96 2.97 0 12.56 7.29 0 0 -13.93 1.6 -1.6 5.73 0 2.95 2.97 0 29.53 1.31 -1.31 1.46 0 0 -20.6c0,-4.77 2.66,-10.59 8.13,-10.59l16.37 0 2.96 2.97 0 28.22 0.11 0 2.96 2.97 0 2.92 -1.6 1.6 -29.03 0 -2.67 -2.67 0 1.01 -1.59 1.6 -5.73 0 -2.96 -2.97 0 -12.68 -7.29 0 0 14.05 -1.6 1.6 -5.79 0 -2.95 -2.95 0.24 1.05 -1.55 1.96 -5.73 0 -1.57 -1.29 -0.05 -0.29 -1.31 -1.08 -0.94 -4.84 -5.4 0 -1.21 6.21 -1.36 1.12c0.18,-0.03 0.35,-0.06 0.51,-0.08l0.23 0.25 -1.8 0zm-34.93 -36.01l0 -1.07 1.59 -1.6 16.38 0c1.44,0 2.68,0.29 3.81,1.23 0.59,0.49 1.06,1.09 1.65,1.58 2.87,2.44 3.96,6.87 3.96,10.52 0,4.96 -2.05,11.66 -8.06,11.66 -2.99,0 -5.99,-0.01 -8.99,-0.01l0 12.04 -1.59 1.6 -5.8 0 -1.59 -1.6 0 0 -1.36 -1.37 0 -29.53 -1.31 1.31 -10.65 0 0 29.59 -1.6 1.6 -5.79 0 -2.96 -2.97 0 -34.05 1.6 -1.6 18.04 0 2.67 2.67zm102.66 4.76l-4.56 0c-1.96,0 -2.53,3.04 -2.53,4.53l0 19.23 7.09 0 0 -23.76zm-62.64 16.32l2.5 0 -1.24 -6.1 -1.26 6.1zm-29.68 -6.19c1.53,0 3.05,0 4.57,0 0.27,0 0.52,-0.06 0.75,-0.19 1.39,-0.8 1.72,-3.75 1.73,-5.17 0.01,-1.4 -0.18,-3.07 -0.7,-4.37 -0.04,-0.1 -0.1,-0.26 -0.16,-0.39 -0.09,-0.01 -0.2,-0.01 -0.26,-0.01l-5.93 0 0 10.13z"/>
  <g id="_2505156901264">
   <path class="fil1" d="M33.73 51.82l0 9.98c0,0.22 -0.12,0.41 -0.32,0.51 -0.2,0.1 -0.42,0.07 -0.6,-0.07l-3.94 -3.14 -4.11 3.15c-0.17,0.13 -0.39,0.16 -0.59,0.06 -0.2,-0.1 -0.32,-0.29 -0.32,-0.51l0 -9.86c-1.48,-1.36 -2.33,-3.28 -2.33,-5.31 0,-3.98 3.23,-7.2 7.21,-7.2 3.98,0 7.2,3.22 7.2,7.2 0,1.97 -0.79,3.83 -2.2,5.19zm-29.75 -24.02l0 33.45 17.98 0c0.31,0 0.56,0.25 0.56,0.56l0 2.08c0,0.31 -0.25,0.57 -0.56,0.57l-20.92 0c-0.31,0 -0.56,-0.26 -0.56,-0.57l0 -38.73c0,-0.32 0.25,-0.57 0.56,-0.57l19.73 0c0.17,0 0.33,0.08 0.43,0.21 0.01,0 0.02,0.01 0.02,0.02l1.41 1.46c0.11,0.1 0.16,0.23 0.16,0.38l0.04 3.08c0,0.23 -0.13,0.43 -0.35,0.52 -0.22,0.09 -0.46,0.04 -0.62,-0.13l-2.27 -2.33 -15.61 0zm4.42 18.17l11.4 0c0.31,0 0.57,0.25 0.57,0.57l0 2.77c0,0.31 -0.26,0.56 -0.57,0.56l-11.4 0c-0.31,0 -0.56,-0.25 -0.56,-0.56l0 -2.77c0,-0.32 0.25,-0.57 0.56,-0.57zm0 -4.86l11.4 0c0.31,0 0.57,0.26 0.57,0.57l0 2.77c0,0.31 -0.26,0.57 -0.57,0.57l-11.4 0c-0.31,0 -0.56,-0.26 -0.56,-0.57l0 -2.77c0,-0.31 0.25,-0.57 0.56,-0.57zm0 -4.16l11.4 0c0.31,0 0.57,0.25 0.57,0.56l0 2.78c0,0.31 -0.26,0.56 -0.57,0.56l-11.4 0c-0.31,0 -0.56,-0.25 -0.56,-0.56l0 -2.78c0,-0.31 0.25,-0.56 0.56,-0.56zm20.33 13.28c1.99,0 3.6,-1.61 3.6,-3.6 0,-1.98 -1.61,-3.6 -3.6,-3.6 -1.99,0 -3.6,1.62 -3.6,3.6 0,1.99 1.61,3.6 3.6,3.6z"/>
  </g>
  <path class="fil2" d="M33.16 51.58c1.36,-1.22 2.21,-2.98 2.21,-4.95 0,-3.66 -2.97,-6.64 -6.64,-6.64 -3.67,0 -6.65,2.98 -6.65,6.64 0,2.03 0.91,3.84 2.34,5.06l0 10.11 4.46 -3.42 4.28 3.42 0 -10.22zm-29.74 -24.34l0 34.57 18.54 0 0 2.08 -20.92 0 0 -0.39 0 -1.69 0 -34.57 0 -2.01 0 -0.07 19.73 0 0 0.05 0.05 0 1.41 1.46 0.03 3.07 -2.43 -2.5 -16.41 0zm4.98 19.3l11.4 0 0 2.77 -11.4 0 0 -2.77zm0 -4.86l11.4 0 0 2.77 -11.4 0 0 -2.77zm0 -4.17l11.4 0 0 2.78 -11.4 0 0 -2.78zm20.33 13.29c2.3,0 4.16,-1.87 4.16,-4.17 0,-2.3 -1.86,-4.16 -4.16,-4.16 -2.3,0 -4.17,1.86 -4.17,4.16 0,2.3 1.87,4.17 4.17,4.17z"/>
  <g id="_2505156896944">
   <path class="fil1" d="M91.8 52.11c0.11,-0.24 0.22,-0.48 0.33,-0.72 1.26,-2.82 2.6,-5.61 4.05,-8.34 0.14,-0.26 0.47,-0.37 0.74,-0.24l1.63 0.79c0.14,0.07 0.24,0.18 0.29,0.33 0.05,0.15 0.03,0.3 -0.04,0.44l-2.21 4.27c0.44,-0.4 0.9,-0.8 1.38,-1.15 0.58,-0.42 1.39,-0.93 2.13,-0.93 0.52,0 0.98,0.2 1.31,0.61 0.3,0.37 0.46,0.8 0.46,1.28 0,0.35 -0.07,0.69 -0.2,1.01 -0.15,0.4 -0.35,0.8 -0.54,1.18 -0.34,0.66 -0.71,1.31 -1.09,1.96 -0.03,0.06 -0.09,0.16 -0.15,0.27 0.12,-0.05 0.23,-0.1 0.29,-0.13 0.48,-0.23 0.97,-0.46 1.45,-0.69 0.2,-0.1 0.44,-0.07 0.61,0.08 0.17,0.16 0.24,0.38 0.17,0.6l-0.54 1.68c-0.04,0.12 -0.11,0.21 -0.21,0.28 -0.54,0.39 -1.14,0.71 -1.73,1.01 -0.58,0.28 -1.39,0.65 -2.05,0.65 -0.37,0 -0.75,-0.06 -1.07,-0.25 -0.55,-0.33 -0.77,-0.88 -0.77,-1.5 0,-0.39 0.07,-0.78 0.2,-1.15 0.2,-0.57 0.56,-1.2 0.86,-1.72 0.27,-0.45 0.53,-0.91 0.79,-1.37 0.03,-0.04 0.06,-0.09 0.09,-0.15 -0.33,0.19 -0.71,0.56 -0.88,0.73 -0.46,0.46 -0.9,1.05 -1.31,1.57 -0.71,0.91 -1.36,1.87 -1.92,2.88 -0.52,0.95 -0.99,1.94 -1.41,2.93 -0.51,1.18 -1.02,2.36 -1.52,3.54 -0.11,0.26 -0.38,0.4 -0.65,0.33l-1.77 -0.44c-0.17,-0.04 -0.29,-0.14 -0.37,-0.29 -0.08,-0.15 -0.08,-0.31 -0.02,-0.46 0.76,-1.97 1.55,-3.93 2.37,-5.88 -1.09,0.59 -2.75,1.42 -3.6,1.42 -0.78,0 -1.39,-0.37 -1.64,-1.13 -0.01,-0.02 -0.01,-0.04 -0.02,-0.07 -0.03,-0.17 -0.06,-0.35 -0.06,-0.52 0,-0.2 0.06,-0.46 0.1,-0.65 0.09,-0.42 0.33,-0.87 0.55,-1.24 0,-0.01 0.01,-0.01 0.01,-0.02 0.17,-0.27 0.34,-0.53 0.51,-0.8 -0.31,0.26 -0.6,0.55 -0.88,0.82 -1.04,1.04 -1.99,2.16 -2.83,3.37 -0.14,0.2 -0.37,0.28 -0.61,0.22l-1.79 -0.47c-0.17,-0.05 -0.3,-0.16 -0.37,-0.32 -0.08,-0.16 -0.07,-0.33 0.01,-0.49l1.98 -3.77c-0.28,0.26 -0.54,0.54 -0.8,0.81 -1.18,1.23 -2.27,2.56 -3.18,4 -0.14,0.21 -0.38,0.3 -0.62,0.24l-1.82 -0.47c-0.17,-0.04 -0.3,-0.15 -0.37,-0.31 -0.08,-0.16 -0.07,-0.33 0,-0.48l0.08 -0.15c-0.63,0.35 -1.28,0.68 -1.93,0.93 -0.36,0.14 -0.84,0.31 -1.23,0.31 -0.56,0 -1.07,-0.17 -1.47,-0.55 -0.42,-0.39 -0.6,-0.9 -0.6,-1.47 0,-0.34 0.21,-0.85 0.35,-1.17 0.14,-0.35 0.3,-0.69 0.46,-1.04 -0.19,0.04 -0.38,0.08 -0.56,0.13 -0.49,0.11 -0.99,0.26 -1.47,0.42l-1.72 3.53c-0.12,0.25 -0.41,0.37 -0.68,0.29l-1.99 -0.62c-0.16,-0.05 -0.28,-0.16 -0.35,-0.32 -0.06,-0.15 -0.06,-0.31 0.01,-0.45 -0.6,0.31 -1.23,0.57 -1.87,0.78 -0.88,0.28 -1.81,0.47 -2.74,0.47 -0.86,0 -1.68,-0.24 -2.3,-0.86 -0.27,-0.27 -0.48,-0.57 -0.62,-0.92l-0.08 0.06c-0.34,0.59 -0.65,1.2 -0.95,1.81 -0.5,1.04 -0.97,2.09 -1.39,3.17 -0.06,0.14 -0.16,0.25 -0.31,0.31 -0.15,0.06 -0.3,0.06 -0.45,-0.01l-1.65 -0.76c-0.27,-0.13 -0.4,-0.45 -0.28,-0.73 0.31,-0.74 0.69,-1.48 1.16,-2.13 0.01,-0.02 0.02,-0.04 0.03,-0.05 -0.22,0.07 -0.45,0.11 -0.68,0.11 -0.34,0 -0.68,-0.08 -0.96,-0.28 -0.44,-0.3 -0.63,-0.77 -0.63,-1.3 0,-0.26 0.07,-0.55 0.17,-0.84 -0.25,0.21 -0.5,0.42 -0.75,0.62 -0.78,0.62 -2.29,1.8 -3.33,1.8 -0.44,0 -0.84,-0.14 -1.16,-0.44 -0.35,-0.34 -0.47,-0.81 -0.47,-1.28 0,-0.38 0.11,-0.79 0.23,-1.14 0.31,-0.93 0.73,-1.84 1.16,-2.71 0.89,-1.78 1.9,-3.54 2.9,-5.26 0.15,-0.26 0.48,-0.35 0.75,-0.21l1.62 0.84c0.14,0.07 0.23,0.18 0.28,0.33 0.05,0.15 0.03,0.29 -0.04,0.43l-2.79 5.24c0.11,-0.09 0.21,-0.16 0.26,-0.21 0.68,-0.54 1.33,-1.18 1.94,-1.8 0.65,-0.65 1.3,-1.32 1.91,-2.02 0.38,-0.43 0.78,-0.91 1.08,-1.4 0.15,-0.24 0.46,-0.33 0.72,-0.21l1.67 0.79c0.14,0.07 0.24,0.18 0.29,0.33 0.05,0.16 0.04,0.31 -0.04,0.45l-1.64 2.95c-0.38,0.69 -0.77,1.38 -1.11,2.08 0.21,-0.16 0.41,-0.32 0.59,-0.51 0.19,-0.19 0.48,-0.22 0.71,-0.07l0.51 0.34 0.13 -0.41c0.05,-0.13 0.12,-0.23 0.24,-0.3l0.37 -0.24c0.58,-1.61 1.7,-2.95 2.98,-4.05 1.38,-1.19 3.05,-2.15 4.92,-2.15 0.68,0 1.37,0.14 1.87,0.62 0.43,0.41 0.67,0.92 0.67,1.52 0,1.12 -0.58,2.04 -1.4,2.78 -1.48,1.34 -3.82,2.15 -5.79,2.66 0,0.01 0,0.01 0,0.02 0,0.07 0.05,0.1 0.11,0.13 0.21,0.12 0.53,0.15 0.78,0.15 0.58,0 1.24,-0.2 1.78,-0.39 0.77,-0.27 1.51,-0.63 2.21,-1.06 0.21,-0.12 0.46,-0.11 0.64,0.04 0.06,0.05 0.11,0.11 0.15,0.17l3.43 -6.71c0.14,-0.27 0.47,-0.38 0.74,-0.26l1.7 0.8c0.14,0.06 0.24,0.17 0.29,0.32 0.06,0.16 0.04,0.3 -0.03,0.45l-1.45 2.8c0.08,-0.02 0.17,-0.03 0.25,-0.05 0.51,-0.08 1.08,-0.18 1.59,-0.18l0.11 0 1.45 -3.05c0.13,-0.27 0.45,-0.39 0.73,-0.27l1.72 0.74c0.15,0.06 0.25,0.17 0.31,0.32 0.05,0.15 0.04,0.3 -0.03,0.44l-2.25 4.57c-0.1,0.22 -0.19,0.44 -0.28,0.65 -0.02,0.05 -0.05,0.12 -0.07,0.19 0.39,-0.13 0.97,-0.42 1.17,-0.52 0.35,-0.18 0.69,-0.36 1.04,-0.54 0.2,-0.11 0.44,-0.08 0.62,0.06 0.05,0.05 0.1,0.11 0.13,0.17l3.24 -6.55c0.07,-0.14 0.18,-0.24 0.33,-0.29 0.14,-0.05 0.29,-0.04 0.43,0.04l1.72 0.88c0.14,0.07 0.24,0.19 0.28,0.34 0.05,0.15 0.04,0.29 -0.04,0.43l-0.72 1.33c0.16,-0.15 0.33,-0.3 0.49,-0.44 0.35,-0.31 0.78,-0.67 1.25,-0.96 -0.02,-0.02 -0.03,-0.04 -0.05,-0.06l-0.83 -1.13c-0.1,-0.14 -0.14,-0.29 -0.1,-0.45 0.03,-0.16 0.12,-0.29 0.26,-0.37 1.47,-0.86 3.02,-1.62 4.64,-2.17 1.87,-0.63 3.81,-0.99 5.79,-0.99 0.2,0 0.37,0.1 0.47,0.26 0.11,0.17 0.12,0.36 0.04,0.54l-1.03 2.26c-0.12,0.26 -0.4,0.39 -0.67,0.31 -0.47,-0.13 -1.08,-0.15 -1.57,-0.15 -1.26,0 -2.49,0.28 -3.66,0.73 -0.48,0.18 -0.96,0.4 -1.42,0.64 0.43,0.04 0.82,0.2 1.12,0.52 0.29,0.32 0.46,0.7 0.46,1.13 0,0.22 -0.04,0.44 -0.11,0.66 0.26,-0.19 0.52,-0.37 0.79,-0.53 0.51,-0.3 1.12,-0.58 1.72,-0.58 0.35,0 0.68,0.13 0.98,0.33 0.41,0.28 0.59,0.72 0.59,1.22 0,0.79 -0.66,1.94 -1.07,2.6 -0.21,0.35 -0.44,0.7 -0.67,1.04 0,0 0,0 0.01,-0.01 0.68,-0.27 1.35,-0.55 2.03,-0.83 0.19,-0.08 0.4,-0.05 0.56,0.07zm-28.37 -3.68c-0.58,0.1 -1.25,0.69 -1.63,1.05 -0.27,0.26 -0.54,0.55 -0.8,0.86 0.36,-0.17 0.71,-0.35 1.05,-0.55 0.4,-0.24 1.25,-0.81 1.38,-1.36z"/>
  </g>
  <path class="fil3" d="M56.16 47.81l-1.64 2.95c-0.55,1 -0.93,1.71 -1.14,2.12 -0.2,0.41 -0.3,0.68 -0.3,0.81 0,0.13 0.04,0.22 0.12,0.26 0.09,0.04 0.15,0.06 0.22,0.06 0.13,0 0.36,-0.11 0.67,-0.34 0.32,-0.23 0.59,-0.45 0.8,-0.67l1.27 0.84c-0.46,0.79 -0.88,1.57 -1.26,2.36 -0.47,0.97 -0.94,2.03 -1.4,3.2l-1.65 -0.76c0.34,-0.81 0.7,-1.48 1.09,-2.02 0.67,-0.92 1.01,-1.45 1.03,-1.6l-0.15 -0.12c-0.26,0.21 -0.58,0.41 -0.97,0.6 -0.38,0.19 -0.72,0.28 -1.01,0.28 -0.26,0 -0.47,-0.05 -0.63,-0.17 -0.26,-0.18 -0.39,-0.46 -0.39,-0.84 0,-0.42 0.24,-1.06 0.73,-1.92 0.35,-0.59 0.57,-0.97 0.67,-1.15l-0.15 -0.08c-0.84,0.86 -1.76,1.69 -2.76,2.49 -1.39,1.12 -2.38,1.67 -2.97,1.67 -0.32,0 -0.57,-0.09 -0.77,-0.28 -0.19,-0.19 -0.29,-0.48 -0.29,-0.87 0,-0.25 0.06,-0.57 0.19,-0.96 0.25,-0.73 0.63,-1.61 1.14,-2.64 0.64,-1.28 1.6,-3.02 2.88,-5.22l1.62 0.84 -2.81 5.27c-0.11,0.23 -0.2,0.41 -0.27,0.53 -0.06,0.12 -0.09,0.22 -0.09,0.28 0,0.23 0.09,0.35 0.27,0.35 0.47,0 1.54,-0.85 3.21,-2.54 1.56,-1.56 2.58,-2.73 3.07,-3.52l1.67 0.79zm10.16 0.05c0,0.85 -0.4,1.64 -1.2,2.36 -1.18,1.07 -3.17,1.95 -5.96,2.63 -0.02,0.07 -0.02,0.15 -0.02,0.25 0,0.1 0,0.17 0,0.22 0,0.26 0.13,0.47 0.39,0.62 0.26,0.15 0.62,0.22 1.06,0.22 0.52,0 1.18,-0.14 1.97,-0.42 0.79,-0.28 1.56,-0.65 2.31,-1.11l-0.54 1.6c-0.69,0.45 -1.49,0.82 -2.4,1.11 -0.91,0.3 -1.77,0.44 -2.57,0.44 -0.81,0 -1.44,-0.23 -1.9,-0.69 -0.33,-0.32 -0.53,-0.7 -0.61,-1.13l0 -0.29 -1.01 0.61 0.54 -1.65 0.54 -0.34c0.46,-1.4 1.42,-2.74 2.88,-4 1.56,-1.34 3.08,-2.01 4.55,-2.01 0.66,0 1.15,0.16 1.48,0.47 0.33,0.31 0.49,0.68 0.49,1.11zm-2.31 0.44c0,-0.3 -0.14,-0.44 -0.42,-0.44 -0.61,0 -1.33,0.4 -2.18,1.22 -0.84,0.81 -1.44,1.59 -1.78,2.35 0.92,-0.25 1.82,-0.64 2.71,-1.16 1.11,-0.67 1.67,-1.33 1.67,-1.97zm12.04 4.26l-0.49 1.67c-1.05,0.61 -1.9,1.04 -2.54,1.28 -0.46,0.18 -0.8,0.27 -1.03,0.27 -0.45,0 -0.81,-0.13 -1.09,-0.39 -0.28,-0.26 -0.42,-0.62 -0.42,-1.06 0,-0.31 0.41,-1.27 1.21,-2.88 -0.43,0 -0.98,0.08 -1.65,0.25 -0.49,0.11 -1.07,0.28 -1.75,0.51l-1.82 3.74 -1.99 -0.62 4.82 -9.43 1.7 0.8 -2.02 3.89c0.28,-0.1 0.75,-0.21 1.42,-0.32 0.66,-0.12 1.16,-0.17 1.49,-0.17l0.47 0 1.6 -3.38 1.72 0.74 -2.27 4.58c-0.05,0.12 -0.14,0.34 -0.28,0.68 -0.14,0.34 -0.21,0.54 -0.21,0.63 0,0.26 0.12,0.39 0.37,0.39 0.3,0 0.87,-0.21 1.72,-0.64 0.35,-0.18 0.69,-0.36 1.04,-0.54zm17.18 -10.09l-1.03 2.26c-0.41,-0.11 -0.99,-0.17 -1.73,-0.17 -1.24,0 -2.53,0.25 -3.86,0.76 -0.82,0.31 -1.72,0.76 -2.68,1.36l-0.84 -1.14c1.57,-0.92 3.08,-1.62 4.53,-2.11 1.88,-0.64 3.76,-0.96 5.61,-0.96zm-1.77 10.09l-0.54 1.69c-2.09,1.15 -3.43,1.72 -4.02,1.73 -0.57,-0.01 -0.94,-0.25 -1.1,-0.75 -0.04,-0.16 -0.05,-0.3 -0.05,-0.41 0,-0.09 0.03,-0.26 0.08,-0.53 0.06,-0.27 0.22,-0.63 0.48,-1.07 0.22,-0.33 0.43,-0.67 0.64,-1.01 0.02,-0.04 0.13,-0.21 0.32,-0.52 0.15,-0.23 0.22,-0.41 0.22,-0.54 0,-0.15 -0.07,-0.22 -0.22,-0.22 -0.39,0 -1.13,0.53 -2.2,1.6 -1.08,1.07 -2.04,2.22 -2.89,3.45l-1.8 -0.48 2.71 -5.16 0.05 -0.18 -0.13 -0.19c-0.34,0 -1.13,0.64 -2.36,1.92 -1.3,1.36 -2.38,2.72 -3.25,4.09l-1.82 -0.48 4.7 -9.51 1.73 0.88 -2 3.67 0.22 0.15c1.04,-0.99 1.84,-1.73 2.42,-2.24 1.05,-0.94 1.89,-1.41 2.53,-1.41 0.39,0 0.7,0.12 0.91,0.35 0.21,0.23 0.32,0.48 0.32,0.75 0,0.37 -0.2,0.88 -0.61,1.54 -0.33,0.53 -0.69,1.01 -1.06,1.44l0.24 0.15c1.17,-1.2 2.15,-2.04 2.96,-2.52 0.56,-0.33 1.03,-0.5 1.43,-0.5 0.21,0 0.43,0.08 0.66,0.23 0.23,0.16 0.34,0.41 0.34,0.76 0,0.46 -0.32,1.23 -0.98,2.31 -0.08,0.13 -0.36,0.56 -0.84,1.28 -0.19,0.3 -0.29,0.52 -0.29,0.66 0,0.07 0.02,0.12 0.06,0.15 0.04,0.03 0.09,0.07 0.16,0.1 0.1,0 1.09,-0.39 2.98,-1.18zm10.41 0l-0.54 1.67c-0.46,0.33 -1.01,0.65 -1.65,0.96 -0.79,0.4 -1.39,0.59 -1.8,0.59 -0.33,0 -0.59,-0.05 -0.78,-0.17 -0.33,-0.2 -0.5,-0.53 -0.5,-1.01 0,-0.31 0.06,-0.63 0.18,-0.97 0.11,-0.34 0.38,-0.87 0.81,-1.61 0.75,-1.3 1.13,-1.96 1.13,-2l0 -0.19c0,-0.04 0,-0.06 0,-0.08 -0.07,-0.14 -0.2,-0.22 -0.39,-0.22 -0.43,0 -0.97,0.34 -1.63,1.01 -0.29,0.3 -0.75,0.84 -1.35,1.63 -0.77,0.98 -1.43,1.96 -1.97,2.95 -0.46,0.82 -0.94,1.81 -1.44,2.98 -0.5,1.16 -1.01,2.34 -1.52,3.54l-1.77 -0.44c1.3,-3.35 2.63,-6.54 3.99,-9.58 1.36,-3.04 2.71,-5.8 4.04,-8.3l1.62 0.79 -3.4 6.55 0.25 0.15c1.35,-1.36 2.4,-2.32 3.15,-2.87 0.76,-0.55 1.36,-0.82 1.8,-0.82 0.36,0 0.65,0.13 0.87,0.4 0.22,0.28 0.33,0.58 0.33,0.93 0,0.26 -0.05,0.53 -0.16,0.81 -0.1,0.28 -0.27,0.65 -0.51,1.12 -0.24,0.47 -0.6,1.11 -1.07,1.93 -0.28,0.48 -0.42,0.8 -0.42,0.96 0,0.22 0.1,0.32 0.29,0.32 0.17,0 0.5,-0.11 0.99,-0.34 0.49,-0.23 0.97,-0.46 1.45,-0.69z"/>
  <g id="_2539632308944">
   <path class="fil4" d="M137.87 11.55c0,-0.59 0.06,-1.25 0.2,-1.96 0.13,-0.72 0.36,-1.38 0.7,-2 0.33,-0.61 0.76,-1.13 1.29,-1.54 0.54,-0.42 1.18,-0.63 1.94,-0.63l7.52 0 0 28.34 -11.65 0 0 -22.21zm-8.53 25.12l29.03 0 0 -2.91 -3.06 0 0 -31.2 -16.38 0c-1.15,0 -2.14,0.3 -2.96,0.9 -0.82,0.59 -1.5,1.34 -2.03,2.23 -0.53,0.89 -0.92,1.86 -1.17,2.92 -0.24,1.05 -0.36,2.03 -0.36,2.94l0 22.21 -3.07 0 0 2.91z"/>
   <polygon class="fil4" points="125.08,36.61 125.08,2.56 119.36,2.56 119.36,18.1 107.51,18.1 107.51,2.56 101.71,2.56 101.71,36.61 107.51,36.61 107.51,20.96 119.36,20.96 119.36,36.61 "/>
   <path class="fil4" d="M89.73 26.32l-8.06 0 3.93 -19.05c0.05,-0.16 0.07,-0.34 0.07,-0.54 0,-0.2 0,-0.42 0,-0.65l0.13 0c0,0.19 0,0.39 0,0.59 0,0.2 0.02,0.4 0.07,0.6l3.86 19.05zm7.72 10.35l-7.79 -34.05 -7.92 0 -7.79 34.05 5.73 0 1.46 -7.5 9.12 0 1.47 7.5 5.72 0z"/>
   <polygon class="fil4" points="42.59,5.42 42.59,2.56 24.55,2.56 24.55,36.61 30.34,36.61 30.34,5.42 "/>
   <path class="fil4" d="M69.69 12.92c0,-0.95 -0.11,-2.02 -0.34,-3.21 -0.22,-1.19 -0.57,-2.32 -1.06,-3.4 -0.49,-1.07 -1.15,-1.96 -2,-2.67 -0.84,-0.72 -1.86,-1.08 -3.06,-1.08l-16.38 0 0 34.05 5.79 0 0 -13.64c3.49,0 7.07,0.01 10.59,0.01 1.24,0 2.27,-0.34 3.1,-1.01 0.82,-0.67 1.48,-1.52 1.99,-2.53 0.51,-1.01 0.87,-2.1 1.07,-3.27 0.2,-1.17 0.3,-2.26 0.3,-3.25zm-17.05 7.21l0 -14.71 7.53 0c0.8,0 1.46,0.27 1.99,0.8 0.54,0.54 0.96,1.2 1.27,1.97 0.31,0.77 0.53,1.59 0.67,2.44 0.13,0.85 0.19,1.58 0.19,2.17 0,0.64 -0.05,1.37 -0.16,2.21 -0.11,0.83 -0.32,1.62 -0.63,2.38 -0.31,0.75 -0.74,1.4 -1.27,1.93 -0.53,0.54 -1.22,0.8 -2.06,0.8 -2.5,0 -5.04,0.01 -7.53,0.01z"/>
  </g>
  <g id="_2539637393424">
   <path class="fil5" d="M136.51 10.19c0,-0.6 0.06,-1.25 0.2,-1.97 0.13,-0.71 0.36,-1.38 0.7,-1.99 0.33,-0.62 0.76,-1.13 1.29,-1.55 0.54,-0.42 1.18,-0.63 1.93,-0.63l7.53 0 0 28.34 -11.65 0 0 -22.2zm-8.53 25.12l29.03 0 0 -2.92 -3.06 0 0 -31.19 -16.38 0c-1.15,0 -2.14,0.29 -2.96,0.89 -0.82,0.6 -1.5,1.34 -2.03,2.23 -0.53,0.9 -0.92,1.87 -1.17,2.92 -0.24,1.05 -0.36,2.03 -0.36,2.95l0 22.2 -3.07 0 0 2.92z"/>
   <polygon class="fil5" points="123.72,35.25 123.72,1.2 118,1.2 118,16.73 106.15,16.73 106.15,1.2 100.35,1.2 100.35,35.25 106.15,35.25 106.15,19.59 118,19.59 118,35.25 "/>
   <path class="fil5" d="M88.37 24.95l-8.06 0 3.93 -19.05c0.04,-0.16 0.07,-0.34 0.07,-0.54 0,-0.19 0,-0.41 0,-0.65l0.13 0c0,0.2 0,0.4 0,0.59 0,0.2 0.02,0.4 0.07,0.6l3.86 19.05zm7.72 10.36l-7.79 -34.05 -7.92 0 -7.79 34.05 5.72 0 1.47 -7.5 9.12 0 1.47 7.5 5.72 0z"/>
   <polygon class="fil5" points="41.23,4.05 41.23,1.2 23.18,1.2 23.18,35.25 28.98,35.25 28.98,4.05 "/>
   <path class="fil5" d="M68.33 11.55c0,-0.95 -0.11,-2.02 -0.34,-3.21 -0.22,-1.19 -0.57,-2.32 -1.06,-3.39 -0.49,-1.07 -1.16,-1.97 -2,-2.68 -0.84,-0.72 -1.86,-1.07 -3.06,-1.07l-16.38 0 0 34.05 5.79 0 0 -13.65c3.49,0 7.07,0.02 10.59,0.02 1.24,0 2.27,-0.34 3.09,-1.02 0.83,-0.67 1.49,-1.51 2,-2.53 0.51,-1.01 0.87,-2.1 1.07,-3.27 0.2,-1.17 0.3,-2.25 0.3,-3.25zm-17.05 7.22l0 -14.72 7.53 0c0.79,0 1.46,0.27 1.99,0.81 0.54,0.53 0.96,1.19 1.27,1.96 0.31,0.78 0.53,1.59 0.66,2.44 0.14,0.86 0.2,1.58 0.2,2.18 0,0.63 -0.05,1.36 -0.16,2.2 -0.11,0.83 -0.32,1.63 -0.64,2.38 -0.31,0.75 -0.73,1.4 -1.26,1.93 -0.53,0.54 -1.22,0.81 -2.06,0.81 -2.5,0 -5.05,0.01 -7.53,0.01z"/>
  </g>
  <path class="fil2" d="M33.16 51.58c1.36,-1.22 2.21,-2.98 2.21,-4.95 0,-3.66 -2.97,-6.64 -6.64,-6.64 -3.67,0 -6.65,2.98 -6.65,6.64 0,2.03 0.91,3.84 2.34,5.06l0 10.11 4.46 -3.42 4.28 3.42 0 -10.22zm-4.43 -0.78c2.3,0 4.16,-1.87 4.16,-4.17 0,-2.3 -1.86,-4.16 -4.16,-4.16 -2.3,0 -4.17,1.86 -4.17,4.16 0,2.3 1.87,4.17 4.17,4.17z"/>
  <g id="_2539803921168">
   <path class="fil6" d="M136.68 10.18c0,-0.59 0.07,-1.25 0.2,-1.96 0.14,-0.72 0.37,-1.38 0.7,-2 0.34,-0.61 0.77,-1.13 1.3,-1.54 0.54,-0.42 1.18,-0.63 1.94,-0.63l7.53 0 0 28.34 -11.67 0 0 -22.21zm-8.53 25.13l29.07 0 0 -2.92 -3.06 0 0 -31.2 -16.41 0c-1.15,0 -2.14,0.3 -2.97,0.9 -0.82,0.59 -1.5,1.33 -2.03,2.23 -0.53,0.89 -0.92,1.86 -1.17,2.92 -0.24,1.05 -0.36,2.03 -0.36,2.94l0 22.21 -3.07 0 0 2.92z"/>
   <polygon class="fil7" points="123.88,35.25 123.88,1.19 118.15,1.19 118.15,16.73 106.28,16.73 106.28,1.19 100.47,1.19 100.47,35.25 106.28,35.25 106.28,19.59 118.15,19.59 118.15,35.25 "/>
   <path class="fil8" d="M88.47 24.95l-8.07 0 3.94 -19.05c0.04,-0.16 0.06,-0.34 0.06,-0.54 0,-0.2 0,-0.42 0,-0.66l0.14 0c0,0.2 0,0.4 0,0.6 0,0.2 0.02,0.4 0.06,0.6l3.87 19.05zm7.74 10.36l-7.81 -34.06 -7.93 0 -7.8 34.06 5.73 0 1.47 -7.51 9.13 0 1.47 7.51 5.74 0z"/>
   <polygon class="fil9" points="41.26,4.05 41.26,1.19 23.18,1.19 23.18,35.25 28.99,35.25 28.99,4.05 "/>
   <path class="fil10" d="M68.4 11.55c0,-0.95 -0.11,-2.02 -0.34,-3.21 -0.22,-1.19 -0.57,-2.33 -1.06,-3.4 -0.49,-1.07 -1.16,-1.96 -2,-2.68 -0.85,-0.71 -1.87,-1.07 -3.07,-1.07l-16.41 0 0 34.06 5.81 0 0 -13.65c3.49,0 7.08,0.01 10.6,0.01 1.24,0 2.28,-0.33 3.1,-1.01 0.82,-0.67 1.49,-1.52 2,-2.53 0.51,-1.01 0.87,-2.1 1.07,-3.27 0.2,-1.17 0.3,-2.26 0.3,-3.25zm-17.07 7.21l0 -14.71 7.53 0c0.8,0 1.47,0.27 2,0.8 0.54,0.54 0.96,1.19 1.27,1.97 0.31,0.77 0.53,1.59 0.67,2.44 0.13,0.85 0.2,1.58 0.2,2.17 0,0.64 -0.06,1.37 -0.17,2.21 -0.11,0.83 -0.32,1.62 -0.63,2.38 -0.32,0.75 -0.74,1.4 -1.27,1.93 -0.53,0.54 -1.23,0.81 -2.07,0.81 -2.5,0 -5.05,0 -7.53,0z"/>
  </g>
 </g>
</svg>
